STARTFONT 2.3
FONT -FontForge-Lobster-Book-R-Normal--11-110-72-72-P-64-ISO10646-1
SIZE 11 72 72  2
FONTBOUNDINGBOX 22 18 -5 -6
COMMENT "Generated by fontforge, http://fontforge.sourceforge.net"
COMMENT "Copyright 2010 The Lobster Project Authors (https://github.com/impallari/The-Lobster-Font), with Reserved Font Name "Lobster"."
STARTPROPERTIES 41
FOUNDRY "FontForge"
FAMILY_NAME "Lobster"
WEIGHT_NAME "Book"
SLANT "R"
SETWIDTH_NAME "Normal"
ADD_STYLE_NAME ""
PIXEL_SIZE 11
POINT_SIZE 110
RESOLUTION_X 72
RESOLUTION_Y 72
SPACING "P"
AVERAGE_WIDTH 64
CHARSET_REGISTRY "ISO10646"
CHARSET_ENCODING "1"
FONTNAME_REGISTRY ""
CHARSET_COLLECTIONS "ISO8859-2 ISO8859-5 ISO8859-9 ISO8859-4 ISO10646-1"
BITS_PER_PIXEL 2
FONT_NAME "Lobster-Regular"
FACE_NAME "Lobster Regular"
COPYRIGHT "Copyright 2010 The Lobster Project Authors (https://github.com/impallari/The-Lobster-Font), with Reserved Font Name "Lobster"."
FONT_VERSION "2.100"
FONT_ASCENT 9
FONT_DESCENT 2
UNDERLINE_POSITION -1
UNDERLINE_THICKNESS 1
X_HEIGHT 5
CAP_HEIGHT 8
DEFAULT_CHAR 1
RAW_ASCENT 800
RAW_DESCENT 200
NORM_SPACE 2
RELATIVE_WEIGHT 40
RELATIVE_SETWIDTH 50
SUPERSCRIPT_X 0
SUPERSCRIPT_Y 3
SUPERSCRIPT_SIZE 6
SUBSCRIPT_X 0
SUBSCRIPT_Y 0
SUBSCRIPT_SIZE 6
AVG_LOWERCASE_WIDTH 52
AVG_UPPERCASE_WIDTH 67
ENDPROPERTIES
CHARS 1148
STARTCHAR NULL.dup1
ENCODING 0
SWIDTH 600 0
DWIDTH 7 0
BBX 1 1 0 0
BITMAP
00
ENDCHAR
STARTCHAR nonmarkingreturn
ENCODING 13
SWIDTH 600 0
DWIDTH 7 0
BBX 1 1 0 0
BITMAP
00
ENDCHAR
STARTCHAR space
ENCODING 32
SWIDTH 217 0
DWIDTH 2 0
BBX 1 1 0 0
BITMAP
00
ENDCHAR
STARTCHAR exclam
ENCODING 33
SWIDTH 257 0
DWIDTH 3 0
BBX 4 9 0 0
BITMAP
0D
1D
1C
28
24
30
00
60
70
ENDCHAR
STARTCHAR quotedbl
ENCODING 34
SWIDTH 353 0
DWIDTH 4 0
BBX 4 3 1 6
BITMAP
69
9C
94
ENDCHAR
STARTCHAR numbersign
ENCODING 35
SWIDTH 659 0
DWIDTH 7 0
BBX 7 8 0 1
BITMAP
0010
0620
0560
2EE4
0880
6EE0
1880
1580
ENDCHAR
STARTCHAR dollar
ENCODING 36
SWIDTH 548 0
DWIDTH 6 0
BBX 6 11 0 -1
BITMAP
0080
0BD0
1D60
1E60
0F00
0780
76C0
95D0
99C0
2E40
1400
ENDCHAR
STARTCHAR percent
ENCODING 37
SWIDTH 796 0
DWIDTH 9 0
BBX 9 9 0 0
BITMAP
1A0800
331400
632000
635000
668B40
295980
022580
052640
081E00
ENDCHAR
STARTCHAR ampersand
ENCODING 38
SWIDTH 682 0
DWIDTH 8 0
BBX 8 9 0 0
BITMAP
0790
1D60
1C90
1D00
1D59
75F8
B060
B450
6E40
ENDCHAR
STARTCHAR quotesingle
ENCODING 39
SWIDTH 196 0
DWIDTH 2 0
BBX 2 3 1 6
BITMAP
60
80
40
ENDCHAR
STARTCHAR parenleft
ENCODING 40
SWIDTH 437 0
DWIDTH 5 0
BBX 5 11 1 -3
BITMAP
0240
0900
1800
2400
3000
7000
7000
7000
3000
1400
0400
ENDCHAR
STARTCHAR parenright
ENCODING 41
SWIDTH 413 0
DWIDTH 5 0
BBX 5 11 -1 -3
BITMAP
0500
0300
0340
0240
0340
0340
0700
0A00
1800
2000
4000
ENDCHAR
STARTCHAR asterisk
ENCODING 42
SWIDTH 515 0
DWIDTH 6 0
BBX 4 5 1 4
BITMAP
24
EA
7C
AA
24
ENDCHAR
STARTCHAR plus
ENCODING 43
SWIDTH 442 0
DWIDTH 5 0
BBX 5 4 0 2
BITMAP
0800
0C00
BF40
1400
ENDCHAR
STARTCHAR comma
ENCODING 44
SWIDTH 216 0
DWIDTH 2 0
BBX 2 3 0 -1
BITMAP
A0
60
40
ENDCHAR
STARTCHAR hyphen
ENCODING 45
SWIDTH 290 0
DWIDTH 3 0
BBX 3 1 0 3
BITMAP
A4
ENDCHAR
STARTCHAR period
ENCODING 46
SWIDTH 263 0
DWIDTH 3 0
BBX 2 2 0 0
BITMAP
60
70
ENDCHAR
STARTCHAR slash
ENCODING 47
SWIDTH 311 0
DWIDTH 3 0
BBX 3 12 0 -3
BITMAP
08
08
08
18
14
24
20
20
60
50
90
80
ENDCHAR
STARTCHAR zero
ENCODING 48
SWIDTH 546 0
DWIDTH 6 0
BBX 6 9 0 0
BITMAP
06D0
1CB0
3870
7470
B0B0
B0A0
B0D0
B280
2A00
ENDCHAR
STARTCHAR one
ENCODING 49
SWIDTH 317 0
DWIDTH 3 0
BBX 4 9 0 0
BITMAP
05
7D
1C
2C
38
38
74
70
B0
ENDCHAR
STARTCHAR two
ENCODING 50
SWIDTH 492 0
DWIDTH 5 0
BBX 5 9 0 0
BITMAP
1B40
32C0
31C0
0280
0600
1800
6000
FFC0
AB40
ENDCHAR
STARTCHAR three
ENCODING 51
SWIDTH 514 0
DWIDTH 6 0
BBX 6 9 0 0
BITMAP
1A80
24D0
15D0
0740
0380
61D0
D1D0
D280
6A00
ENDCHAR
STARTCHAR four
ENCODING 52
SWIDTH 476 0
DWIDTH 5 0
BBX 6 9 0 0
BITMAP
0A00
0A00
0D80
1980
2280
BFD0
5740
0700
0A00
ENDCHAR
STARTCHAR five
ENCODING 53
SWIDTH 517 0
DWIDTH 6 0
BBX 6 8 0 0
BITMAP
1FD0
2400
3A40
12C0
21D0
A1D0
9280
7E00
ENDCHAR
STARTCHAR six
ENCODING 54
SWIDTH 500 0
DWIDTH 6 0
BBX 6 9 0 0
BITMAP
0690
2C60
3850
7400
B680
B1D0
A0D0
B180
2A00
ENDCHAR
STARTCHAR seven
ENCODING 55
SWIDTH 464 0
DWIDTH 5 0
BBX 6 9 0 0
BITMAP
3D10
55D0
0280
0700
0E00
2C00
3800
3800
2800
ENDCHAR
STARTCHAR eight
ENCODING 56
SWIDTH 499 0
DWIDTH 5 0
BBX 6 9 0 0
BITMAP
0A80
2890
38D0
2E80
1F40
B3C0
D1D0
E2C0
6A40
ENDCHAR
STARTCHAR nine
ENCODING 57
SWIDTH 489 0
DWIDTH 5 0
BBX 6 9 0 0
BITMAP
1B80
35C0
B1D0
A1D0
A2D0
2AC0
0280
9740
7900
ENDCHAR
STARTCHAR colon
ENCODING 58
SWIDTH 267 0
DWIDTH 3 0
BBX 3 5 0 1
BITMAP
24
28
00
60
70
ENDCHAR
STARTCHAR semicolon
ENCODING 59
SWIDTH 276 0
DWIDTH 3 0
BBX 3 6 0 -1
BITMAP
24
28
00
70
70
50
ENDCHAR
STARTCHAR less
ENCODING 60
SWIDTH 358 0
DWIDTH 4 0
BBX 4 4 0 1
BITMAP
06
68
A4
19
ENDCHAR
STARTCHAR equal
ENCODING 61
SWIDTH 515 0
DWIDTH 6 0
BBX 5 4 0 1
BITMAP
2A80
0000
0000
6A40
ENDCHAR
STARTCHAR greater
ENCODING 62
SWIDTH 362 0
DWIDTH 4 0
BBX 4 4 0 1
BITMAP
60
19
19
90
ENDCHAR
STARTCHAR question
ENCODING 63
SWIDTH 441 0
DWIDTH 5 0
BBX 5 9 0 0
BITMAP
2B40
6380
7340
0A00
1800
2000
1000
6000
7000
ENDCHAR
STARTCHAR at
ENCODING 64
SWIDTH 688 0
DWIDTH 8 0
BBX 7 9 0 -1
BITMAP
06A0
1818
769C
998C
CCCC
DD98
C9A0
9080
2A40
ENDCHAR
STARTCHAR A
ENCODING 65
SWIDTH 668 0
DWIDTH 7 0
BBX 8 11 0 -2
BITMAP
002D
009D
025C
6B6C
9938
5C38
2C74
2874
34B0
3400
1000
ENDCHAR
STARTCHAR B
ENCODING 66
SWIDTH 641 0
DWIDTH 7 0
BBX 7 9 0 0
BITMAP
1AA0
6624
9B30
9BE0
0D38
1D38
1C34
2C74
2AD0
ENDCHAR
STARTCHAR C
ENCODING 67
SWIDTH 497 0
DWIDTH 5 0
BBX 6 9 0 0
BITMAP
0B90
1D30
3860
7400
B400
B000
B000
B410
2E40
ENDCHAR
STARTCHAR D
ENCODING 68
SWIDTH 663 0
DWIDTH 7 0
BBX 7 9 0 0
BITMAP
0AA0
6628
9B1C
CE1C
4E2C
1D28
1C34
2CB0
3ED0
ENDCHAR
STARTCHAR E
ENCODING 69
SWIDTH 459 0
DWIDTH 5 0
BBX 6 9 0 0
BITMAP
0780
1C50
2C80
1C00
2D00
7400
B000
F040
7E00
ENDCHAR
STARTCHAR F
ENCODING 70
SWIDTH 459 0
DWIDTH 5 0
BBX 7 9 0 0
BITMAP
1BA4
5B00
9A00
CE00
5FC0
1D00
2C00
2C00
3800
ENDCHAR
STARTCHAR G
ENCODING 71
SWIDTH 578 0
DWIDTH 6 0
BBX 7 11 0 -2
BITMAP
0BA0
2D34
7830
B000
B060
B0A0
71E0
2AD0
19C0
2280
2A00
ENDCHAR
STARTCHAR H
ENCODING 72
SWIDTH 665 0
DWIDTH 7 0
BBX 8 9 0 0
BITMAP
0B4E
3F5D
AB1C
DA2C
4FF8
0D38
1D34
2C74
28B0
ENDCHAR
STARTCHAR I
ENCODING 73
SWIDTH 375 0
DWIDTH 4 0
BBX 5 9 0 0
BITMAP
1B40
7B00
9B00
CE00
0D00
1D00
1C00
2C00
3800
ENDCHAR
STARTCHAR J
ENCODING 74
SWIDTH 536 0
DWIDTH 6 0
BBX 7 11 0 -2
BITMAP
01B4
06B0
09B0
0CE0
01D0
01D0
02C0
0280
6780
9740
6900
ENDCHAR
STARTCHAR K
ENCODING 75
SWIDTH 601 0
DWIDTH 7 0
BBX 7 9 0 0
BITMAP
0B5C
6B24
9B50
CF80
5F90
1DB0
1CA0
2CE0
38E0
ENDCHAR
STARTCHAR L
ENCODING 76
SWIDTH 379 0
DWIDTH 4 0
BBX 8 12 0 -3
BITMAP
1B40
6B00
9B00
CE00
0D00
1D00
2C00
2C00
3C00
0780
01FD
0068
ENDCHAR
STARTCHAR M
ENCODING 77
SWIDTH 787 0
DWIDTH 9 0
BBX 8 9 1 0
BITMAP
1F0E
AB1E
CF2E
9F3D
2B6D
2BAC
5BAC
8B6C
8B28
ENDCHAR
STARTCHAR N
ENCODING 78
SWIDTH 668 0
DWIDTH 7 0
BBX 8 9 0 0
BITMAP
1F46
7B86
9B89
DAC9
5DDC
19E8
18F8
24B4
34B4
ENDCHAR
STARTCHAR O
ENCODING 79
SWIDTH 665 0
DWIDTH 7 0
BBX 8 9 0 0
BITMAP
0AA4
265C
9B1C
9D1D
2C1C
2C28
2834
2CA0
1F80
ENDCHAR
STARTCHAR P
ENCODING 80
SWIDTH 573 0
DWIDTH 6 0
BBX 7 9 0 0
BITMAP
0AA0
6634
9B24
CE34
4EA0
1E40
1C00
2C00
3800
ENDCHAR
STARTCHAR Q
ENCODING 81
SWIDTH 665 0
DWIDTH 7 0
BBX 8 11 0 -2
BITMAP
0AA4
266C
9B1C
9E1D
6D1C
2C28
2C34
2EB0
1ED0
00B4
0010
ENDCHAR
STARTCHAR R
ENCODING 82
SWIDTH 601 0
DWIDTH 7 0
BBX 7 9 0 0
BITMAP
0AA0
2634
9B34
CE60
4FE0
1DB0
1CA0
2CE0
38E0
ENDCHAR
STARTCHAR S
ENCODING 83
SWIDTH 570 0
DWIDTH 6 0
BBX 6 9 0 0
BITMAP
0790
1D30
1D60
0F00
07C0
25D0
A0E0
A1D0
2B40
ENDCHAR
STARTCHAR T
ENCODING 84
SWIDTH 481 0
DWIDTH 5 0
BBX 8 9 0 0
BITMAP
1BD1
63E9
D380
C740
4740
0B00
0A00
0E00
1D00
ENDCHAR
STARTCHAR U
ENCODING 85
SWIDTH 716 0
DWIDTH 8 0
BBX 9 9 0 0
BITMAP
1B8740
674700
C70B00
CB0E00
0E0E00
0D1D00
1D2C00
1D7800
0BE000
ENDCHAR
STARTCHAR V
ENCODING 86
SWIDTH 615 0
DWIDTH 7 0
BBX 8 9 0 0
BITMAP
1B45
6748
9748
C754
0760
0760
0390
03C0
0380
ENDCHAR
STARTCHAR W
ENCODING 87
SWIDTH 962 0
DWIDTH 11 0
BBX 12 9 0 0
BITMAP
1B4749
674B48
974F58
C75B60
076760
076750
039780
03C780
038740
ENDCHAR
STARTCHAR X
ENCODING 88
SWIDTH 620 0
DWIDTH 7 0
BBX 7 9 0 0
BITMAP
1B48
67A0
93E0
C2C0
02D0
02D0
06E0
08E0
14B0
ENDCHAR
STARTCHAR Y
ENCODING 89
SWIDTH 620 0
DWIDTH 7 0
BBX 8 9 0 0
BITMAP
1B45
6788
93C8
C2E4
01E0
01E0
01D0
02C0
03C0
ENDCHAR
STARTCHAR Z
ENCODING 90
SWIDTH 542 0
DWIDTH 6 0
BBX 6 9 0 0
BITMAP
2AF0
31D0
03C0
0740
0B00
1E00
2C00
7890
BE80
ENDCHAR
STARTCHAR bracketleft
ENCODING 91
SWIDTH 400 0
DWIDTH 4 0
BBX 5 12 0 -3
BITMAP
0E40
0C00
1C00
1800
2400
2400
3000
7000
6000
A000
9000
E400
ENDCHAR
STARTCHAR backslash
ENCODING 92
SWIDTH 362 0
DWIDTH 4 0
BBX 4 12 0 -3
BITMAP
50
60
20
20
20
14
18
08
08
08
05
05
ENDCHAR
STARTCHAR bracketright
ENCODING 93
SWIDTH 400 0
DWIDTH 4 0
BBX 5 12 -1 -3
BITMAP
06C0
0180
0280
0240
0300
0700
0600
0A00
0900
0D00
1C00
6800
ENDCHAR
STARTCHAR asciicircum
ENCODING 94
SWIDTH 421 0
DWIDTH 5 0
BBX 3 2 1 7
BITMAP
24
94
ENDCHAR
STARTCHAR underscore
ENCODING 95
SWIDTH 444 0
DWIDTH 5 0
BBX 5 1 0 0
BITMAP
6A40
ENDCHAR
STARTCHAR grave
ENCODING 96
SWIDTH 201 0
DWIDTH 2 0
BBX 2 2 0 7
BITMAP
60
20
ENDCHAR
STARTCHAR a
ENCODING 97
SWIDTH 526 0
DWIDTH 6 0
BBX 6 6 0 0
BITMAP
2ED0
76C0
E280
E380
E790
B6D0
ENDCHAR
STARTCHAR b
ENCODING 98
SWIDTH 444 0
DWIDTH 5 0
BBX 5 9 0 0
BITMAP
0400
3800
3400
7B00
B240
B240
E340
E600
B800
ENDCHAR
STARTCHAR c
ENCODING 99
SWIDTH 384 0
DWIDTH 4 0
BBX 5 6 0 0
BITMAP
2E00
7600
E000
E000
E140
B900
ENDCHAR
STARTCHAR d
ENCODING 100
SWIDTH 525 0
DWIDTH 6 0
BBX 6 9 0 0
BITMAP
0010
00E0
01D0
2ED0
76C0
E2C0
E380
E750
BA90
ENDCHAR
STARTCHAR e
ENCODING 101
SWIDTH 384 0
DWIDTH 4 0
BBX 5 6 0 0
BITMAP
2E00
7700
E600
F800
E140
B900
ENDCHAR
STARTCHAR f
ENCODING 102
SWIDTH 267 0
DWIDTH 3 0
BBX 7 12 -3 -3
BITMAP
0078
00E4
00D0
01E0
02C0
02C0
0380
0340
0740
2F00
5B00
2D00
ENDCHAR
STARTCHAR g
ENCODING 103
SWIDTH 507 0
DWIDTH 6 0
BBX 6 9 0 -3
BITMAP
2ED0
76C0
E280
E380
E750
BB90
1B00
5A00
2D00
ENDCHAR
STARTCHAR h
ENCODING 104
SWIDTH 505 0
DWIDTH 6 0
BBX 7 9 -1 0
BITMAP
0100
0E00
0D00
1ED0
2CE0
28E0
39D0
35D4
74E4
ENDCHAR
STARTCHAR i
ENCODING 105
SWIDTH 267 0
DWIDTH 3 0
BBX 3 8 0 0
BITMAP
28
24
74
B0
B0
E0
E4
B4
ENDCHAR
STARTCHAR j
ENCODING 106
SWIDTH 240 0
DWIDTH 3 0
BBX 5 11 -2 -3
BITMAP
0340
0240
0740
0B00
0B00
0E00
0D40
1E40
7C00
A800
B400
ENDCHAR
STARTCHAR k
ENCODING 107
SWIDTH 518 0
DWIDTH 6 0
BBX 7 9 -1 0
BITMAP
0100
0E00
0D00
1D60
2E80
2ED0
38E0
35D8
74F4
ENDCHAR
STARTCHAR l
ENCODING 108
SWIDTH 267 0
DWIDTH 3 0
BBX 4 8 0 0
BITMAP
38
34
74
B0
B0
E0
E5
B4
ENDCHAR
STARTCHAR m
ENCODING 109
SWIDTH 752 0
DWIDTH 8 0
BBX 10 6 -1 0
BITMAP
1EEB40
2CE340
28E740
39D700
35CB10
76C780
ENDCHAR
STARTCHAR n
ENCODING 110
SWIDTH 505 0
DWIDTH 6 0
BBX 7 6 -1 0
BITMAP
1ED0
2CE0
28E0
39D0
35D4
74E4
ENDCHAR
STARTCHAR o
ENCODING 111
SWIDTH 439 0
DWIDTH 5 0
BBX 6 6 0 0
BITMAP
2E00
7650
E380
E300
E600
B800
ENDCHAR
STARTCHAR p
ENCODING 112
SWIDTH 468 0
DWIDTH 5 0
BBX 6 10 -1 -3
BITMAP
0900
1ED0
2CB0
2CA0
38E0
35D0
7F40
B000
B000
9000
ENDCHAR
STARTCHAR q
ENCODING 113
SWIDTH 486 0
DWIDTH 5 0
BBX 5 9 0 -3
BITMAP
2EC0
76C0
E280
E380
E740
BB40
0B00
0A00
0900
ENDCHAR
STARTCHAR r
ENCODING 114
SWIDTH 376 0
DWIDTH 4 0
BBX 5 6 -1 0
BITMAP
1EC0
2D80
2C00
3800
3400
7400
ENDCHAR
STARTCHAR s
ENCODING 115
SWIDTH 382 0
DWIDTH 4 0
BBX 6 6 -1 0
BITMAP
0B40
0B40
1740
2740
6790
2E00
ENDCHAR
STARTCHAR t
ENCODING 116
SWIDTH 267 0
DWIDTH 3 0
BBX 3 8 0 0
BITMAP
24
34
B8
B0
B0
E0
E4
B4
ENDCHAR
STARTCHAR u
ENCODING 117
SWIDTH 505 0
DWIDTH 6 0
BBX 6 6 0 0
BITMAP
76C0
B280
B380
E740
EB60
B780
ENDCHAR
STARTCHAR v
ENCODING 118
SWIDTH 414 0
DWIDTH 5 0
BBX 5 6 0 0
BITMAP
7640
B140
B240
E200
E900
B800
ENDCHAR
STARTCHAR w
ENCODING 119
SWIDTH 661 0
DWIDTH 7 0
BBX 7 6 0 0
BITMAP
76C8
B288
B388
E758
EB64
B7D0
ENDCHAR
STARTCHAR x
ENCODING 120
SWIDTH 522 0
DWIDTH 6 0
BBX 6 6 0 0
BITMAP
1D50
5A90
4B80
4B00
1B10
6290
ENDCHAR
STARTCHAR y
ENCODING 121
SWIDTH 486 0
DWIDTH 5 0
BBX 6 9 0 -3
BITMAP
76C0
B380
B380
E740
EB50
BF80
2E00
5E00
7800
ENDCHAR
STARTCHAR z
ENCODING 122
SWIDTH 428 0
DWIDTH 5 0
BBX 5 6 0 0
BITMAP
2B40
5B00
0D00
2C00
7600
BA00
ENDCHAR
STARTCHAR braceleft
ENCODING 123
SWIDTH 352 0
DWIDTH 4 0
BBX 5 12 0 -3
BITMAP
0740
0D00
0C00
1C00
1C00
1800
7000
2400
3400
7000
7000
7400
ENDCHAR
STARTCHAR bar
ENCODING 124
SWIDTH 532 0
DWIDTH 6 0
BBX 2 12 2 -3
BITMAP
90
90
90
90
90
90
90
90
90
90
90
90
ENDCHAR
STARTCHAR braceright
ENCODING 125
SWIDTH 352 0
DWIDTH 4 0
BBX 4 12 -1 -3
BITMAP
0A
07
07
06
0A
09
07
0C
1C
1C
28
B4
ENDCHAR
STARTCHAR asciitilde
ENCODING 126
SWIDTH 431 0
DWIDTH 5 0
BBX 4 2 1 7
BITMAP
54
BD
ENDCHAR
STARTCHAR uni00A0
ENCODING 160
SWIDTH 217 0
DWIDTH 2 0
BBX 1 1 0 0
BITMAP
00
ENDCHAR
STARTCHAR exclamdown
ENCODING 161
SWIDTH 219 0
DWIDTH 2 0
BBX 4 9 -1 -3
BITMAP
0D
09
00
18
28
24
34
74
A0
ENDCHAR
STARTCHAR cent
ENCODING 162
SWIDTH 384 0
DWIDTH 4 0
BBX 5 9 0 -1
BITMAP
0100
1A40
3A80
A800
D800
A400
7900
2000
1000
ENDCHAR
STARTCHAR sterling
ENCODING 163
SWIDTH 455 0
DWIDTH 5 0
BBX 6 9 0 0
BITMAP
02D0
0A60
0D00
1C00
7E40
2800
3800
7450
BBD0
ENDCHAR
STARTCHAR currency
ENCODING 164
SWIDTH 500 0
DWIDTH 6 0
BBX 4 4 1 2
BITMAP
A9
85
85
AA
ENDCHAR
STARTCHAR yen
ENCODING 165
SWIDTH 558 0
DWIDTH 6 0
BBX 5 9 1 0
BITMAP
B080
7480
7940
3A00
2D00
7E40
2C00
BE40
7800
ENDCHAR
STARTCHAR brokenbar
ENCODING 166
SWIDTH 532 0
DWIDTH 6 0
BBX 2 12 2 -3
BITMAP
90
90
90
90
90
00
90
90
90
90
90
90
ENDCHAR
STARTCHAR section
ENCODING 167
SWIDTH 542 0
DWIDTH 6 0
BBX 6 10 0 -1
BITMAP
0690
0E20
0E10
2F40
36D0
2DE0
0B90
A780
D700
6900
ENDCHAR
STARTCHAR dieresis
ENCODING 168
SWIDTH 392 0
DWIDTH 4 0
BBX 4 1 0 7
BITMAP
66
ENDCHAR
STARTCHAR copyright
ENCODING 169
SWIDTH 587 0
DWIDTH 6 0
BBX 6 7 0 1
BITMAP
0A40
2050
5650
5450
5410
2690
0A40
ENDCHAR
STARTCHAR ordfeminine
ENCODING 170
SWIDTH 345 0
DWIDTH 4 0
BBX 4 4 0 5
BITMAP
2D
69
5C
69
ENDCHAR
STARTCHAR guillemotleft
ENCODING 171
SWIDTH 589 0
DWIDTH 6 0
BBX 6 4 0 1
BITMAP
0110
2580
6640
0850
ENDCHAR
STARTCHAR logicalnot
ENCODING 172
SWIDTH 444 0
DWIDTH 5 0
BBX 5 3 0 1
BITMAP
AB40
0300
0600
ENDCHAR
STARTCHAR uni00AD
ENCODING 173
SWIDTH 290 0
DWIDTH 3 0
BBX 3 1 0 3
BITMAP
A4
ENDCHAR
STARTCHAR registered
ENCODING 174
SWIDTH 553 0
DWIDTH 6 0
BBX 6 7 0 1
BITMAP
1A40
2040
4A10
4A10
4510
2080
0940
ENDCHAR
STARTCHAR macron
ENCODING 175
SWIDTH 446 0
DWIDTH 5 0
BBX 4 1 1 7
BITMAP
A9
ENDCHAR
STARTCHAR degree
ENCODING 176
SWIDTH 314 0
DWIDTH 3 0
BBX 3 4 0 4
BITMAP
14
58
98
64
ENDCHAR
STARTCHAR plusminus
ENCODING 177
SWIDTH 479 0
DWIDTH 5 0
BBX 5 6 0 1
BITMAP
0600
0900
7F80
0C00
0400
6A00
ENDCHAR
STARTCHAR uni00B2
ENCODING 178
SWIDTH 328 0
DWIDTH 4 0
BBX 4 5 0 4
BITMAP
2D
29
08
20
68
ENDCHAR
STARTCHAR uni00B3
ENCODING 179
SWIDTH 336 0
DWIDTH 4 0
BBX 4 5 0 4
BITMAP
2D
25
08
59
28
ENDCHAR
STARTCHAR acute
ENCODING 180
SWIDTH 316 0
DWIDTH 3 0
BBX 2 2 1 7
BITMAP
30
50
ENDCHAR
STARTCHAR uni00B5
ENCODING 181
SWIDTH 505 0
DWIDTH 6 0
BBX 7 8 -1 -2
BITMAP
1DB0
2CA0
2CE0
39D0
3AD8
7DE0
B000
A000
ENDCHAR
STARTCHAR paragraph
ENCODING 182
SWIDTH 542 0
DWIDTH 6 0
BBX 5 10 1 -1
BITMAP
2E00
BE40
FE80
FE40
FB00
2B00
2A00
3A00
3900
6D00
ENDCHAR
STARTCHAR periodcentered
ENCODING 183
SWIDTH 434 0
DWIDTH 5 0
BBX 3 2 1 2
BITMAP
B4
74
ENDCHAR
STARTCHAR cedilla
ENCODING 184
SWIDTH 227 0
DWIDTH 3 0
BBX 3 3 0 -3
BITMAP
10
64
64
ENDCHAR
STARTCHAR uni00B9
ENCODING 185
SWIDTH 229 0
DWIDTH 3 0
BBX 3 6 0 3
BITMAP
10
74
30
30
60
50
ENDCHAR
STARTCHAR ordmasculine
ENCODING 186
SWIDTH 329 0
DWIDTH 4 0
BBX 3 4 0 5
BITMAP
28
68
94
60
ENDCHAR
STARTCHAR guillemotright
ENCODING 187
SWIDTH 586 0
DWIDTH 6 0
BBX 6 4 0 1
BITMAP
1100
1990
1960
5500
ENDCHAR
STARTCHAR onequarter
ENCODING 188
SWIDTH 749 0
DWIDTH 8 0
BBX 8 9 0 0
BITMAP
1014
7420
3090
3080
625A
5216
092A
0809
2409
ENDCHAR
STARTCHAR onehalf
ENCODING 189
SWIDTH 745 0
DWIDTH 8 0
BBX 8 9 0 0
BITMAP
1014
7420
3090
3080
624A
5217
0905
0814
242A
ENDCHAR
STARTCHAR threequarters
ENCODING 190
SWIDTH 836 0
DWIDTH 9 0
BBX 9 9 0 0
BITMAP
2D0900
250800
082400
592000
289680
008580
024A80
020240
090240
ENDCHAR
STARTCHAR questiondown
ENCODING 191
SWIDTH 439 0
DWIDTH 5 0
BBX 4 9 0 -3
BITMAP
07
06
00
05
18
70
E7
D3
B9
ENDCHAR
STARTCHAR Agrave
ENCODING 192
SWIDTH 668 0
DWIDTH 7 0
BBX 8 14 0 -2
BITMAP
0028
0018
0000
002D
009D
025C
6B6C
9938
5C38
2C74
2874
34B0
3400
1000
ENDCHAR
STARTCHAR Aacute
ENCODING 193
SWIDTH 668 0
DWIDTH 7 0
BBX 9 14 0 -2
BITMAP
000340
000600
000400
002D00
009D00
025C00
6B6C00
993800
5C3800
2C7400
287400
34B000
340000
100000
ENDCHAR
STARTCHAR Acircumflex
ENCODING 194
SWIDTH 668 0
DWIDTH 7 0
BBX 9 14 0 -2
BITMAP
000200
000A00
001040
002D00
009D00
025C00
6B6C00
993800
5C3800
2C7400
287400
34B000
340000
100000
ENDCHAR
STARTCHAR Atilde
ENCODING 195
SWIDTH 668 0
DWIDTH 7 0
BBX 9 13 0 -2
BITMAP
002E40
000500
002D00
009D00
025C00
6B6C00
993800
5C3800
2C7400
287400
34B000
340000
100000
ENDCHAR
STARTCHAR Adieresis
ENCODING 196
SWIDTH 668 0
DWIDTH 7 0
BBX 9 13 0 -2
BITMAP
002740
000000
002D00
009D00
025C00
6B6C00
993800
5C3800
2C7400
287400
34B000
340000
100000
ENDCHAR
STARTCHAR Aring
ENCODING 197
SWIDTH 668 0
DWIDTH 7 0
BBX 8 14 0 -2
BITMAP
0009
0005
0009
002D
009D
025C
6B6C
9938
5C38
2C74
2874
34B0
3400
1000
ENDCHAR
STARTCHAR AE
ENCODING 198
SWIDTH 764 0
DWIDTH 8 0
BBX 10 11 0 -2
BITMAP
002E10
009E90
025D00
2F6C00
997F40
9C3800
2C7400
287400
34BA40
340000
100000
ENDCHAR
STARTCHAR Ccedilla
ENCODING 199
SWIDTH 497 0
DWIDTH 5 0
BBX 6 12 0 -3
BITMAP
0B90
1D30
3860
7400
B400
B000
B000
B450
2F40
0900
0700
1900
ENDCHAR
STARTCHAR Egrave
ENCODING 200
SWIDTH 459 0
DWIDTH 5 0
BBX 6 12 0 0
BITMAP
0300
0200
0000
0780
1C50
2C80
1C00
2D00
7400
B000
F040
7E00
ENDCHAR
STARTCHAR Eacute
ENCODING 201
SWIDTH 459 0
DWIDTH 5 0
BBX 6 12 0 0
BITMAP
0090
0080
0000
0780
1C50
2C80
1C00
2D00
7400
B000
F040
7E00
ENDCHAR
STARTCHAR Ecircumflex
ENCODING 202
SWIDTH 459 0
DWIDTH 5 0
BBX 6 12 0 0
BITMAP
0080
0650
0000
0780
1C50
2C80
1C00
2D00
7400
B000
F040
7E00
ENDCHAR
STARTCHAR Edieresis
ENCODING 203
SWIDTH 459 0
DWIDTH 5 0
BBX 6 11 0 0
BITMAP
0660
0000
0780
1C50
2C80
1C00
2D00
7400
B000
F040
7E00
ENDCHAR
STARTCHAR Igrave
ENCODING 204
SWIDTH 375 0
DWIDTH 4 0
BBX 5 12 0 0
BITMAP
0600
0600
0000
1B40
7B00
9B00
CE00
0D00
1D00
1C00
2C00
3800
ENDCHAR
STARTCHAR Iacute
ENCODING 205
SWIDTH 375 0
DWIDTH 4 0
BBX 5 12 0 0
BITMAP
00C0
0180
0100
1B40
7B00
9B00
CE00
0D00
1D00
1C00
2C00
3800
ENDCHAR
STARTCHAR Icircumflex
ENCODING 206
SWIDTH 375 0
DWIDTH 4 0
BBX 5 12 0 0
BITMAP
0180
0680
0440
1B40
7B00
9B00
CE00
0D00
1D00
1C00
2C00
3800
ENDCHAR
STARTCHAR Idieresis
ENCODING 207
SWIDTH 375 0
DWIDTH 4 0
BBX 6 11 0 0
BITMAP
0990
0000
1B40
7B00
9B00
CE00
0D00
1D00
1C00
2C00
3800
ENDCHAR
STARTCHAR Eth
ENCODING 208
SWIDTH 663 0
DWIDTH 7 0
BBX 7 9 0 0
BITMAP
0AA0
6628
9B1C
CE1C
5F6C
1D28
1C34
2CB0
3ED0
ENDCHAR
STARTCHAR Ntilde
ENCODING 209
SWIDTH 686 0
DWIDTH 8 0
BBX 8 11 0 0
BITMAP
00B9
0000
1F46
7B86
9B89
DAC9
5DDC
19E8
18F8
24B4
34B4
ENDCHAR
STARTCHAR Ograve
ENCODING 210
SWIDTH 665 0
DWIDTH 7 0
BBX 8 12 0 0
BITMAP
0280
0180
0000
0AA4
265C
9B1C
9D1D
2C1C
2C28
2834
2CA0
1F80
ENDCHAR
STARTCHAR Oacute
ENCODING 211
SWIDTH 665 0
DWIDTH 7 0
BBX 8 12 0 0
BITMAP
0024
0060
0040
0AA4
265C
9B1C
9D1D
2C1C
2C28
2834
2CA0
1F80
ENDCHAR
STARTCHAR Ocircumflex
ENCODING 212
SWIDTH 665 0
DWIDTH 7 0
BBX 8 12 0 0
BITMAP
0060
00A0
0100
0AA4
265C
9B1C
9D1D
2C1C
2C28
2834
2CA0
1F80
ENDCHAR
STARTCHAR Otilde
ENCODING 213
SWIDTH 665 0
DWIDTH 7 0
BBX 8 11 0 0
BITMAP
01F8
0054
0AA4
265C
9B1C
9D1D
2C1C
2C28
2834
2CA0
1F80
ENDCHAR
STARTCHAR Odieresis
ENCODING 214
SWIDTH 665 0
DWIDTH 7 0
BBX 8 11 0 0
BITMAP
0264
0000
0AA4
265C
9B1C
9D1D
2C1C
2C28
2834
2CA0
1F80
ENDCHAR
STARTCHAR multiply
ENCODING 215
SWIDTH 414 0
DWIDTH 5 0
BBX 4 4 0 2
BITMAP
01
7A
2D
66
ENDCHAR
STARTCHAR Oslash
ENCODING 216
SWIDTH 658 0
DWIDTH 7 0
BBX 7 10 0 -1
BITMAP
0050
0AE0
67A8
9E9C
ADAC
2D68
2974
2AB0
1FC0
0200
ENDCHAR
STARTCHAR Ugrave
ENCODING 217
SWIDTH 716 0
DWIDTH 8 0
BBX 9 12 0 0
BITMAP
006000
002000
000000
1B4740
674B00
C70A00
CA0E00
0E0D00
0D1D00
1D2C00
1D7400
0BE000
ENDCHAR
STARTCHAR Uacute
ENCODING 218
SWIDTH 716 0
DWIDTH 8 0
BBX 9 12 0 0
BITMAP
001800
002400
001000
1B4740
674B00
C70A00
CA0E00
0E0D00
0D1D00
1D2C00
1D7400
0BE000
ENDCHAR
STARTCHAR Ucircumflex
ENCODING 219
SWIDTH 716 0
DWIDTH 8 0
BBX 9 12 0 0
BITMAP
001800
006800
004400
1B4740
674B00
C70A00
CA0E00
0E0D00
0D1D00
1D2C00
1D7400
0BE000
ENDCHAR
STARTCHAR Udieresis
ENCODING 220
SWIDTH 716 0
DWIDTH 8 0
BBX 9 11 0 0
BITMAP
009900
000000
1B4740
674B00
C70A00
CA0E00
0E0D00
0D1D00
1D2C00
1D7400
0BE000
ENDCHAR
STARTCHAR Yacute
ENCODING 221
SWIDTH 620 0
DWIDTH 7 0
BBX 8 12 0 0
BITMAP
0009
0018
0014
1B45
6788
93C8
C2E4
01E0
01E0
01D0
02C0
03C0
ENDCHAR
STARTCHAR Thorn
ENCODING 222
SWIDTH 583 0
DWIDTH 6 0
BBX 7 9 0 0
BITMAP
0740
0B90
6F34
9E24
DD34
1DA0
1E80
2C00
3800
ENDCHAR
STARTCHAR germandbls
ENCODING 223
SWIDTH 480 0
DWIDTH 5 0
BBX 6 11 -1 -3
BITMAP
02D0
0A60
0D90
1D80
2CD0
38A0
38A0
7680
7000
B000
9000
ENDCHAR
STARTCHAR agrave
ENCODING 224
SWIDTH 526 0
DWIDTH 6 0
BBX 6 9 0 0
BITMAP
0600
0600
0000
2ED0
76C0
E280
E380
E790
B6D0
ENDCHAR
STARTCHAR aacute
ENCODING 225
SWIDTH 526 0
DWIDTH 6 0
BBX 6 9 0 0
BITMAP
0280
0300
0100
2ED0
76C0
E280
E380
E790
B6D0
ENDCHAR
STARTCHAR acircumflex
ENCODING 226
SWIDTH 526 0
DWIDTH 6 0
BBX 6 9 0 0
BITMAP
0140
0680
0000
2ED0
76C0
E280
E380
E790
B6D0
ENDCHAR
STARTCHAR atilde
ENCODING 227
SWIDTH 526 0
DWIDTH 6 0
BBX 6 8 0 0
BITMAP
1B90
0000
2ED0
76C0
E280
E380
E790
B6D0
ENDCHAR
STARTCHAR adieresis
ENCODING 228
SWIDTH 526 0
DWIDTH 6 0
BBX 6 8 0 0
BITMAP
0DC0
0000
2ED0
76C0
E280
E380
E790
B6D0
ENDCHAR
STARTCHAR aring
ENCODING 229
SWIDTH 526 0
DWIDTH 6 0
BBX 6 8 0 0
BITMAP
0600
0600
2ED0
76C0
E280
E380
E790
B6D0
ENDCHAR
STARTCHAR ae
ENCODING 230
SWIDTH 650 0
DWIDTH 7 0
BBX 7 6 0 0
BITMAP
2BB8
03CC
6B98
E7E0
E744
BAE4
ENDCHAR
STARTCHAR ccedilla
ENCODING 231
SWIDTH 384 0
DWIDTH 4 0
BBX 5 9 0 -3
BITMAP
2E00
7600
E000
E000
E140
BD00
1800
0900
2400
ENDCHAR
STARTCHAR egrave
ENCODING 232
SWIDTH 384 0
DWIDTH 4 0
BBX 5 9 0 0
BITMAP
0C00
0800
0000
2E00
7700
E600
F800
E140
B900
ENDCHAR
STARTCHAR eacute
ENCODING 233
SWIDTH 384 0
DWIDTH 4 0
BBX 5 9 0 0
BITMAP
0240
0600
0400
2E00
7700
E600
F800
E140
B900
ENDCHAR
STARTCHAR ecircumflex
ENCODING 234
SWIDTH 384 0
DWIDTH 4 0
BBX 5 9 0 0
BITMAP
0200
0A00
1000
2E00
7700
E600
F800
E140
B900
ENDCHAR
STARTCHAR edieresis
ENCODING 235
SWIDTH 384 0
DWIDTH 4 0
BBX 5 8 0 0
BITMAP
2640
0000
2E00
7700
E600
F800
E140
B900
ENDCHAR
STARTCHAR igrave
ENCODING 236
SWIDTH 267 0
DWIDTH 3 0
BBX 3 9 0 0
BITMAP
70
30
00
74
B0
B0
E0
E4
B4
ENDCHAR
STARTCHAR iacute
ENCODING 237
SWIDTH 267 0
DWIDTH 3 0
BBX 3 9 0 0
BITMAP
0C
14
10
74
B0
B0
E0
E4
B4
ENDCHAR
STARTCHAR icircumflex
ENCODING 238
SWIDTH 267 0
DWIDTH 3 0
BBX 3 9 0 0
BITMAP
18
68
00
74
B0
B0
E0
E4
B4
ENDCHAR
STARTCHAR idieresis
ENCODING 239
SWIDTH 267 0
DWIDTH 3 0
BBX 4 8 0 0
BITMAP
99
00
74
B0
B0
E0
E4
B4
ENDCHAR
STARTCHAR eth
ENCODING 240
SWIDTH 526 0
DWIDTH 6 0
BBX 6 9 0 0
BITMAP
0250
07D0
05C0
2EC0
76C0
E2C0
E380
E750
BA90
ENDCHAR
STARTCHAR ntilde
ENCODING 241
SWIDTH 505 0
DWIDTH 6 0
BBX 7 8 -1 0
BITMAP
07E0
0040
1ED0
2CE0
28E0
39D0
35D8
74F0
ENDCHAR
STARTCHAR ograve
ENCODING 242
SWIDTH 433 0
DWIDTH 5 0
BBX 6 9 0 0
BITMAP
0D00
0900
0000
2E00
7350
E340
E300
D600
B800
ENDCHAR
STARTCHAR oacute
ENCODING 243
SWIDTH 439 0
DWIDTH 5 0
BBX 6 9 0 0
BITMAP
0240
0600
0000
2E00
7650
E380
E300
E600
B800
ENDCHAR
STARTCHAR ocircumflex
ENCODING 244
SWIDTH 433 0
DWIDTH 5 0
BBX 6 9 0 0
BITMAP
0600
1A00
1000
2E00
7350
E340
E300
D600
B800
ENDCHAR
STARTCHAR otilde
ENCODING 245
SWIDTH 433 0
DWIDTH 5 0
BBX 6 8 0 0
BITMAP
2E40
0000
2E00
7350
E340
E300
D600
B800
ENDCHAR
STARTCHAR odieresis
ENCODING 246
SWIDTH 433 0
DWIDTH 5 0
BBX 6 8 0 0
BITMAP
2640
0000
2E00
7350
E340
E300
D600
B800
ENDCHAR
STARTCHAR divide
ENCODING 247
SWIDTH 415 0
DWIDTH 5 0
BBX 5 6 0 1
BITMAP
0A00
0900
6A40
0000
1800
2C00
ENDCHAR
STARTCHAR oslash
ENCODING 248
SWIDTH 428 0
DWIDTH 5 0
BBX 6 7 -1 -1
BITMAP
07A0
1D90
39D0
3AC0
3D80
3E00
4000
ENDCHAR
STARTCHAR ugrave
ENCODING 249
SWIDTH 505 0
DWIDTH 6 0
BBX 6 9 0 0
BITMAP
0900
0900
0000
76C0
B280
B380
E740
EB60
B780
ENDCHAR
STARTCHAR uacute
ENCODING 250
SWIDTH 505 0
DWIDTH 6 0
BBX 6 9 0 0
BITMAP
0240
0300
0000
76C0
B280
B380
E740
EB60
B780
ENDCHAR
STARTCHAR ucircumflex
ENCODING 251
SWIDTH 505 0
DWIDTH 6 0
BBX 6 9 0 0
BITMAP
0200
0A40
0000
76C0
B280
B380
E740
EB60
B780
ENDCHAR
STARTCHAR udieresis
ENCODING 252
SWIDTH 505 0
DWIDTH 6 0
BBX 6 8 0 0
BITMAP
1980
0000
76C0
B280
B380
E740
EB60
B780
ENDCHAR
STARTCHAR yacute
ENCODING 253
SWIDTH 505 0
DWIDTH 6 0
BBX 6 12 0 -3
BITMAP
0240
0200
0000
76C0
B380
B380
E740
EB50
BF80
2E00
5E00
7800
ENDCHAR
STARTCHAR thorn
ENCODING 254
SWIDTH 473 0
DWIDTH 5 0
BBX 6 12 -1 -3
BITMAP
0A00
0E00
0D00
1ED0
2CA0
2CA0
38E0
35D0
7B40
B000
B000
9000
ENDCHAR
STARTCHAR ydieresis
ENCODING 255
SWIDTH 505 0
DWIDTH 6 0
BBX 6 11 0 -3
BITMAP
1A80
0000
76C0
B380
B380
E740
EB50
BF80
2E00
5E00
7800
ENDCHAR
STARTCHAR Amacron
ENCODING 256
SWIDTH 668 0
DWIDTH 7 0
BBX 9 13 0 -2
BITMAP
002A40
000000
002D00
009D00
025C00
6B6C00
993800
5C3800
2C7400
287400
34B000
340000
100000
ENDCHAR
STARTCHAR amacron
ENCODING 257
SWIDTH 526 0
DWIDTH 6 0
BBX 6 8 0 0
BITMAP
0A90
0000
2ED0
76C0
E280
E380
E790
B6D0
ENDCHAR
STARTCHAR Abreve
ENCODING 258
SWIDTH 668 0
DWIDTH 7 0
BBX 9 13 0 -2
BITMAP
002080
001A40
002D00
009D00
025C00
6B6C00
993800
5C3800
2C7400
287400
34B000
340000
100000
ENDCHAR
STARTCHAR abreve
ENCODING 259
SWIDTH 526 0
DWIDTH 6 0
BBX 6 9 0 0
BITMAP
1890
0A40
0000
2ED0
76C0
E280
E380
E790
B6D0
ENDCHAR
STARTCHAR Aogonek
ENCODING 260
SWIDTH 668 0
DWIDTH 7 0
BBX 8 11 0 -2
BITMAP
002D
009D
025C
6B6C
9938
5C38
2874
3874
34B0
2480
00A0
ENDCHAR
STARTCHAR aogonek
ENCODING 261
SWIDTH 526 0
DWIDTH 6 0
BBX 6 8 0 -2
BITMAP
2ED0
76C0
E280
E380
E750
B790
0240
0280
ENDCHAR
STARTCHAR Cacute
ENCODING 262
SWIDTH 497 0
DWIDTH 5 0
BBX 6 12 0 0
BITMAP
0060
00C0
0040
0B90
1D30
3860
7400
B400
B000
B000
B410
2E40
ENDCHAR
STARTCHAR cacute
ENCODING 263
SWIDTH 384 0
DWIDTH 4 0
BBX 5 9 0 0
BITMAP
0280
0300
0100
2E00
7600
E000
E000
E140
B900
ENDCHAR
STARTCHAR Ccircumflex
ENCODING 264
SWIDTH 497 0
DWIDTH 5 0
BBX 6 12 0 0
BITMAP
0080
0290
0410
0B90
1D30
3860
7400
B400
B000
B000
B410
2E40
ENDCHAR
STARTCHAR ccircumflex
ENCODING 265
SWIDTH 384 0
DWIDTH 4 0
BBX 5 9 0 0
BITMAP
0200
0A00
1000
2E00
7600
E000
E000
E140
B900
ENDCHAR
STARTCHAR Cdotaccent
ENCODING 266
SWIDTH 497 0
DWIDTH 5 0
BBX 6 12 0 0
BITMAP
0090
00A0
0000
0B90
1D30
3860
7400
B400
B000
B000
B410
2E40
ENDCHAR
STARTCHAR cdotaccent
ENCODING 267
SWIDTH 384 0
DWIDTH 4 0
BBX 5 9 0 0
BITMAP
0700
0600
0000
2E00
7600
E000
E000
E140
B900
ENDCHAR
STARTCHAR Ccaron
ENCODING 268
SWIDTH 497 0
DWIDTH 5 0
BBX 6 12 0 0
BITMAP
0120
01C0
0040
0B90
1D30
3860
7400
B400
B000
B000
B410
2E40
ENDCHAR
STARTCHAR ccaron
ENCODING 269
SWIDTH 384 0
DWIDTH 4 0
BBX 5 9 0 0
BITMAP
0980
0600
0000
2E00
7600
E000
E000
E140
B900
ENDCHAR
STARTCHAR Dcaron
ENCODING 270
SWIDTH 663 0
DWIDTH 7 0
BBX 7 12 0 0
BITMAP
0120
01D0
0040
0AA0
6628
9B1C
CE1C
4E2C
1D28
1C34
2CB0
3ED0
ENDCHAR
STARTCHAR dcaron
ENCODING 271
SWIDTH 525 0
DWIDTH 6 0
BBX 8 9 0 0
BITMAP
0009
00E9
01D4
2ED0
76C0
E2C0
E380
E750
BA90
ENDCHAR
STARTCHAR Dcroat
ENCODING 272
SWIDTH 663 0
DWIDTH 7 0
BBX 7 9 0 0
BITMAP
0AA0
6628
9B1C
CE1C
5F6C
1D28
1C34
2CB0
3ED0
ENDCHAR
STARTCHAR dcroat
ENCODING 273
SWIDTH 525 0
DWIDTH 6 0
BBX 7 8 0 0
BITMAP
00A0
02F4
2ED0
76C0
E2C0
E380
E750
BA90
ENDCHAR
STARTCHAR Emacron
ENCODING 274
SWIDTH 459 0
DWIDTH 5 0
BBX 6 11 0 0
BITMAP
06A0
0000
0780
1C50
2C80
1C00
2D00
7400
B000
F040
7E00
ENDCHAR
STARTCHAR emacron
ENCODING 275
SWIDTH 384 0
DWIDTH 4 0
BBX 5 8 0 0
BITMAP
2A40
0000
2E00
7700
E600
F800
E140
B900
ENDCHAR
STARTCHAR Ebreve
ENCODING 276
SWIDTH 459 0
DWIDTH 5 0
BBX 7 12 0 0
BITMAP
0524
0290
0000
0780
1C50
2C80
1C00
2D00
7400
B000
F040
7E00
ENDCHAR
STARTCHAR ebreve
ENCODING 277
SWIDTH 384 0
DWIDTH 4 0
BBX 5 9 0 0
BITMAP
3180
1A00
0000
2E00
7700
E600
F800
E140
B900
ENDCHAR
STARTCHAR Edotaccent
ENCODING 278
SWIDTH 459 0
DWIDTH 5 0
BBX 6 12 0 0
BITMAP
0180
01C0
0000
0780
1C50
2C80
1C00
2D00
7400
B000
F040
7E00
ENDCHAR
STARTCHAR edotaccent
ENCODING 279
SWIDTH 384 0
DWIDTH 4 0
BBX 5 9 0 0
BITMAP
0700
0600
0000
2E00
7700
E600
F800
E140
B900
ENDCHAR
STARTCHAR Eogonek
ENCODING 280
SWIDTH 459 0
DWIDTH 5 0
BBX 6 11 0 -2
BITMAP
0A80
2850
3890
1D00
2D00
B400
B000
B840
2F00
0500
0640
ENDCHAR
STARTCHAR eogonek
ENCODING 281
SWIDTH 384 0
DWIDTH 4 0
BBX 5 8 0 -2
BITMAP
2E00
7700
E600
F800
E140
B900
1400
1800
ENDCHAR
STARTCHAR Ecaron
ENCODING 282
SWIDTH 459 0
DWIDTH 5 0
BBX 6 12 0 0
BITMAP
0160
0180
0000
0780
1C50
2C80
1C00
2D00
7400
B000
F040
7E00
ENDCHAR
STARTCHAR ecaron
ENCODING 283
SWIDTH 384 0
DWIDTH 4 0
BBX 5 9 0 0
BITMAP
0980
0600
0000
2E00
7700
E600
E400
E140
B900
ENDCHAR
STARTCHAR Gcircumflex
ENCODING 284
SWIDTH 578 0
DWIDTH 6 0
BBX 7 14 0 -2
BITMAP
0050
01A0
0100
0BA0
2D34
7830
B000
B060
B0A0
71E0
2AD0
19C0
2280
2A00
ENDCHAR
STARTCHAR gcircumflex
ENCODING 285
SWIDTH 507 0
DWIDTH 6 0
BBX 6 12 0 -3
BITMAP
0140
0680
0000
2ED0
76C0
E280
E380
E750
BB90
1B00
5A00
2D00
ENDCHAR
STARTCHAR Gbreve
ENCODING 286
SWIDTH 578 0
DWIDTH 6 0
BBX 7 14 0 -2
BITMAP
0208
01A4
0000
0BA0
2D34
7830
B000
B060
B0A0
71E0
2AD0
19C0
2280
2A00
ENDCHAR
STARTCHAR gbreve
ENCODING 287
SWIDTH 507 0
DWIDTH 6 0
BBX 6 12 0 -3
BITMAP
1890
0A40
0000
2ED0
76C0
E280
E380
E750
BB90
1B00
5A00
2D00
ENDCHAR
STARTCHAR Gdotaccent
ENCODING 288
SWIDTH 578 0
DWIDTH 6 0
BBX 7 14 0 -2
BITMAP
0090
00D0
0000
0BA0
2D34
7830
B000
B060
B0A0
71E0
2AD0
19C0
2280
2A00
ENDCHAR
STARTCHAR gdotaccent
ENCODING 289
SWIDTH 507 0
DWIDTH 6 0
BBX 6 12 0 -3
BITMAP
0340
0240
0000
2ED0
76C0
E280
E380
E750
BB90
1B00
5A00
2D00
ENDCHAR
STARTCHAR Gcommaaccent
ENCODING 290
SWIDTH 578 0
DWIDTH 6 0
BBX 6 12 0 -3
BITMAP
0790
2D60
38A0
B400
B000
F0A0
F0A0
B1D0
2AC0
0400
0900
0400
ENDCHAR
STARTCHAR gcommaaccent
ENCODING 291
SWIDTH 507 0
DWIDTH 6 0
BBX 6 12 0 -3
BITMAP
0200
0300
0000
2ED0
76C0
E280
E380
E750
BB90
1B00
5A00
2D00
ENDCHAR
STARTCHAR Hcircumflex
ENCODING 292
SWIDTH 665 0
DWIDTH 7 0
BBX 8 12 0 0
BITMAP
0014
0068
0044
0B4E
3F5D
AB1C
DA2C
4FF8
0D38
1D34
2C74
28B0
ENDCHAR
STARTCHAR hcircumflex
ENCODING 293
SWIDTH 505 0
DWIDTH 6 0
BBX 7 11 -1 0
BITMAP
0140
0680
0440
0E00
0D00
1ED0
2CE0
28E0
39D0
35D4
74E4
ENDCHAR
STARTCHAR Hbar
ENCODING 294
SWIDTH 665 0
DWIDTH 7 0
BBX 8 9 0 0
BITMAP
0B4E
2B1D
9FAE
DA2C
5FB8
1D38
1D34
2C74
28B0
ENDCHAR
STARTCHAR hbar
ENCODING 295
SWIDTH 505 0
DWIDTH 6 0
BBX 7 8 -1 0
BITMAP
0A00
2F40
1ED0
1CE0
28E0
39D0
35D4
74E4
ENDCHAR
STARTCHAR Itilde
ENCODING 296
SWIDTH 375 0
DWIDTH 4 0
BBX 6 11 0 0
BITMAP
0B90
0140
1B40
7B00
9B00
CE00
0D00
1D00
1C00
2C00
3800
ENDCHAR
STARTCHAR itilde
ENCODING 297
SWIDTH 267 0
DWIDTH 3 0
BBX 3 8 0 0
BITMAP
78
00
74
B0
B0
E0
E4
B4
ENDCHAR
STARTCHAR Imacron
ENCODING 298
SWIDTH 375 0
DWIDTH 4 0
BBX 6 11 0 0
BITMAP
1A90
0000
1B40
7B00
9B00
CE00
0D00
1D00
1C00
2C00
3800
ENDCHAR
STARTCHAR imacron
ENCODING 299
SWIDTH 267 0
DWIDTH 3 0
BBX 3 8 0 0
BITMAP
A8
00
74
B0
B0
E0
E4
B4
ENDCHAR
STARTCHAR Ibreve
ENCODING 300
SWIDTH 375 0
DWIDTH 4 0
BBX 6 11 0 0
BITMAP
0860
0680
1B40
7B00
9B00
CE00
0D00
1D00
1C00
2C00
3800
ENDCHAR
STARTCHAR ibreve
ENCODING 301
SWIDTH 267 0
DWIDTH 3 0
BBX 4 9 0 0
BITMAP
95
28
00
74
B0
B0
E0
E4
B4
ENDCHAR
STARTCHAR Iogonek
ENCODING 302
SWIDTH 375 0
DWIDTH 4 0
BBX 5 15 0 -3
BITMAP
0C00
0900
0000
1B40
6B00
9B00
CE00
0D00
1D00
1C00
2C00
3800
2000
6000
2800
ENDCHAR
STARTCHAR iogonek
ENCODING 303
SWIDTH 267 0
DWIDTH 3 0
BBX 4 11 -1 -3
BITMAP
0A
09
1D
2C
2C
38
39
2D
20
60
64
ENDCHAR
STARTCHAR Idotaccent
ENCODING 304
SWIDTH 375 0
DWIDTH 4 0
BBX 5 12 0 0
BITMAP
0280
0280
0000
1B40
7B00
9B00
CE00
0D00
1D00
1C00
2C00
3800
ENDCHAR
STARTCHAR dotlessi
ENCODING 305
SWIDTH 267 0
DWIDTH 3 0
BBX 3 6 0 0
BITMAP
74
B0
B0
E0
E4
B4
ENDCHAR
STARTCHAR IJ
ENCODING 306
SWIDTH 663 0
DWIDTH 7 0
BBX 8 11 0 -2
BITMAP
1B59
6B1C
9B2C
CE38
0D34
1D74
1CB0
2CB0
3DE0
25D0
1A40
ENDCHAR
STARTCHAR ij
ENCODING 307
SWIDTH 507 0
DWIDTH 6 0
BBX 6 11 0 -3
BITMAP
28D0
2490
75D0
B2C0
B280
E380
E750
B790
1B00
5E00
3D00
ENDCHAR
STARTCHAR Jcircumflex
ENCODING 308
SWIDTH 536 0
DWIDTH 6 0
BBX 7 14 0 -2
BITMAP
0014
0068
0044
01B4
06B0
09B0
0CE0
01D0
01D0
02C0
0280
6780
9740
6900
ENDCHAR
STARTCHAR jcircumflex
ENCODING 309
SWIDTH 240 0
DWIDTH 3 0
BBX 5 12 -2 -3
BITMAP
0180
0680
0000
0740
0B00
0B00
0E00
0D40
1E40
7C00
A800
B400
ENDCHAR
STARTCHAR Kcommaaccent
ENCODING 310
SWIDTH 601 0
DWIDTH 7 0
BBX 7 12 0 -3
BITMAP
0B5C
6B24
9B50
CF80
5F90
1DB0
1CA0
2CE0
38E0
0100
0200
0100
ENDCHAR
STARTCHAR kcommaaccent
ENCODING 311
SWIDTH 518 0
DWIDTH 6 0
BBX 7 12 -1 -3
BITMAP
0100
0E00
0D00
1D60
2E80
2ED0
38E0
35D8
74F4
0100
0600
0400
ENDCHAR
STARTCHAR kgreenlandic
ENCODING 312
SWIDTH 518 0
DWIDTH 6 0
BBX 7 6 -1 0
BITMAP
1D60
2E80
2ED0
38E0
35D8
74F4
ENDCHAR
STARTCHAR Lacute
ENCODING 313
SWIDTH 379 0
DWIDTH 4 0
BBX 8 15 0 -3
BITMAP
0050
0080
0140
1B40
6B00
9B00
CE00
0D00
1D00
2C00
2C00
3C00
0780
01FD
0068
ENDCHAR
STARTCHAR lacute
ENCODING 314
SWIDTH 267 0
DWIDTH 3 0
BBX 4 11 0 0
BITMAP
06
08
04
38
34
74
B0
B0
E0
E5
B4
ENDCHAR
STARTCHAR Lcommaaccent
ENCODING 315
SWIDTH 379 0
DWIDTH 4 0
BBX 8 12 0 -3
BITMAP
1B40
6B00
9B00
CE00
0D00
1D00
2C00
2C00
3C00
1780
31FD
1068
ENDCHAR
STARTCHAR lcommaaccent
ENCODING 316
SWIDTH 267 0
DWIDTH 3 0
BBX 4 11 0 -3
BITMAP
38
34
74
B0
B0
E0
E5
B4
40
80
40
ENDCHAR
STARTCHAR Lcaron
ENCODING 317
SWIDTH 379 0
DWIDTH 4 0
BBX 8 15 0 -3
BITMAP
0110
0290
0000
1B40
6B00
9B00
CE00
0D00
1D00
2C00
2C00
3C00
0780
01FD
0068
ENDCHAR
STARTCHAR lcaron
ENCODING 318
SWIDTH 267 0
DWIDTH 3 0
BBX 5 9 0 0
BITMAP
0240
3A40
3500
7400
B000
B000
E000
E400
B400
ENDCHAR
STARTCHAR Ldot
ENCODING 319
SWIDTH 605 0
DWIDTH 7 0
BBX 8 12 0 -3
BITMAP
0B40
6B00
9B00
CE00
5D00
1D60
2C70
2C00
3800
0740
01FD
0068
ENDCHAR
STARTCHAR ldot
ENCODING 320
SWIDTH 353 0
DWIDTH 4 0
BBX 4 9 0 0
BITMAP
14
38
74
74
B6
B6
E0
E0
A0
ENDCHAR
STARTCHAR Lslash
ENCODING 321
SWIDTH 392 0
DWIDTH 4 0
BBX 8 12 0 -3
BITMAP
1B40
6B00
9B40
CF40
1D00
2D00
1C00
2C00
3C00
0780
01FD
0068
ENDCHAR
STARTCHAR lslash
ENCODING 322
SWIDTH 286 0
DWIDTH 3 0
BBX 5 8 -1 0
BITMAP
0E00
0D00
1E40
1D00
7C00
3800
3940
2D00
ENDCHAR
STARTCHAR Nacute
ENCODING 323
SWIDTH 702 0
DWIDTH 8 0
BBX 8 12 0 0
BITMAP
0009
0008
0014
1F46
7B86
9B89
DAC9
5DDC
19E8
18F8
24B4
34B4
ENDCHAR
STARTCHAR nacute
ENCODING 324
SWIDTH 505 0
DWIDTH 6 0
BBX 7 9 -1 0
BITMAP
0060
0090
0040
1ED0
2CE0
28E0
39D0
35D8
74F0
ENDCHAR
STARTCHAR Ncommaaccent
ENCODING 325
SWIDTH 668 0
DWIDTH 7 0
BBX 8 12 0 -3
BITMAP
1F46
7B86
9B89
DAC9
5DDC
19E8
18F8
24B4
34B4
0100
0200
0100
ENDCHAR
STARTCHAR ncommaaccent
ENCODING 326
SWIDTH 505 0
DWIDTH 6 0
BBX 7 9 -1 -3
BITMAP
1ED0
2CE0
28E0
39D0
35D4
74E4
0400
0900
0400
ENDCHAR
STARTCHAR Ncaron
ENCODING 327
SWIDTH 668 0
DWIDTH 7 0
BBX 8 12 0 0
BITMAP
0015
0028
0010
1F46
7B86
9B89
DAC9
5DDC
19E8
18F8
24B4
34B4
ENDCHAR
STARTCHAR ncaron
ENCODING 328
SWIDTH 505 0
DWIDTH 6 0
BBX 7 9 -1 0
BITMAP
0260
0280
0000
1ED0
2CE0
28E0
39D0
35D4
74E4
ENDCHAR
STARTCHAR napostrophe
ENCODING 329
SWIDTH 505 0
DWIDTH 6 0
BBX 7 9 -1 0
BITMAP
1800
1800
1000
1ED0
2CE0
28E0
39D0
35D4
74E4
ENDCHAR
STARTCHAR Eng
ENCODING 330
SWIDTH 723 0
DWIDTH 8 0
BBX 9 11 0 -2
BITMAP
0B8240
37C300
63D300
66D600
1AE500
09B900
0C7C00
1C3800
183800
063000
029000
ENDCHAR
STARTCHAR eng
ENCODING 331
SWIDTH 505 0
DWIDTH 6 0
BBX 6 9 -1 -3
BITMAP
1ED0
2DE0
2CE0
38D0
35C0
76C0
0780
1380
1A00
ENDCHAR
STARTCHAR Omacron
ENCODING 332
SWIDTH 665 0
DWIDTH 7 0
BBX 8 11 0 0
BITMAP
02A4
0000
0AA4
265C
9B1C
9D1D
2C1C
2C28
2834
2CA0
1F80
ENDCHAR
STARTCHAR omacron
ENCODING 333
SWIDTH 433 0
DWIDTH 5 0
BBX 6 8 0 0
BITMAP
2A40
0000
2E00
7350
E340
E300
D600
B800
ENDCHAR
STARTCHAR Obreve
ENCODING 334
SWIDTH 665 0
DWIDTH 7 0
BBX 8 11 0 0
BITMAP
0148
00A4
0AA4
265C
9B1C
9D1D
2C1C
2C28
2834
2CA0
1F80
ENDCHAR
STARTCHAR obreve
ENCODING 335
SWIDTH 433 0
DWIDTH 5 0
BBX 6 9 0 0
BITMAP
24C0
1A40
0000
2E00
7350
E340
E300
D600
B800
ENDCHAR
STARTCHAR Ohungarumlaut
ENCODING 336
SWIDTH 665 0
DWIDTH 7 0
BBX 8 12 0 0
BITMAP
0026
0098
0000
0AA4
265C
9B1C
9D1D
2C1C
2C28
2834
2CA0
1F80
ENDCHAR
STARTCHAR ohungarumlaut
ENCODING 337
SWIDTH 433 0
DWIDTH 5 0
BBX 6 9 0 0
BITMAP
09D0
0940
0000
2E00
7350
E340
E300
D600
B800
ENDCHAR
STARTCHAR OE
ENCODING 338
SWIDTH 846 0
DWIDTH 9 0
BBX 10 9 0 0
BITMAP
0AFEA0
2B2C00
9E1C00
9D1D00
2C1F40
2C2800
283400
2CB500
1FFF40
ENDCHAR
STARTCHAR oe
ENCODING 339
SWIDTH 663 0
DWIDTH 7 0
BBX 8 6 0 0
BITMAP
2E78
B2D4
E3C8
D2D0
D385
B9E4
ENDCHAR
STARTCHAR Racute
ENCODING 340
SWIDTH 601 0
DWIDTH 7 0
BBX 7 12 0 0
BITMAP
0030
0090
0040
0AA0
2634
9B34
CE60
4FE0
1DB0
1CA0
2CE0
38E0
ENDCHAR
STARTCHAR racute
ENCODING 341
SWIDTH 376 0
DWIDTH 4 0
BBX 5 9 -1 0
BITMAP
00C0
0180
0100
1EC0
2D80
2C00
3800
3400
7400
ENDCHAR
STARTCHAR Rcommaaccent
ENCODING 342
SWIDTH 601 0
DWIDTH 7 0
BBX 7 12 0 -3
BITMAP
0AA0
2634
9B34
CE60
4FE0
1DB0
1CA0
2CE0
38E0
0100
0600
0400
ENDCHAR
STARTCHAR rcommaaccent
ENCODING 343
SWIDTH 376 0
DWIDTH 4 0
BBX 5 9 -1 -3
BITMAP
1EC0
2D80
2C00
3800
3400
7400
0400
1800
1000
ENDCHAR
STARTCHAR Rcaron
ENCODING 344
SWIDTH 601 0
DWIDTH 7 0
BBX 7 12 0 0
BITMAP
0054
00A0
0040
0AA0
2634
9B34
CE60
4FE0
1DB0
1CA0
2CE0
38E0
ENDCHAR
STARTCHAR rcaron
ENCODING 345
SWIDTH 376 0
DWIDTH 4 0
BBX 6 9 -1 0
BITMAP
0590
0700
0000
1EC0
2D80
2C00
3800
3400
7400
ENDCHAR
STARTCHAR Sacute
ENCODING 346
SWIDTH 570 0
DWIDTH 6 0
BBX 6 12 0 0
BITMAP
0060
0080
0000
0790
1D30
1D60
0F00
07C0
25D0
A0E0
A1D0
2B40
ENDCHAR
STARTCHAR sacute
ENCODING 347
SWIDTH 382 0
DWIDTH 4 0
BBX 6 9 -1 0
BITMAP
00D0
0180
0100
0B40
0B40
1740
2740
6790
2E00
ENDCHAR
STARTCHAR Scircumflex
ENCODING 348
SWIDTH 570 0
DWIDTH 6 0
BBX 6 12 0 0
BITMAP
0090
0160
0000
0790
1D30
1D60
0F00
07C0
25D0
A0E0
A1D0
2B40
ENDCHAR
STARTCHAR scircumflex
ENCODING 349
SWIDTH 382 0
DWIDTH 4 0
BBX 6 9 -1 0
BITMAP
0140
0680
0540
0B40
0B40
1740
2740
6790
2E00
ENDCHAR
STARTCHAR Scedilla
ENCODING 350
SWIDTH 570 0
DWIDTH 6 0
BBX 6 12 0 -3
BITMAP
0790
1D30
1D60
0F00
07C0
25D0
A0E0
A1D0
2B80
0900
0700
1A00
ENDCHAR
STARTCHAR scedilla
ENCODING 351
SWIDTH 382 0
DWIDTH 4 0
BBX 6 9 -1 -3
BITMAP
0B40
0B40
1B40
2740
7390
1600
1400
2D00
2800
ENDCHAR
STARTCHAR Scaron
ENCODING 352
SWIDTH 570 0
DWIDTH 6 0
BBX 7 12 0 0
BITMAP
0094
0090
0000
0790
1D30
1D60
0F00
07C0
25D0
A0E0
A1D0
2B40
ENDCHAR
STARTCHAR scaron
ENCODING 353
SWIDTH 369 0
DWIDTH 4 0
BBX 6 9 -1 0
BITMAP
0590
0340
0100
0B40
0B40
1740
2740
6780
2E00
ENDCHAR
STARTCHAR uni0162
ENCODING 354
SWIDTH 481 0
DWIDTH 5 0
BBX 8 12 0 -3
BITMAP
1BD1
63E9
D380
C740
4740
0B00
0A00
0E00
1D00
0800
0700
1900
ENDCHAR
STARTCHAR uni0163
ENCODING 355
SWIDTH 267 0
DWIDTH 3 0
BBX 4 11 -1 -3
BITMAP
09
0D
2E
2C
2C
38
39
2D
24
1C
68
ENDCHAR
STARTCHAR Tcaron
ENCODING 356
SWIDTH 481 0
DWIDTH 5 0
BBX 8 12 0 0
BITMAP
0164
00D0
0040
1BD1
63E9
D380
C740
4740
0B00
0A00
0E00
1D00
ENDCHAR
STARTCHAR tcaron
ENCODING 357
SWIDTH 267 0
DWIDTH 3 0
BBX 5 9 0 0
BITMAP
0240
2540
3500
B800
B000
B000
E000
E400
B400
ENDCHAR
STARTCHAR Tbar
ENCODING 358
SWIDTH 481 0
DWIDTH 5 0
BBX 8 9 0 0
BITMAP
1BD1
63A9
D380
C740
0740
2FA0
0A00
0E00
0D00
ENDCHAR
STARTCHAR tbar
ENCODING 359
SWIDTH 267 0
DWIDTH 3 0
BBX 3 8 0 0
BITMAP
24
34
B8
F8
B0
E0
E4
B4
ENDCHAR
STARTCHAR Utilde
ENCODING 360
SWIDTH 716 0
DWIDTH 8 0
BBX 9 11 0 0
BITMAP
00B900
001400
1B4740
674B00
C70A00
CA0E00
0E0D00
0D1D00
1D2C00
1D7400
0BE000
ENDCHAR
STARTCHAR utilde
ENCODING 361
SWIDTH 505 0
DWIDTH 6 0
BBX 6 8 0 0
BITMAP
1F80
0100
76C0
B280
B380
E740
EB60
B780
ENDCHAR
STARTCHAR Umacron
ENCODING 362
SWIDTH 716 0
DWIDTH 8 0
BBX 9 11 0 0
BITMAP
00A900
000000
1B4740
674B00
C70A00
CA0E00
0E0D00
0D1D00
1D2C00
1D7400
0BE000
ENDCHAR
STARTCHAR umacron
ENCODING 363
SWIDTH 505 0
DWIDTH 6 0
BBX 6 8 0 0
BITMAP
1A80
0000
76C0
B280
B380
E740
EB60
B780
ENDCHAR
STARTCHAR Ubreve
ENCODING 364
SWIDTH 716 0
DWIDTH 8 0
BBX 9 12 0 0
BITMAP
009200
006900
000000
1B4740
674B00
C70A00
CA0E00
0E0D00
0D1D00
1D2C00
1D7400
0BE000
ENDCHAR
STARTCHAR ubreve
ENCODING 365
SWIDTH 505 0
DWIDTH 6 0
BBX 6 9 0 0
BITMAP
2480
1A40
0000
76C0
B280
B380
E740
EB60
B780
ENDCHAR
STARTCHAR Uring
ENCODING 366
SWIDTH 716 0
DWIDTH 8 0
BBX 9 12 0 0
BITMAP
002400
001400
002400
1B4740
674B00
C70A00
CA0E00
0E0D00
0D1D00
1D2C00
1D7400
0BE000
ENDCHAR
STARTCHAR uring
ENCODING 367
SWIDTH 505 0
DWIDTH 6 0
BBX 6 8 0 0
BITMAP
0600
0600
76C0
B280
B380
E740
EB60
B780
ENDCHAR
STARTCHAR Uhungarumlaut
ENCODING 368
SWIDTH 716 0
DWIDTH 8 0
BBX 9 12 0 0
BITMAP
002640
002500
000000
1B4740
674B00
C70A00
CA0E00
0E0D00
0D1D00
1D2C00
1D7400
0BE000
ENDCHAR
STARTCHAR uhungarumlaut
ENCODING 369
SWIDTH 505 0
DWIDTH 6 0
BBX 6 9 0 0
BITMAP
0990
0940
0000
76C0
B280
B380
E740
EB60
B780
ENDCHAR
STARTCHAR Uogonek
ENCODING 370
SWIDTH 716 0
DWIDTH 8 0
BBX 9 15 0 -3
BITMAP
006000
002000
000000
1B8740
674B00
D70A00
CA0E00
4E0D00
0D1D00
1D2C00
1D3400
0BE000
020000
060000
028000
ENDCHAR
STARTCHAR uogonek
ENCODING 371
SWIDTH 505 0
DWIDTH 6 0
BBX 6 9 0 -3
BITMAP
76C0
B280
B380
E740
EB60
B7D0
0200
0600
0280
ENDCHAR
STARTCHAR Wcircumflex
ENCODING 372
SWIDTH 962 0
DWIDTH 11 0
BBX 12 12 0 0
BITMAP
000180
000680
000440
1B4749
674B48
974F58
C75B60
076760
076750
039780
03C780
038740
ENDCHAR
STARTCHAR wcircumflex
ENCODING 373
SWIDTH 661 0
DWIDTH 7 0
BBX 7 9 0 0
BITMAP
0080
0290
0410
76C8
B288
B388
E758
EB64
B7D0
ENDCHAR
STARTCHAR Ycircumflex
ENCODING 374
SWIDTH 620 0
DWIDTH 7 0
BBX 8 12 0 0
BITMAP
0014
0068
0044
1B45
6788
93C8
C2E4
01E0
01E0
01D0
02C0
03C0
ENDCHAR
STARTCHAR ycircumflex
ENCODING 375
SWIDTH 505 0
DWIDTH 6 0
BBX 6 12 0 -3
BITMAP
0200
0A40
0000
76C0
B380
B380
E740
EB50
BF80
2E00
5E00
7800
ENDCHAR
STARTCHAR Ydieresis
ENCODING 376
SWIDTH 620 0
DWIDTH 7 0
BBX 8 11 0 0
BITMAP
0099
0000
1B45
6788
93C8
C2E4
01E0
01E0
01D0
02C0
03C0
ENDCHAR
STARTCHAR Zacute
ENCODING 377
SWIDTH 542 0
DWIDTH 6 0
BBX 6 12 0 0
BITMAP
0070
0090
0040
2AF0
31D0
03C0
0740
0B00
1E00
2C00
7890
BE80
ENDCHAR
STARTCHAR zacute
ENCODING 378
SWIDTH 428 0
DWIDTH 5 0
BBX 5 9 0 0
BITMAP
0240
0200
0000
2B40
5B00
0D00
2C00
7600
BA00
ENDCHAR
STARTCHAR Zdotaccent
ENCODING 379
SWIDTH 530 0
DWIDTH 6 0
BBX 6 11 0 0
BITMAP
0240
0000
2AF0
31D0
03C0
0740
0B00
1E00
2C00
7890
BE80
ENDCHAR
STARTCHAR zdotaccent
ENCODING 380
SWIDTH 428 0
DWIDTH 5 0
BBX 5 8 0 0
BITMAP
0600
0000
2B40
5B00
0D00
2C00
7600
BA00
ENDCHAR
STARTCHAR Zcaron
ENCODING 381
SWIDTH 542 0
DWIDTH 6 0
BBX 7 12 0 0
BITMAP
0164
01D0
0040
2AF0
31D0
03C0
0740
0B00
1E00
2C00
7890
BE80
ENDCHAR
STARTCHAR zcaron
ENCODING 382
SWIDTH 428 0
DWIDTH 5 0
BBX 5 9 0 0
BITMAP
0980
0A00
0000
2B40
5B00
0D00
2C00
7600
BA00
ENDCHAR
STARTCHAR longs
ENCODING 383
SWIDTH 267 0
DWIDTH 3 0
BBX 7 12 -3 -3
BITMAP
0078
00E4
00D0
02D0
01C0
0280
0380
0340
0740
1F00
5A00
2D00
ENDCHAR
STARTCHAR uni018F
ENCODING 399
SWIDTH 544 0
DWIDTH 6 0
BBX 6 9 0 0
BITMAP
1F80
25E0
00F0
00F0
0AE0
39D0
A2C0
A340
7900
ENDCHAR
STARTCHAR florin
ENCODING 402
SWIDTH 267 0
DWIDTH 3 0
BBX 8 12 -3 -3
BITMAP
002E
0076
00A0
02F8
01D0
02C0
0380
0340
0740
0B00
9D00
A800
ENDCHAR
STARTCHAR Ohorn
ENCODING 416
SWIDTH 665 0
DWIDTH 7 0
BBX 8 11 0 0
BITMAP
0001
0003
0AA9
265C
9B1C
9D1D
2C1C
2C2C
2834
2CA0
1F80
ENDCHAR
STARTCHAR ohorn
ENCODING 417
SWIDTH 439 0
DWIDTH 5 0
BBX 6 8 0 0
BITMAP
0040
0090
2E80
7640
E240
E300
E600
B800
ENDCHAR
STARTCHAR Uhorn
ENCODING 431
SWIDTH 716 0
DWIDTH 8 0
BBX 10 11 0 0
BITMAP
000050
000090
1B4780
674B00
C70B00
CA0E00
0E0D00
0D1D00
1D2C00
1D7400
0BE000
ENDCHAR
STARTCHAR uhorn
ENCODING 432
SWIDTH 505 0
DWIDTH 6 0
BBX 6 8 0 0
BITMAP
0030
0020
76C0
B280
B380
E740
EB60
B780
ENDCHAR
STARTCHAR uni01B7
ENCODING 439
SWIDTH 555 0
DWIDTH 6 0
BBX 6 9 0 0
BITMAP
2AF0
25D0
0380
0B00
07C0
01D0
51D0
92C0
6A40
ENDCHAR
STARTCHAR uni01CD
ENCODING 461
SWIDTH 668 0
DWIDTH 7 0
BBX 9 14 0 -2
BITMAP
000980
000700
000000
002D00
009D00
025C00
6B6C00
993800
5C3800
2C7400
287400
34B000
340000
100000
ENDCHAR
STARTCHAR uni01CE
ENCODING 462
SWIDTH 526 0
DWIDTH 6 0
BBX 6 9 0 0
BITMAP
0590
0340
0000
2ED0
76C0
E280
E380
E790
B6D0
ENDCHAR
STARTCHAR uni01CF
ENCODING 463
SWIDTH 375 0
DWIDTH 4 0
BBX 6 12 0 0
BITMAP
0260
0280
0100
1B40
7B00
9B00
CE00
0D00
1D00
1C00
2C00
3800
ENDCHAR
STARTCHAR uni01D0
ENCODING 464
SWIDTH 267 0
DWIDTH 3 0
BBX 4 9 0 0
BITMAP
25
28
00
74
B0
B0
E0
E4
B4
ENDCHAR
STARTCHAR uni01D1
ENCODING 465
SWIDTH 665 0
DWIDTH 7 0
BBX 8 12 0 0
BITMAP
0059
0034
0010
0AA4
265C
9B1C
9D1D
2C1C
2C28
2834
2CA0
1F80
ENDCHAR
STARTCHAR uni01D2
ENCODING 466
SWIDTH 433 0
DWIDTH 5 0
BBX 6 9 0 0
BITMAP
0980
0A00
0000
2E00
7350
E340
D300
E600
B800
ENDCHAR
STARTCHAR uni01D3
ENCODING 467
SWIDTH 716 0
DWIDTH 8 0
BBX 9 12 0 0
BITMAP
002600
002800
000000
1B4740
674B00
C70A00
CA0E00
0E0D00
0D1D00
1D2C00
1D7400
0BE000
ENDCHAR
STARTCHAR uni01D4
ENCODING 468
SWIDTH 505 0
DWIDTH 6 0
BBX 6 9 0 0
BITMAP
0980
0600
0000
76C0
B280
B380
E740
EB60
B780
ENDCHAR
STARTCHAR uni01D5
ENCODING 469
SWIDTH 716 0
DWIDTH 8 0
BBX 9 12 0 0
BITMAP
006A00
009600
000000
1B4740
674B00
C70A00
CA0E00
0E0D00
0D1D00
1D2C00
1D7400
0BE000
ENDCHAR
STARTCHAR uni01D6
ENCODING 470
SWIDTH 505 0
DWIDTH 6 0
BBX 6 10 0 0
BITMAP
1A90
0000
1980
0000
76C0
B280
B380
E740
EB60
B780
ENDCHAR
STARTCHAR uni01D7
ENCODING 471
SWIDTH 716 0
DWIDTH 8 0
BBX 9 12 0 0
BITMAP
000C00
01A640
001000
1B4740
674B00
C70A00
CA0E00
0E0D00
0D1D00
1D2C00
1D7400
0BE000
ENDCHAR
STARTCHAR uni01D8
ENCODING 472
SWIDTH 505 0
DWIDTH 6 0
BBX 6 11 0 0
BITMAP
0180
0200
0000
1980
0000
76C0
B280
B380
E740
EB60
B780
ENDCHAR
STARTCHAR uni01D9
ENCODING 473
SWIDTH 716 0
DWIDTH 8 0
BBX 9 12 0 0
BITMAP
001500
01E740
000000
1B4740
674B00
C70A00
CA0E00
0E0D00
0D1D00
1D2C00
1D7400
0BE000
ENDCHAR
STARTCHAR uni01DA
ENCODING 474
SWIDTH 505 0
DWIDTH 6 0
BBX 6 11 0 0
BITMAP
0590
0340
0100
1980
0000
76C0
B280
B380
E740
EB60
B780
ENDCHAR
STARTCHAR uni01DB
ENCODING 475
SWIDTH 716 0
DWIDTH 8 0
BBX 9 12 0 0
BITMAP
002400
019A40
000000
1B4740
674B00
C70A00
CA0E00
0E0D00
0D1D00
1D2C00
1D7400
0BE000
ENDCHAR
STARTCHAR uni01DC
ENCODING 476
SWIDTH 505 0
DWIDTH 6 0
BBX 6 11 0 0
BITMAP
0900
0500
0000
1980
0000
76C0
B280
B380
E740
EB60
B780
ENDCHAR
STARTCHAR uni01E4
ENCODING 484
SWIDTH 601 0
DWIDTH 7 0
BBX 7 11 0 -2
BITMAP
0BA0
2D34
7810
B050
B1B4
B0E0
71D0
2AD0
19C0
2240
2A00
ENDCHAR
STARTCHAR uni01E5
ENCODING 485
SWIDTH 507 0
DWIDTH 6 0
BBX 6 9 0 -3
BITMAP
2ED0
76C0
E280
E380
E750
BB90
1B40
6F40
2D00
ENDCHAR
STARTCHAR Gcaron
ENCODING 486
SWIDTH 578 0
DWIDTH 6 0
BBX 7 14 0 -2
BITMAP
0058
00A0
0040
0BA0
2D34
7830
B000
B060
B0A0
71E0
2AD0
19C0
2280
2A00
ENDCHAR
STARTCHAR gcaron
ENCODING 487
SWIDTH 507 0
DWIDTH 6 0
BBX 6 12 0 -3
BITMAP
0590
0340
0000
2ED0
76C0
E280
E380
E750
BB90
1B00
5A00
2D00
ENDCHAR
STARTCHAR uni01E8
ENCODING 488
SWIDTH 601 0
DWIDTH 7 0
BBX 8 12 0 0
BITMAP
0059
0024
0000
0B5C
6B24
9B50
CF80
5F90
1DB0
1CA0
2CE0
38E0
ENDCHAR
STARTCHAR uni01E9
ENCODING 489
SWIDTH 518 0
DWIDTH 6 0
BBX 7 11 -1 0
BITMAP
0094
0090
0100
0E00
0D00
1D60
2E80
2ED0
38E0
35D8
74F4
ENDCHAR
STARTCHAR uni01EA
ENCODING 490
SWIDTH 665 0
DWIDTH 7 0
BBX 8 15 0 -3
BITMAP
0240
0180
0000
0AA4
265C
9B1C
9D1D
2C1C
2C28
2834
2CA0
1F80
0800
0C00
0A00
ENDCHAR
STARTCHAR uni01EB
ENCODING 491
SWIDTH 433 0
DWIDTH 5 0
BBX 7 9 -1 -3
BITMAP
0B80
1CD4
38D0
38C0
7580
2E00
1400
3000
1800
ENDCHAR
STARTCHAR uni01EE
ENCODING 494
SWIDTH 525 0
DWIDTH 6 0
BBX 6 12 0 0
BITMAP
0260
0180
0000
2AF0
25D0
0380
0B00
07C0
01D0
51D0
92C0
6A40
ENDCHAR
STARTCHAR uni01EF
ENCODING 495
SWIDTH 600 0
DWIDTH 7 0
BBX 5 12 0 -3
BITMAP
0980
0600
0000
6F40
5A00
1C00
3800
2C40
1D40
2D00
AC00
B400
ENDCHAR
STARTCHAR uni01F4
ENCODING 500
SWIDTH 578 0
DWIDTH 6 0
BBX 7 14 0 -2
BITMAP
0030
0090
0040
0BA0
2D34
7830
B000
B060
B0A0
71E0
2AD0
19C0
2280
2A00
ENDCHAR
STARTCHAR uni01F5
ENCODING 501
SWIDTH 507 0
DWIDTH 6 0
BBX 6 12 0 -3
BITMAP
0280
0300
0100
2ED0
76C0
E280
E380
E750
BB90
1B00
5A00
2D00
ENDCHAR
STARTCHAR Aringacute
ENCODING 506
SWIDTH 668 0
DWIDTH 7 0
BBX 9 14 0 -2
BITMAP
000240
000A00
000A00
002E00
009D00
025C00
6B6C00
993800
5C3800
2C7400
287400
34B000
340000
100000
ENDCHAR
STARTCHAR aringacute
ENCODING 507
SWIDTH 526 0
DWIDTH 6 0
BBX 6 10 0 0
BITMAP
0040
0240
0540
0600
2ED0
76C0
E280
E380
E790
B6D0
ENDCHAR
STARTCHAR AEacute
ENCODING 508
SWIDTH 764 0
DWIDTH 8 0
BBX 10 14 0 -2
BITMAP
000180
000240
000100
002E10
009E90
025D00
2F6C00
997F40
9C3800
2C7400
287400
34BA40
340000
100000
ENDCHAR
STARTCHAR aeacute
ENCODING 509
SWIDTH 650 0
DWIDTH 7 0
BBX 7 9 0 0
BITMAP
0030
0060
0040
2BB8
03CC
6B98
E7E0
E744
BAE4
ENDCHAR
STARTCHAR Oslashacute
ENCODING 510
SWIDTH 658 0
DWIDTH 7 0
BBX 7 13 0 -1
BITMAP
0018
0024
0010
0050
0AE0
67A8
9E9C
ADAC
2D68
2974
2AB0
1FC0
0200
ENDCHAR
STARTCHAR oslashacute
ENCODING 511
SWIDTH 428 0
DWIDTH 5 0
BBX 6 10 -1 -1
BITMAP
0090
00C0
0040
07A0
1D90
39D0
3AC0
3D80
3E00
4000
ENDCHAR
STARTCHAR uni0200
ENCODING 512
SWIDTH 668 0
DWIDTH 7 0
BBX 8 14 0 -2
BITMAP
009C
0025
0000
002D
009D
025C
6B6C
9938
5C38
2C74
2874
34B0
3400
1000
ENDCHAR
STARTCHAR uni0201
ENCODING 513
SWIDTH 526 0
DWIDTH 6 0
BBX 6 9 0 0
BITMAP
2700
0940
0000
2ED0
76C0
E280
E380
E790
B6D0
ENDCHAR
STARTCHAR uni0202
ENCODING 514
SWIDTH 668 0
DWIDTH 7 0
BBX 9 14 0 -2
BITMAP
001A40
002180
000000
002D00
009D00
025C00
6B6C00
993800
5C3800
2C7400
287400
34B000
340000
100000
ENDCHAR
STARTCHAR uni0203
ENCODING 515
SWIDTH 526 0
DWIDTH 6 0
BBX 6 8 0 0
BITMAP
0A80
1490
2ED0
76C0
E280
E380
E790
B6D0
ENDCHAR
STARTCHAR uni0204
ENCODING 516
SWIDTH 459 0
DWIDTH 5 0
BBX 6 12 0 0
BITMAP
1A40
0880
0000
0780
1C50
2C80
1C00
2D00
7400
B000
F040
7E00
ENDCHAR
STARTCHAR uni0205
ENCODING 517
SWIDTH 384 0
DWIDTH 4 0
BBX 5 9 0 0
BITMAP
9900
2200
0000
2E00
7700
E600
F800
E140
B900
ENDCHAR
STARTCHAR uni0206
ENCODING 518
SWIDTH 459 0
DWIDTH 5 0
BBX 6 12 0 0
BITMAP
02A0
0920
0000
0780
1C50
2C80
1C00
2D00
7400
B000
F040
7E00
ENDCHAR
STARTCHAR uni0207
ENCODING 519
SWIDTH 384 0
DWIDTH 4 0
BBX 5 8 0 0
BITMAP
2A00
5140
2E00
7700
E600
F800
E140
B900
ENDCHAR
STARTCHAR uni0208
ENCODING 520
SWIDTH 375 0
DWIDTH 4 0
BBX 5 12 0 0
BITMAP
3600
1940
0000
1B40
6B00
DB00
8E00
0D00
1D00
1C00
2C00
3800
ENDCHAR
STARTCHAR uni0209
ENCODING 521
SWIDTH 267 0
DWIDTH 3 0
BBX 4 9 -1 0
BITMAP
9C
26
00
1D
2C
2C
38
39
2D
ENDCHAR
STARTCHAR uni020A
ENCODING 522
SWIDTH 375 0
DWIDTH 4 0
BBX 6 12 0 0
BITMAP
0680
1890
0000
1B40
7B00
9B00
CE00
0D00
1D00
1C00
2C00
3800
ENDCHAR
STARTCHAR uni020B
ENCODING 523
SWIDTH 267 0
DWIDTH 3 0
BBX 4 8 0 0
BITMAP
68
85
74
B0
B0
E0
E4
B4
ENDCHAR
STARTCHAR uni020C
ENCODING 524
SWIDTH 665 0
DWIDTH 7 0
BBX 8 12 0 0
BITMAP
0990
0220
0000
0AA4
265C
9B1C
9D1D
2C1C
2C28
2834
2CA0
1F80
ENDCHAR
STARTCHAR uni020D
ENCODING 525
SWIDTH 433 0
DWIDTH 5 0
BBX 6 9 0 0
BITMAP
9900
2200
0000
2E00
7350
E340
D300
E600
B800
ENDCHAR
STARTCHAR uni020E
ENCODING 526
SWIDTH 665 0
DWIDTH 7 0
BBX 8 12 0 0
BITMAP
00A8
0248
0000
0AA4
265C
9B1C
9D1D
2C1C
2C28
2834
2CA0
1F80
ENDCHAR
STARTCHAR uni020F
ENCODING 527
SWIDTH 433 0
DWIDTH 5 0
BBX 6 8 0 0
BITMAP
1B40
2180
2E00
7350
E340
E300
D600
B800
ENDCHAR
STARTCHAR uni0210
ENCODING 528
SWIDTH 601 0
DWIDTH 7 0
BBX 7 12 0 0
BITMAP
1A40
0980
0000
0AA0
2634
9B34
CE60
4FE0
1DB0
1CA0
2CE0
38E0
ENDCHAR
STARTCHAR uni0211
ENCODING 529
SWIDTH 376 0
DWIDTH 4 0
BBX 5 9 -1 0
BITMAP
3600
1640
0000
1EC0
2D80
2C00
3800
3400
7400
ENDCHAR
STARTCHAR uni0212
ENCODING 530
SWIDTH 601 0
DWIDTH 7 0
BBX 7 12 0 0
BITMAP
02A0
0920
0000
0AA0
2634
9B34
CE60
4FE0
1DB0
1CA0
2CE0
38E0
ENDCHAR
STARTCHAR uni0213
ENCODING 531
SWIDTH 376 0
DWIDTH 4 0
BBX 6 8 -1 0
BITMAP
0A90
1850
1EC0
2D80
2C00
3800
3400
7400
ENDCHAR
STARTCHAR uni0214
ENCODING 532
SWIDTH 716 0
DWIDTH 8 0
BBX 9 12 0 0
BITMAP
026400
009800
000000
1B4740
674B00
C70A00
CA0E00
0E0D00
0D1D00
1D2C00
1D7400
0BE000
ENDCHAR
STARTCHAR uni0215
ENCODING 533
SWIDTH 505 0
DWIDTH 6 0
BBX 6 9 0 0
BITMAP
6900
2200
0000
76C0
B280
B380
E740
EB60
B780
ENDCHAR
STARTCHAR uni0216
ENCODING 534
SWIDTH 716 0
DWIDTH 8 0
BBX 9 12 0 0
BITMAP
006900
008600
000000
1B4740
674B00
C70A00
CA0E00
0E0D00
0D1D00
1D2C00
1D7400
0BE000
ENDCHAR
STARTCHAR uni0217
ENCODING 535
SWIDTH 505 0
DWIDTH 6 0
BBX 6 8 0 0
BITMAP
1A40
2080
76C0
B280
B380
E740
EB60
B780
ENDCHAR
STARTCHAR Scommaaccent
ENCODING 536
SWIDTH 570 0
DWIDTH 6 0
BBX 6 12 0 -3
BITMAP
0790
1D30
1D60
0F00
07C0
25D0
A0E0
A1D0
2B40
0400
0800
0400
ENDCHAR
STARTCHAR scommaaccent
ENCODING 537
SWIDTH 382 0
DWIDTH 4 0
BBX 6 9 -1 -3
BITMAP
0B40
0B40
1740
2740
6790
2E00
0400
1800
1000
ENDCHAR
STARTCHAR uni021A
ENCODING 538
SWIDTH 481 0
DWIDTH 5 0
BBX 8 12 0 -3
BITMAP
1BD1
63E9
D380
C740
4740
0B00
0A00
0E00
1D00
0400
0800
0400
ENDCHAR
STARTCHAR uni021B
ENCODING 539
SWIDTH 267 0
DWIDTH 3 0
BBX 3 11 0 -3
BITMAP
24
34
B8
B0
B0
E0
E4
B4
40
80
40
ENDCHAR
STARTCHAR uni021E
ENCODING 542
SWIDTH 665 0
DWIDTH 7 0
BBX 8 12 0 0
BITMAP
0059
0024
0000
0B4E
3F5D
AB1C
DA2C
4FF8
0D38
1D34
2C74
28B0
ENDCHAR
STARTCHAR uni021F
ENCODING 543
SWIDTH 600 0
DWIDTH 7 0
BBX 7 11 -1 0
BITMAP
0098
0060
0100
0E00
0D00
1ED0
2CE0
28E0
39D0
35D4
74E4
ENDCHAR
STARTCHAR uni0237
ENCODING 567
SWIDTH 240 0
DWIDTH 3 0
BBX 5 9 -2 -3
BITMAP
0740
0B00
0B00
0E00
0D40
1E40
7C00
A800
B400
ENDCHAR
STARTCHAR uni0259
ENCODING 601
SWIDTH 404 0
DWIDTH 4 0
BBX 5 6 0 0
BITMAP
6E00
0700
2F40
9B00
CE00
B800
ENDCHAR
STARTCHAR uni0292
ENCODING 658
SWIDTH 442 0
DWIDTH 5 0
BBX 5 9 0 -3
BITMAP
6F40
5A00
1C00
3800
2C40
1D40
2D00
AC00
B400
ENDCHAR
STARTCHAR uni02BB
ENCODING 699
SWIDTH 241 0
DWIDTH 3 0
BBX 2 3 1 6
BITMAP
10
60
60
ENDCHAR
STARTCHAR uni02BC
ENCODING 700
SWIDTH 228 0
DWIDTH 3 0
BBX 2 2 1 7
BITMAP
60
20
ENDCHAR
STARTCHAR circumflex
ENCODING 710
SWIDTH 293 0
DWIDTH 3 0
BBX 3 2 0 7
BITMAP
18
68
ENDCHAR
STARTCHAR caron
ENCODING 711
SWIDTH 294 0
DWIDTH 3 0
BBX 3 2 1 7
BITMAP
98
60
ENDCHAR
STARTCHAR uni02C9
ENCODING 713
SWIDTH 421 0
DWIDTH 5 0
BBX 4 1 1 7
BITMAP
6A
ENDCHAR
STARTCHAR uni02CA
ENCODING 714
SWIDTH 256 0
DWIDTH 3 0
BBX 2 2 1 7
BITMAP
30
50
ENDCHAR
STARTCHAR uni02CB
ENCODING 715
SWIDTH 274 0
DWIDTH 3 0
BBX 1 2 2 7
BITMAP
C0
80
ENDCHAR
STARTCHAR breve
ENCODING 728
SWIDTH 431 0
DWIDTH 5 0
BBX 4 2 1 6
BITMAP
86
A8
ENDCHAR
STARTCHAR dotaccent
ENCODING 729
SWIDTH 250 0
DWIDTH 3 0
BBX 3 2 0 7
BITMAP
20
74
ENDCHAR
STARTCHAR ring
ENCODING 730
SWIDTH 156 0
DWIDTH 2 0
BBX 2 2 0 6
BITMAP
90
90
ENDCHAR
STARTCHAR ogonek
ENCODING 731
SWIDTH 291 0
DWIDTH 3 0
BBX 3 3 0 -3
BITMAP
10
50
64
ENDCHAR
STARTCHAR tilde
ENCODING 732
SWIDTH 403 0
DWIDTH 4 0
BBX 5 2 0 7
BITMAP
1400
6F40
ENDCHAR
STARTCHAR hungarumlaut
ENCODING 733
SWIDTH 436 0
DWIDTH 5 0
BBX 4 2 1 7
BITMAP
69
88
ENDCHAR
STARTCHAR gravecomb
ENCODING 768
SWIDTH 0 0
DWIDTH 0 0
BBX 2 2 -2 7
BITMAP
90
50
ENDCHAR
STARTCHAR acutecomb
ENCODING 769
SWIDTH 0 0
DWIDTH 0 0
BBX 2 2 -2 7
BITMAP
60
80
ENDCHAR
STARTCHAR uni0302
ENCODING 770
SWIDTH 0 0
DWIDTH 0 0
BBX 3 2 -3 7
BITMAP
18
58
ENDCHAR
STARTCHAR tildecomb
ENCODING 771
SWIDTH 0 0
DWIDTH 0 0
BBX 4 2 -4 7
BITMAP
14
6E
ENDCHAR
STARTCHAR uni0304
ENCODING 772
SWIDTH 0 0
DWIDTH 0 0
BBX 4 1 -3 7
BITMAP
A9
ENDCHAR
STARTCHAR uni0306
ENCODING 774
SWIDTH 0 0
DWIDTH 0 0
BBX 5 2 -4 6
BITMAP
6240
2900
ENDCHAR
STARTCHAR uni0307
ENCODING 775
SWIDTH 0 0
DWIDTH 0 0
BBX 2 2 -1 7
BITMAP
90
D0
ENDCHAR
STARTCHAR uni0308
ENCODING 776
SWIDTH 0 0
DWIDTH 0 0
BBX 4 1 -3 7
BITMAP
99
ENDCHAR
STARTCHAR hookabovecomb
ENCODING 777
SWIDTH 0 0
DWIDTH 0 0
BBX 3 3 -3 7
BITMAP
64
08
20
ENDCHAR
STARTCHAR uni030A
ENCODING 778
SWIDTH 0 0
DWIDTH 0 0
BBX 2 2 -2 6
BITMAP
20
60
ENDCHAR
STARTCHAR uni030B
ENCODING 779
SWIDTH 0 0
DWIDTH 0 0
BBX 4 2 -3 7
BITMAP
99
94
ENDCHAR
STARTCHAR uni030C
ENCODING 780
SWIDTH 0 0
DWIDTH 0 0
BBX 3 2 -3 7
BITMAP
58
20
ENDCHAR
STARTCHAR uni030F
ENCODING 783
SWIDTH 0 0
DWIDTH 0 0
BBX 4 2 -4 7
BITMAP
69
26
ENDCHAR
STARTCHAR uni0311
ENCODING 785
SWIDTH 0 0
DWIDTH 0 0
BBX 4 2 -4 6
BITMAP
2A
92
ENDCHAR
STARTCHAR uni031B
ENCODING 795
SWIDTH 0 0
DWIDTH 0 0
BBX 2 3 -1 5
BITMAP
90
80
40
ENDCHAR
STARTCHAR dotbelowcomb
ENCODING 803
SWIDTH 0 0
DWIDTH 0 0
BBX 2 2 -2 -3
BITMAP
90
A0
ENDCHAR
STARTCHAR uni0324
ENCODING 804
SWIDTH 0 0
DWIDTH 0 0
BBX 4 1 -5 -2
BITMAP
99
ENDCHAR
STARTCHAR uni0326
ENCODING 806
SWIDTH 0 0
DWIDTH 0 0
BBX 2 2 -3 -3
BITMAP
50
50
ENDCHAR
STARTCHAR uni0327
ENCODING 807
SWIDTH 0 0
DWIDTH 0 0
BBX 3 3 -4 -3
BITMAP
10
64
60
ENDCHAR
STARTCHAR uni0328
ENCODING 808
SWIDTH 0 0
DWIDTH 0 0
BBX 2 3 -4 -3
BITMAP
50
C0
A0
ENDCHAR
STARTCHAR uni032E
ENCODING 814
SWIDTH 0 0
DWIDTH 0 0
BBX 4 2 -5 -2
BITMAP
41
68
ENDCHAR
STARTCHAR uni0331
ENCODING 817
SWIDTH 0 0
DWIDTH 0 0
BBX 4 1 -5 -2
BITMAP
A9
ENDCHAR
STARTCHAR uni0335
ENCODING 821
SWIDTH 0 0
DWIDTH 0 0
BBX 4 1 -4 3
BITMAP
A9
ENDCHAR
STARTCHAR uni0394
ENCODING 916
SWIDTH 619 0
DWIDTH 7 0
BBX 7 9 0 0
BITMAP
0050
01E0
0270
0630
0834
1834
3024
9028
BFF8
ENDCHAR
STARTCHAR uni03A9
ENCODING 937
SWIDTH 745 0
DWIDTH 8 0
BBX 8 9 0 0
BITMAP
01F8
0A09
1806
2406
3006
3008
2018
1860
BCBC
ENDCHAR
STARTCHAR uni03BC
ENCODING 956
SWIDTH 505 0
DWIDTH 6 0
BBX 7 8 -1 -2
BITMAP
0850
1CB0
2CE0
39D0
3AD4
7DE4
B000
9000
ENDCHAR
STARTCHAR pi
ENCODING 960
SWIDTH 530 0
DWIDTH 6 0
BBX 6 6 0 0
BITMAP
FFE0
6140
5240
9300
8300
8200
ENDCHAR
STARTCHAR uni0400
ENCODING 1024
SWIDTH 459 0
DWIDTH 5 0
BBX 6 12 0 0
BITMAP
0300
0140
0000
0780
1C50
2C80
1C00
2D00
7400
B000
F040
7E00
ENDCHAR
STARTCHAR uni0401
ENCODING 1025
SWIDTH 459 0
DWIDTH 5 0
BBX 6 11 0 0
BITMAP
0660
0000
0780
1C50
2C80
1C00
2D00
7400
B000
F040
7E00
ENDCHAR
STARTCHAR uni0402
ENCODING 1026
SWIDTH 725 0
DWIDTH 8 0
BBX 8 11 0 -2
BITMAP
1BEA
6280
9380
C380
47A8
0B1D
0B1C
0E2C
0D38
0070
0290
ENDCHAR
STARTCHAR uni0403
ENCODING 1027
SWIDTH 400 0
DWIDTH 4 0
BBX 7 12 0 0
BITMAP
0024
0020
0000
1BA8
9B00
DB00
9E00
0E00
1D00
1C00
2C00
2800
ENDCHAR
STARTCHAR uni0404
ENCODING 1028
SWIDTH 497 0
DWIDTH 5 0
BBX 6 9 0 0
BITMAP
0B90
1D20
3810
7A40
B000
B000
B000
B410
2E40
ENDCHAR
STARTCHAR uni0405
ENCODING 1029
SWIDTH 570 0
DWIDTH 6 0
BBX 6 9 0 0
BITMAP
0790
1D30
1D60
0F00
07C0
25D0
A0E0
A1D0
2B40
ENDCHAR
STARTCHAR uni0406
ENCODING 1030
SWIDTH 374 0
DWIDTH 4 0
BBX 5 9 0 0
BITMAP
0B40
7B00
9B00
9A00
0E00
1D00
1D00
2C00
2800
ENDCHAR
STARTCHAR uni0407
ENCODING 1031
SWIDTH 375 0
DWIDTH 4 0
BBX 6 11 0 0
BITMAP
0990
0000
1B40
7B00
9B00
CE00
0D00
1D00
1C00
2C00
3800
ENDCHAR
STARTCHAR uni0408
ENCODING 1032
SWIDTH 536 0
DWIDTH 6 0
BBX 7 11 0 -2
BITMAP
01B4
06B0
09B0
0CE0
01D0
01D0
02C0
0280
6780
9740
6900
ENDCHAR
STARTCHAR uni0409
ENCODING 1033
SWIDTH 817 0
DWIDTH 9 0
BBX 10 10 -1 -1
BITMAP
002D00
00AC00
026C00
063800
0D3E80
1C74D0
2870E0
34B1D0
70EB80
300000
ENDCHAR
STARTCHAR uni040A
ENCODING 1034
SWIDTH 931 0
DWIDTH 10 0
BBX 10 9 0 0
BITMAP
0B4E00
2B5D00
9B1D00
DB2C00
4FBE90
1D38A0
1D34A0
2C74E0
28B680
ENDCHAR
STARTCHAR uni040B
ENCODING 1035
SWIDTH 745 0
DWIDTH 8 0
BBX 8 9 0 0
BITMAP
1BEA
A280
D380
43A8
075C
0B1C
0A2C
0E2C
0D2C
ENDCHAR
STARTCHAR uni040C
ENCODING 1036
SWIDTH 635 0
DWIDTH 7 0
BBX 8 12 0 0
BITMAP
0024
0020
0000
0B5D
2B69
9B80
DB80
4FA0
1D70
1DB0
2CE0
28E0
ENDCHAR
STARTCHAR uni040D
ENCODING 1037
SWIDTH 705 0
DWIDTH 8 0
BBX 8 12 0 0
BITMAP
0060
0020
0000
0B4B
7B1E
9B2E
9A6D
0E9D
1EAC
1F28
2D38
2C74
ENDCHAR
STARTCHAR uni040E
ENCODING 1038
SWIDTH 644 0
DWIDTH 7 0
BBX 8 11 0 0
BITMAP
00D5
00A4
0B82
6385
92C8
92D8
01F0
00E0
0090
0580
0B40
ENDCHAR
STARTCHAR uni040F
ENCODING 1039
SWIDTH 665 0
DWIDTH 7 0
BBX 8 13 0 -4
BITMAP
0B4E
7B1D
9B1C
9A2C
0E28
1D38
1C74
2C74
2FF0
0500
0A00
0700
0200
ENDCHAR
STARTCHAR uni0410
ENCODING 1040
SWIDTH 668 0
DWIDTH 7 0
BBX 8 11 0 -2
BITMAP
002D
009D
025C
6B6C
9938
5C38
2C74
2874
34B0
3400
1000
ENDCHAR
STARTCHAR uni0411
ENCODING 1041
SWIDTH 638 0
DWIDTH 7 0
BBX 7 9 0 0
BITMAP
1BA8
5B00
8E00
CE00
5EA0
1D74
2C34
2C70
3AD0
ENDCHAR
STARTCHAR uni0412
ENCODING 1042
SWIDTH 641 0
DWIDTH 7 0
BBX 7 9 0 0
BITMAP
1AA0
6624
9B30
9BE0
0D38
1D38
1C34
2C74
2AD0
ENDCHAR
STARTCHAR uni0413
ENCODING 1043
SWIDTH 400 0
DWIDTH 4 0
BBX 7 9 0 0
BITMAP
1BA8
9B00
DB00
9E00
0E00
1D00
1C00
2C00
2800
ENDCHAR
STARTCHAR uni0414
ENCODING 1044
SWIDTH 669 0
DWIDTH 7 0
BBX 8 9 -1 0
BITMAP
06A8
1D8A
26C7
2787
0387
074B
2F4E
5B1C
2EB4
ENDCHAR
STARTCHAR uni0415
ENCODING 1045
SWIDTH 459 0
DWIDTH 5 0
BBX 6 9 0 0
BITMAP
0780
1C50
2C80
1C00
2D00
7400
B000
F040
7E00
ENDCHAR
STARTCHAR uni0416
ENCODING 1046
SWIDTH 777 0
DWIDTH 9 0
BBX 9 9 0 0
BITMAP
2862C0
29AA80
06E800
02E400
2FED00
76CE00
728D00
A39D00
D75D00
ENDCHAR
STARTCHAR uni0417
ENCODING 1047
SWIDTH 525 0
DWIDTH 6 0
BBX 6 9 0 0
BITMAP
1B80
11D0
02C0
0F40
02C0
02D0
92C0
C380
AA00
ENDCHAR
STARTCHAR uni0418
ENCODING 1048
SWIDTH 705 0
DWIDTH 8 0
BBX 8 9 0 0
BITMAP
0B4B
7B1E
9B2E
9A6D
0E9D
1EAC
1F28
2D38
2C74
ENDCHAR
STARTCHAR uni0419
ENCODING 1049
SWIDTH 705 0
DWIDTH 8 0
BBX 8 11 0 0
BITMAP
00D5
00A4
0B4B
7B1E
9B2E
9A6D
0E9D
1EAC
1F28
2D38
2C74
ENDCHAR
STARTCHAR uni041A
ENCODING 1050
SWIDTH 635 0
DWIDTH 7 0
BBX 8 9 0 0
BITMAP
0B5D
2B69
9B80
DB80
4FA0
1D70
1DB0
2CE0
28E0
ENDCHAR
STARTCHAR uni041B
ENCODING 1051
SWIDTH 549 0
DWIDTH 6 0
BBX 8 11 -1 -2
BITMAP
002D
00AC
026C
0638
0938
1C74
2870
34B0
70E0
7000
1000
ENDCHAR
STARTCHAR uni041C
ENCODING 1052
SWIDTH 787 0
DWIDTH 9 0
BBX 8 9 1 0
BITMAP
1F0E
AB1E
CF2E
9F3D
2B6D
2BAC
5BAC
8B6C
8B28
ENDCHAR
STARTCHAR uni041D
ENCODING 1053
SWIDTH 665 0
DWIDTH 7 0
BBX 8 9 0 0
BITMAP
0B4E
3F5D
AB1C
DA2C
4FF8
0D38
1D34
2C74
28B0
ENDCHAR
STARTCHAR uni041E
ENCODING 1054
SWIDTH 665 0
DWIDTH 7 0
BBX 8 9 0 0
BITMAP
0AA4
265C
9B1C
9D1D
2C1C
2C28
2834
2CA0
1F80
ENDCHAR
STARTCHAR uni041F
ENCODING 1055
SWIDTH 688 0
DWIDTH 8 0
BBX 9 9 0 0
BITMAP
1BD040
7BAE40
9B1D00
9A2C00
4E2800
1D3800
1D7400
2C7400
28B000
ENDCHAR
STARTCHAR uni0420
ENCODING 1056
SWIDTH 573 0
DWIDTH 6 0
BBX 7 9 0 0
BITMAP
0AA0
6634
9B24
CE34
4EA0
1E40
1C00
2C00
3800
ENDCHAR
STARTCHAR uni0421
ENCODING 1057
SWIDTH 497 0
DWIDTH 5 0
BBX 6 9 0 0
BITMAP
0B90
1D30
3860
7400
B400
B000
B000
B410
2E40
ENDCHAR
STARTCHAR uni0422
ENCODING 1058
SWIDTH 481 0
DWIDTH 5 0
BBX 8 9 0 0
BITMAP
1BD1
63E9
D380
C740
4740
0B00
0A00
0E00
1D00
ENDCHAR
STARTCHAR uni0423
ENCODING 1059
SWIDTH 644 0
DWIDTH 7 0
BBX 8 9 0 0
BITMAP
0B82
6385
92C8
92D8
01F0
00E0
0090
0580
0B40
ENDCHAR
STARTCHAR uni0424
ENCODING 1060
SWIDTH 786 0
DWIDTH 9 0
BBX 9 10 0 0
BITMAP
0AA000
28B000
15E400
1EEA00
75D740
B1C740
A2C700
B39E00
2BE400
074000
ENDCHAR
STARTCHAR uni0425
ENCODING 1061
SWIDTH 620 0
DWIDTH 7 0
BBX 7 9 0 0
BITMAP
1B48
67A0
93E0
C2C0
02D0
02D0
06E0
08E0
14B0
ENDCHAR
STARTCHAR uni0426
ENCODING 1062
SWIDTH 692 0
DWIDTH 8 0
BBX 8 12 0 -3
BITMAP
0B4E
6B1D
9B1C
9A2C
0E38
1D38
1D74
2C74
2EB0
01F5
007E
0004
ENDCHAR
STARTCHAR uni0427
ENCODING 1063
SWIDTH 695 0
DWIDTH 8 0
BBX 8 9 0 0
BITMAP
0B4B
2B0E
9B0D
DA1D
471C
002C
0038
0038
0074
ENDCHAR
STARTCHAR uni0428
ENCODING 1064
SWIDTH 906 0
DWIDTH 10 0
BBX 11 9 0 0
BITMAP
0B5D74
7B2CB0
9B28A0
9A38E0
0E35D0
1D75D0
1CB2C0
2CB280
2FFF80
ENDCHAR
STARTCHAR uni0429
ENCODING 1065
SWIDTH 934 0
DWIDTH 10 0
BBX 11 12 0 -3
BITMAP
0B5D74
6B2CB0
9B28A0
9A38E0
0E35D0
1D75D0
1DB2C0
2CB2C0
2EE780
01BF90
0007F4
000050
ENDCHAR
STARTCHAR uni042A
ENCODING 1066
SWIDTH 714 0
DWIDTH 8 0
BBX 8 9 0 0
BITMAP
1BC0
62C0
9380
D380
57A8
075D
0B0D
0A1C
0EB4
ENDCHAR
STARTCHAR uni042B
ENCODING 1067
SWIDTH 909 0
DWIDTH 10 0
BBX 11 9 0 0
BITMAP
0B4074
2B40B0
9B00A0
DA00E0
4FA0D0
1D39D0
1D3AC0
2C36C0
2AE380
ENDCHAR
STARTCHAR uni042C
ENCODING 1068
SWIDTH 640 0
DWIDTH 7 0
BBX 7 9 0 0
BITMAP
0B40
2B40
9B00
DA00
4FA0
1D38
1D38
2C34
2AE0
ENDCHAR
STARTCHAR uni042D
ENCODING 1069
SWIDTH 544 0
DWIDTH 6 0
BBX 6 9 0 0
BITMAP
1B80
10E0
00F0
1AF0
01E0
01D0
82C0
C740
A900
ENDCHAR
STARTCHAR uni042E
ENCODING 1070
SWIDTH 946 0
DWIDTH 10 0
BBX 11 9 0 0
BITMAP
0B4AD0
2B4970
9B1C74
DA3874
5FF470
1DB0B0
1DB0E0
2CB2C0
287E00
ENDCHAR
STARTCHAR uni042F
ENCODING 1071
SWIDTH 630 0
DWIDTH 7 0
BBX 8 9 0 0
BITMAP
06A8
1CAA
24E5
29D0
1FD0
76C0
7280
A380
D740
ENDCHAR
STARTCHAR uni0430
ENCODING 1072
SWIDTH 526 0
DWIDTH 6 0
BBX 6 6 0 0
BITMAP
2ED0
76C0
E280
E380
E790
B6D0
ENDCHAR
STARTCHAR uni0431
ENCODING 1073
SWIDTH 430 0
DWIDTH 5 0
BBX 6 9 0 0
BITMAP
0BF0
0FE0
0500
1B00
7640
E240
E300
D600
B800
ENDCHAR
STARTCHAR uni0432
ENCODING 1074
SWIDTH 449 0
DWIDTH 5 0
BBX 6 9 0 0
BITMAP
0A00
2940
3540
7240
B200
E790
E240
E300
B900
ENDCHAR
STARTCHAR uni0433
ENCODING 1075
SWIDTH 375 0
DWIDTH 4 0
BBX 5 6 -1 0
BITMAP
1B40
2380
0B40
2D00
7840
2E40
ENDCHAR
STARTCHAR uni0434
ENCODING 1076
SWIDTH 507 0
DWIDTH 6 0
BBX 6 9 0 -3
BITMAP
2ED0
76C0
E280
E380
E750
BB90
1B00
5A00
2D00
ENDCHAR
STARTCHAR uni0435
ENCODING 1077
SWIDTH 384 0
DWIDTH 4 0
BBX 5 6 0 0
BITMAP
2E00
7700
E600
F800
E140
B900
ENDCHAR
STARTCHAR uni0436
ENCODING 1078
SWIDTH 882 0
DWIDTH 10 0
BBX 11 6 -1 0
BITMAP
1A2CB4
136A94
03BF40
137740
667344
28B2E0
ENDCHAR
STARTCHAR uni0437
ENCODING 1079
SWIDTH 498 0
DWIDTH 5 0
BBX 6 9 0 -3
BITMAP
1B40
5380
4380
4700
2D10
0A50
1F00
5E00
6800
ENDCHAR
STARTCHAR uni0438
ENCODING 1080
SWIDTH 505 0
DWIDTH 6 0
BBX 6 6 0 0
BITMAP
76C0
B280
B380
E740
EB60
B780
ENDCHAR
STARTCHAR uni0439
ENCODING 1081
SWIDTH 505 0
DWIDTH 6 0
BBX 6 8 0 0
BITMAP
2880
1A00
76C0
B280
B380
E740
EB60
B780
ENDCHAR
STARTCHAR uni043A
ENCODING 1082
SWIDTH 501 0
DWIDTH 6 0
BBX 7 6 -1 0
BITMAP
1D70
2D40
2FC0
39D0
35D4
74F0
ENDCHAR
STARTCHAR uni043B
ENCODING 1083
SWIDTH 558 0
DWIDTH 6 0
BBX 8 6 -1 0
BITMAP
01B8
0274
0270
01B0
65A1
6878
ENDCHAR
STARTCHAR uni043C
ENCODING 1084
SWIDTH 827 0
DWIDTH 9 0
BBX 11 6 -1 0
BITMAP
01E1D0
02A3D0
02A6C0
01AAC0
65B694
28B1E0
ENDCHAR
STARTCHAR uni043D
ENCODING 1085
SWIDTH 507 0
DWIDTH 6 0
BBX 7 6 -1 0
BITMAP
1DB0
2CA0
2EE0
38D0
35D4
74E0
ENDCHAR
STARTCHAR uni043E
ENCODING 1086
SWIDTH 439 0
DWIDTH 5 0
BBX 6 6 0 0
BITMAP
2E00
7650
E380
E300
E600
B800
ENDCHAR
STARTCHAR uni043F
ENCODING 1087
SWIDTH 505 0
DWIDTH 6 0
BBX 7 6 -1 0
BITMAP
1ED0
2CE0
28E0
39D0
35D4
74E4
ENDCHAR
STARTCHAR uni0440
ENCODING 1088
SWIDTH 468 0
DWIDTH 5 0
BBX 6 10 -1 -3
BITMAP
0900
1ED0
2CB0
2CA0
38E0
35D0
7F40
B000
B000
9000
ENDCHAR
STARTCHAR uni0441
ENCODING 1089
SWIDTH 384 0
DWIDTH 4 0
BBX 5 6 0 0
BITMAP
2E00
7600
E000
E000
E140
B900
ENDCHAR
STARTCHAR uni0442
ENCODING 1090
SWIDTH 752 0
DWIDTH 8 0
BBX 10 6 -1 0
BITMAP
1EEB40
2CE340
28E740
39D700
35CB10
76C780
ENDCHAR
STARTCHAR uni0443
ENCODING 1091
SWIDTH 486 0
DWIDTH 5 0
BBX 6 9 0 -3
BITMAP
76C0
B380
B380
E740
EB50
BF80
2E00
5E00
7800
ENDCHAR
STARTCHAR uni0444
ENCODING 1092
SWIDTH 738 0
DWIDTH 8 0
BBX 8 11 0 -3
BITMAP
00D0
01D0
2EED
76CE
E28E
E34D
E75C
BBB4
0B00
0A00
0900
ENDCHAR
STARTCHAR uni0445
ENCODING 1093
SWIDTH 522 0
DWIDTH 6 0
BBX 6 6 0 0
BITMAP
1D50
5A90
4B80
4B00
1B10
6290
ENDCHAR
STARTCHAR uni0446
ENCODING 1094
SWIDTH 535 0
DWIDTH 6 0
BBX 5 9 0 -3
BITMAP
76C0
B280
B380
E740
EB40
B7C0
0080
1F80
2900
ENDCHAR
STARTCHAR uni0447
ENCODING 1095
SWIDTH 505 0
DWIDTH 6 0
BBX 6 6 0 0
BITMAP
76C0
B380
B780
7B50
0760
0380
ENDCHAR
STARTCHAR uni0448
ENCODING 1096
SWIDTH 752 0
DWIDTH 8 0
BBX 9 6 0 0
BITMAP
76CE00
B28D00
B39D00
E75C00
EB7D40
B79E00
ENDCHAR
STARTCHAR uni0449
ENCODING 1097
SWIDTH 782 0
DWIDTH 9 0
BBX 8 9 0 -3
BITMAP
76CE
B28D
B39D
E75C
EB7C
B79E
0002
00BD
01A4
ENDCHAR
STARTCHAR uni044A
ENCODING 1098
SWIDTH 448 0
DWIDTH 5 0
BBX 5 6 0 0
BITMAP
AC00
E400
7A00
E340
E740
B900
ENDCHAR
STARTCHAR uni044B
ENCODING 1099
SWIDTH 655 0
DWIDTH 7 0
BBX 8 6 0 0
BITMAP
7028
B0B4
AA74
E370
D6B5
B878
ENDCHAR
STARTCHAR uni044C
ENCODING 1100
SWIDTH 448 0
DWIDTH 5 0
BBX 5 6 0 0
BITMAP
7400
B500
BB40
E340
E700
BD00
ENDCHAR
STARTCHAR uni044D
ENCODING 1101
SWIDTH 413 0
DWIDTH 5 0
BBX 5 6 -1 0
BITMAP
1B80
12C0
0BC0
0280
9740
6900
ENDCHAR
STARTCHAR uni044E
ENCODING 1102
SWIDTH 675 0
DWIDTH 7 0
BBX 10 6 -1 0
BITMAP
1D6900
2CE750
2ED740
3AD600
35C900
74A400
ENDCHAR
STARTCHAR uni044F
ENCODING 1103
SWIDTH 527 0
DWIDTH 6 0
BBX 7 6 -1 0
BITMAP
06B4
0D70
1DA0
0BE0
65D4
68B4
ENDCHAR
STARTCHAR uni0450
ENCODING 1104
SWIDTH 384 0
DWIDTH 4 0
BBX 5 9 0 0
BITMAP
0C00
0800
0000
2E00
7700
E600
F800
E140
B900
ENDCHAR
STARTCHAR uni0451
ENCODING 1105
SWIDTH 384 0
DWIDTH 4 0
BBX 5 8 0 0
BITMAP
1A40
0000
2E00
7700
E600
F800
E140
B900
ENDCHAR
STARTCHAR uni0452
ENCODING 1106
SWIDTH 491 0
DWIDTH 5 0
BBX 7 12 -1 -3
BITMAP
0500
0E00
2F80
1D00
2E90
2CE0
38D0
35D4
76E0
0B80
1740
1A00
ENDCHAR
STARTCHAR uni0453
ENCODING 1107
SWIDTH 375 0
DWIDTH 4 0
BBX 5 9 -1 0
BITMAP
00C0
0140
0000
1B40
2380
0B40
2D00
7840
2E40
ENDCHAR
STARTCHAR uni0454
ENCODING 1108
SWIDTH 384 0
DWIDTH 4 0
BBX 4 6 0 0
BITMAP
2E
72
F8
E0
E1
B9
ENDCHAR
STARTCHAR uni0455
ENCODING 1109
SWIDTH 382 0
DWIDTH 4 0
BBX 6 6 -1 0
BITMAP
0B40
0B40
1740
2740
6790
2E00
ENDCHAR
STARTCHAR uni0456
ENCODING 1110
SWIDTH 267 0
DWIDTH 3 0
BBX 3 8 0 0
BITMAP
28
24
74
B0
B0
E0
E4
B4
ENDCHAR
STARTCHAR uni0457
ENCODING 1111
SWIDTH 267 0
DWIDTH 3 0
BBX 4 8 0 0
BITMAP
99
00
74
B0
B0
E0
E4
B4
ENDCHAR
STARTCHAR uni0458
ENCODING 1112
SWIDTH 240 0
DWIDTH 3 0
BBX 5 11 -2 -3
BITMAP
0340
0240
0740
0B00
0B00
0E00
0D40
1E40
7C00
A800
B400
ENDCHAR
STARTCHAR uni0459
ENCODING 1113
SWIDTH 745 0
DWIDTH 8 0
BBX 9 6 -1 0
BITMAP
01B800
027500
027B80
05B280
65A340
687A00
ENDCHAR
STARTCHAR uni045A
ENCODING 1114
SWIDTH 694 0
DWIDTH 8 0
BBX 8 6 -1 0
BITMAP
1DB0
2CB5
2EEB
38D7
35DA
74B8
ENDCHAR
STARTCHAR uni045B
ENCODING 1115
SWIDTH 505 0
DWIDTH 6 0
BBX 7 9 -1 0
BITMAP
0500
0E00
2F80
1D00
2E90
2CE0
38D0
35D4
74E4
ENDCHAR
STARTCHAR uni045C
ENCODING 1116
SWIDTH 501 0
DWIDTH 6 0
BBX 7 9 -1 0
BITMAP
0060
0080
0000
1D70
2D40
2FC0
39D0
35D4
74F0
ENDCHAR
STARTCHAR uni045D
ENCODING 1117
SWIDTH 505 0
DWIDTH 6 0
BBX 6 9 0 0
BITMAP
0C00
0500
0000
76C0
B280
B380
E740
EB60
B780
ENDCHAR
STARTCHAR uni045E
ENCODING 1118
SWIDTH 486 0
DWIDTH 5 0
BBX 6 11 0 -3
BITMAP
2880
1A00
76C0
B380
B380
E740
EB50
BF80
2E00
5E00
7800
ENDCHAR
STARTCHAR uni045F
ENCODING 1119
SWIDTH 505 0
DWIDTH 6 0
BBX 6 9 0 -3
BITMAP
76C0
B280
B380
E740
EB60
B780
0800
1C00
0800
ENDCHAR
STARTCHAR uni0462
ENCODING 1122
SWIDTH 659 0
DWIDTH 7 0
BBX 7 9 0 0
BITMAP
0740
2F44
9EA4
DE00
9EA0
1D34
2C34
2C74
3AD0
ENDCHAR
STARTCHAR uni0463
ENCODING 1123
SWIDTH 692 0
DWIDTH 8 0
BBX 8 6 -1 0
BITMAP
1ED0
2CE0
28FA
39D7
35DB
74B8
ENDCHAR
STARTCHAR uni046A
ENCODING 1130
SWIDTH 834 0
DWIDTH 9 0
BBX 9 9 0 0
BITMAP
07EB40
26D200
61E500
60F800
16FA40
1DB340
2CE340
28D700
75D700
ENDCHAR
STARTCHAR uni046B
ENCODING 1131
SWIDTH 750 0
DWIDTH 8 0
BBX 7 6 0 0
BITMAP
1BE8
3390
1BE8
2ADC
369C
77AC
ENDCHAR
STARTCHAR uni0472
ENCODING 1138
SWIDTH 665 0
DWIDTH 7 0
BBX 8 9 0 0
BITMAP
0AA4
365C
9B1C
9D1D
2EAC
2C28
2C34
2CA0
1E80
ENDCHAR
STARTCHAR uni0473
ENCODING 1139
SWIDTH 439 0
DWIDTH 5 0
BBX 6 6 0 0
BITMAP
2E00
7650
F280
EB00
E600
B800
ENDCHAR
STARTCHAR uni0474
ENCODING 1140
SWIDTH 668 0
DWIDTH 7 0
BBX 8 9 0 0
BITMAP
1B46
674C
9758
C764
0770
07A0
0390
03C0
0380
ENDCHAR
STARTCHAR uni0475
ENCODING 1141
SWIDTH 414 0
DWIDTH 5 0
BBX 5 6 0 0
BITMAP
7640
B140
B240
E200
E900
B800
ENDCHAR
STARTCHAR uni0490
ENCODING 1168
SWIDTH 431 0
DWIDTH 5 0
BBX 7 10 0 0
BITMAP
0008
1BF8
6B00
9A00
9E00
0D00
1D00
2C00
2C00
3800
ENDCHAR
STARTCHAR uni0491
ENCODING 1169
SWIDTH 342 0
DWIDTH 4 0
BBX 5 7 -1 0
BITMAP
0080
1E80
2C00
2C00
3800
3400
7400
ENDCHAR
STARTCHAR uni0492
ENCODING 1170
SWIDTH 400 0
DWIDTH 4 0
BBX 7 9 0 0
BITMAP
1BA8
6700
9B00
9A00
4E00
2E40
1D00
2C00
2800
ENDCHAR
STARTCHAR uni0493
ENCODING 1171
SWIDTH 375 0
DWIDTH 4 0
BBX 4 6 0 0
BITMAP
2D
8E
5E
BE
E1
B9
ENDCHAR
STARTCHAR uni0494
ENCODING 1172
SWIDTH 665 0
DWIDTH 7 0
BBX 7 9 0 0
BITMAP
1BA8
6B00
9B00
DF00
5FA0
1D38
1D28
2C34
2A90
ENDCHAR
STARTCHAR uni0495
ENCODING 1173
SWIDTH 486 0
DWIDTH 5 0
BBX 7 9 -1 -3
BITMAP
1E90
2C00
2E80
39D0
35C4
76E0
0B80
1740
1E00
ENDCHAR
STARTCHAR uni0496
ENCODING 1174
SWIDTH 777 0
DWIDTH 9 0
BBX 9 13 0 -4
BITMAP
2862C0
29AA80
06E800
02E400
2FED00
76CE00
728D00
A39D00
D75D00
001800
001C00
000D00
000400
ENDCHAR
STARTCHAR uni0497
ENCODING 1175
SWIDTH 882 0
DWIDTH 10 0
BBX 11 9 -1 -3
BITMAP
1A2CB4
136A94
03BF40
137740
667344
28B2E0
000080
0000D0
000040
ENDCHAR
STARTCHAR uni0498
ENCODING 1176
SWIDTH 525 0
DWIDTH 6 0
BBX 6 13 0 -4
BITMAP
1B80
11D0
02C0
0F40
02C0
02D0
92C0
C380
A900
1800
1C00
0C00
0400
ENDCHAR
STARTCHAR uni0499
ENCODING 1177
SWIDTH 498 0
DWIDTH 5 0
BBX 6 12 0 -6
BITMAP
1B40
5380
4380
4700
2D10
0A40
1F00
5E00
7D00
2000
3400
1000
ENDCHAR
STARTCHAR uni049A
ENCODING 1178
SWIDTH 635 0
DWIDTH 7 0
BBX 8 12 0 -3
BITMAP
0B5D
2B69
9B80
DB80
4FA0
1D70
1DB0
2CE0
28E0
0090
00E0
0060
ENDCHAR
STARTCHAR uni049B
ENCODING 1179
SWIDTH 501 0
DWIDTH 6 0
BBX 7 9 -1 -3
BITMAP
1D70
2D40
2FC0
39D0
35D4
74E0
0090
00D0
0040
ENDCHAR
STARTCHAR uni049C
ENCODING 1180
SWIDTH 721 0
DWIDTH 8 0
BBX 9 9 0 0
BITMAP
1B4B40
6B1A40
9BB000
9BD000
0E7400
1D3800
1C7400
2C7000
287000
ENDCHAR
STARTCHAR uni049D
ENCODING 1181
SWIDTH 551 0
DWIDTH 6 0
BBX 8 6 -1 0
BITMAP
1D28
2E40
2FE0
3DA0
39A5
74B8
ENDCHAR
STARTCHAR uni04A0
ENCODING 1184
SWIDTH 691 0
DWIDTH 8 0
BBX 8 9 0 0
BITMAP
1BCB
63A6
93A0
C7C0
47F4
0B38
0B34
0E74
1D74
ENDCHAR
STARTCHAR uni04A1
ENCODING 1185
SWIDTH 676 0
DWIDTH 7 0
BBX 8 6 0 0
BITMAP
6F1C
DB68
CBD0
0EB4
1D75
1D78
ENDCHAR
STARTCHAR uni04A2
ENCODING 1186
SWIDTH 665 0
DWIDTH 7 0
BBX 8 11 0 -2
BITMAP
0B4E
2B5D
9B1C
DA2C
5FF8
1D38
1D34
2C70
28B4
002E
000D
ENDCHAR
STARTCHAR uni04A3
ENCODING 1187
SWIDTH 507 0
DWIDTH 6 0
BBX 7 9 -1 -3
BITMAP
1DB0
2CA0
2EE0
38D0
35D4
74E4
0090
00A0
0040
ENDCHAR
STARTCHAR uni04A4
ENCODING 1188
SWIDTH 689 0
DWIDTH 8 0
BBX 10 9 0 0
BITMAP
074EA0
2B5D00
9B1C00
DE2C00
5FF800
1D3800
1D3400
2C7000
28B000
ENDCHAR
STARTCHAR uni04A5
ENCODING 1189
SWIDTH 681 0
DWIDTH 7 0
BBX 9 6 -1 0
BITMAP
1D7A40
2CA000
2EE000
38D000
35D800
74F000
ENDCHAR
STARTCHAR uni04AA
ENCODING 1194
SWIDTH 497 0
DWIDTH 5 0
BBX 6 13 0 -4
BITMAP
0B90
1D30
3860
7400
B400
B000
B000
B410
7E80
0D00
0D00
0A00
0400
ENDCHAR
STARTCHAR uni04AB
ENCODING 1195
SWIDTH 384 0
DWIDTH 4 0
BBX 5 9 0 -3
BITMAP
2E00
7600
E000
E000
E140
B900
2000
3400
1000
ENDCHAR
STARTCHAR uni04AE
ENCODING 1198
SWIDTH 620 0
DWIDTH 7 0
BBX 8 9 0 0
BITMAP
1B45
6788
93C8
C2E4
01E0
01E0
01D0
02C0
03C0
ENDCHAR
STARTCHAR uni04AF
ENCODING 1199
SWIDTH 480 0
DWIDTH 5 0
BBX 5 9 0 -3
BITMAP
7580
7480
7480
3600
3A00
3C00
3800
7400
5000
ENDCHAR
STARTCHAR uni04B0
ENCODING 1200
SWIDTH 620 0
DWIDTH 7 0
BBX 8 9 0 0
BITMAP
1B45
6788
93C8
C2E4
01E0
03F4
01D0
02C0
03C0
ENDCHAR
STARTCHAR uni04B1
ENCODING 1201
SWIDTH 480 0
DWIDTH 5 0
BBX 5 9 0 -3
BITMAP
7580
7480
7480
3600
3A00
BD00
3800
7400
5000
ENDCHAR
STARTCHAR uni04B6
ENCODING 1206
SWIDTH 695 0
DWIDTH 8 0
BBX 8 11 0 -2
BITMAP
0B4B
2B0E
9B0D
DA1D
472C
002C
0038
0038
0074
001E
000A
ENDCHAR
STARTCHAR uni04B7
ENCODING 1207
SWIDTH 505 0
DWIDTH 6 0
BBX 6 9 0 -3
BITMAP
76C0
B380
B780
7B50
0760
0380
0240
0340
0100
ENDCHAR
STARTCHAR uni04B8
ENCODING 1208
SWIDTH 715 0
DWIDTH 8 0
BBX 8 9 0 0
BITMAP
0B4B
6B0B
9B0E
9A0E
07AD
006C
002C
0038
0038
ENDCHAR
STARTCHAR uni04B9
ENCODING 1209
SWIDTH 545 0
DWIDTH 6 0
BBX 6 6 0 0
BITMAP
75D0
B5D0
BAC0
7F80
07A0
02D0
ENDCHAR
STARTCHAR uni04BA
ENCODING 1210
SWIDTH 679 0
DWIDTH 7 0
BBX 7 9 0 0
BITMAP
1B40
6B00
9B00
9A00
0E24
1D28
1C38
2C38
2874
ENDCHAR
STARTCHAR uni04BB
ENCODING 1211
SWIDTH 505 0
DWIDTH 6 0
BBX 7 9 -1 0
BITMAP
0100
0E00
0D00
1ED0
2CE0
28E0
39D0
35D4
74E4
ENDCHAR
STARTCHAR uni04C0
ENCODING 1216
SWIDTH 375 0
DWIDTH 4 0
BBX 5 9 0 0
BITMAP
1B40
7B00
9B00
CE00
0D00
1D00
1C00
2C00
3800
ENDCHAR
STARTCHAR uni04C1
ENCODING 1217
SWIDTH 777 0
DWIDTH 9 0
BBX 9 11 0 0
BITMAP
01C800
00A400
2862C0
29AA80
06E800
02E400
2FED00
76CE00
728D00
A39D00
D75D00
ENDCHAR
STARTCHAR uni04C2
ENCODING 1218
SWIDTH 882 0
DWIDTH 10 0
BBX 11 8 -1 0
BITMAP
007200
002900
1A2CB4
136A94
03BF40
137740
667344
28B2E0
ENDCHAR
STARTCHAR uni04CB
ENCODING 1227
SWIDTH 695 0
DWIDTH 8 0
BBX 8 10 0 -1
BITMAP
1B4B
6B0E
9B0D
9B1D
07FC
002C
0038
0034
00B4
0F40
ENDCHAR
STARTCHAR uni04CC
ENCODING 1228
SWIDTH 516 0
DWIDTH 6 0
BBX 6 9 0 -3
BITMAP
76C0
72C0
B780
7B40
0760
03D0
0200
7E00
A800
ENDCHAR
STARTCHAR uni04CF
ENCODING 1231
SWIDTH 267 0
DWIDTH 3 0
BBX 4 8 0 0
BITMAP
38
34
74
B0
B0
E0
E5
B4
ENDCHAR
STARTCHAR uni04D0
ENCODING 1232
SWIDTH 668 0
DWIDTH 7 0
BBX 9 13 0 -2
BITMAP
002880
001A00
002D00
009D00
025C00
6B6C00
993800
5C3800
2C7400
287400
34B000
340000
100000
ENDCHAR
STARTCHAR uni04D1
ENCODING 1233
SWIDTH 526 0
DWIDTH 6 0
BBX 6 8 0 0
BITMAP
0D50
0A40
2ED0
76C0
E280
E380
E790
B6D0
ENDCHAR
STARTCHAR uni04D2
ENCODING 1234
SWIDTH 668 0
DWIDTH 7 0
BBX 9 13 0 -2
BITMAP
001980
000000
002D00
009D00
025C00
6B6C00
993800
5C3800
2C7400
287400
34B000
340000
100000
ENDCHAR
STARTCHAR uni04D3
ENCODING 1235
SWIDTH 526 0
DWIDTH 6 0
BBX 6 8 0 0
BITMAP
0990
0000
2ED0
76C0
E280
E380
E790
B6D0
ENDCHAR
STARTCHAR uni04D4
ENCODING 1236
SWIDTH 764 0
DWIDTH 8 0
BBX 10 11 0 -2
BITMAP
002E10
009E90
025D00
2F6C00
997F40
9C3800
2C7400
287400
34BA40
340000
100000
ENDCHAR
STARTCHAR uni04D5
ENCODING 1237
SWIDTH 650 0
DWIDTH 7 0
BBX 7 6 0 0
BITMAP
2BB8
03CC
6B98
E7E0
E744
BAE4
ENDCHAR
STARTCHAR uni04D6
ENCODING 1238
SWIDTH 459 0
DWIDTH 5 0
BBX 6 11 0 0
BITMAP
0A20
0680
0780
1C50
2C80
1C00
2D00
7400
B000
F040
7E00
ENDCHAR
STARTCHAR uni04D7
ENCODING 1239
SWIDTH 384 0
DWIDTH 4 0
BBX 5 8 0 0
BITMAP
2540
1A00
2E00
7700
E600
F800
E140
B900
ENDCHAR
STARTCHAR uni04D8
ENCODING 1240
SWIDTH 544 0
DWIDTH 6 0
BBX 6 9 0 0
BITMAP
1F80
25E0
00F0
00F0
0AE0
39D0
A2C0
A340
7900
ENDCHAR
STARTCHAR uni04D9
ENCODING 1241
SWIDTH 404 0
DWIDTH 4 0
BBX 5 6 0 0
BITMAP
6E00
0700
2F40
9B00
CE00
B800
ENDCHAR
STARTCHAR uni04DC
ENCODING 1244
SWIDTH 777 0
DWIDTH 9 0
BBX 9 11 0 0
BITMAP
00CC00
000000
2862C0
29AA80
06E800
02E400
2FED00
76CE00
728D00
A39D00
D75D00
ENDCHAR
STARTCHAR uni04DD
ENCODING 1245
SWIDTH 882 0
DWIDTH 10 0
BBX 11 8 -1 0
BITMAP
003300
000000
1A2CB4
136A94
03BF40
137740
667344
28B2E0
ENDCHAR
STARTCHAR uni04DE
ENCODING 1246
SWIDTH 525 0
DWIDTH 6 0
BBX 6 11 0 0
BITMAP
0660
0000
1B80
11D0
02C0
0F40
02C0
02D0
92C0
C380
AA00
ENDCHAR
STARTCHAR uni04DF
ENCODING 1247
SWIDTH 498 0
DWIDTH 5 0
BBX 6 11 0 -3
BITMAP
1980
0000
1B40
5380
4380
4700
2D10
0A50
1F00
5E00
6800
ENDCHAR
STARTCHAR uni04E2
ENCODING 1250
SWIDTH 705 0
DWIDTH 8 0
BBX 8 11 0 0
BITMAP
00A9
0000
0B4B
7B1E
9B2E
9A6D
0E9D
1EAC
1F28
2D38
2C74
ENDCHAR
STARTCHAR uni04E3
ENCODING 1251
SWIDTH 505 0
DWIDTH 6 0
BBX 6 8 0 0
BITMAP
1A80
0000
76C0
B280
B380
E740
EB60
B780
ENDCHAR
STARTCHAR uni04E4
ENCODING 1252
SWIDTH 705 0
DWIDTH 8 0
BBX 8 11 0 0
BITMAP
0099
0000
0B4B
7B1E
9B2E
9A6D
0E9D
1EAC
1F28
2D38
2C74
ENDCHAR
STARTCHAR uni04E5
ENCODING 1253
SWIDTH 505 0
DWIDTH 6 0
BBX 6 8 0 0
BITMAP
1980
0000
76C0
B280
B380
E740
EB60
B780
ENDCHAR
STARTCHAR uni04E6
ENCODING 1254
SWIDTH 665 0
DWIDTH 7 0
BBX 8 11 0 0
BITMAP
00CC
0000
0AA4
265C
9B1C
9D1D
2C1C
2C28
2834
2CA0
1F80
ENDCHAR
STARTCHAR uni04E7
ENCODING 1255
SWIDTH 439 0
DWIDTH 5 0
BBX 6 8 0 0
BITMAP
1980
0000
2E00
7650
E380
E300
E600
B800
ENDCHAR
STARTCHAR uni04E8
ENCODING 1256
SWIDTH 665 0
DWIDTH 7 0
BBX 8 9 0 0
BITMAP
0AA4
265C
9B1C
9D1D
2EAC
2C28
2C34
2CA0
1E80
ENDCHAR
STARTCHAR uni04E9
ENCODING 1257
SWIDTH 439 0
DWIDTH 5 0
BBX 6 6 0 0
BITMAP
2E00
7650
FB80
E300
E600
B800
ENDCHAR
STARTCHAR uni04EE
ENCODING 1262
SWIDTH 644 0
DWIDTH 7 0
BBX 8 11 0 0
BITMAP
00A9
0000
0B82
6385
92C8
92D8
01F0
00E0
0090
0580
0B40
ENDCHAR
STARTCHAR uni04EF
ENCODING 1263
SWIDTH 486 0
DWIDTH 5 0
BBX 6 11 0 -3
BITMAP
1A80
0000
76C0
B380
B380
E740
EB50
BF80
2E00
5E00
7800
ENDCHAR
STARTCHAR uni04F0
ENCODING 1264
SWIDTH 644 0
DWIDTH 7 0
BBX 8 11 0 0
BITMAP
0099
0000
0B82
6385
92C8
92D8
01F0
00E0
0090
0580
0B40
ENDCHAR
STARTCHAR uni04F1
ENCODING 1265
SWIDTH 486 0
DWIDTH 5 0
BBX 6 11 0 -3
BITMAP
1980
0000
76C0
B380
B380
E740
EB50
BF80
2E00
5E00
7800
ENDCHAR
STARTCHAR uni04F2
ENCODING 1266
SWIDTH 644 0
DWIDTH 7 0
BBX 8 12 0 0
BITMAP
0036
0098
0000
0B82
6385
92C8
92D8
01F0
00E0
0090
0580
0B40
ENDCHAR
STARTCHAR uni04F3
ENCODING 1267
SWIDTH 486 0
DWIDTH 5 0
BBX 6 12 0 -3
BITMAP
0980
0940
0000
76C0
B380
B380
E740
EB50
BF80
2E00
5E00
7800
ENDCHAR
STARTCHAR uni04F4
ENCODING 1268
SWIDTH 695 0
DWIDTH 8 0
BBX 8 11 0 0
BITMAP
0099
0000
0B4B
2B0E
9B0D
DA1D
471C
002C
0038
0038
0074
ENDCHAR
STARTCHAR uni04F5
ENCODING 1269
SWIDTH 505 0
DWIDTH 6 0
BBX 6 8 0 0
BITMAP
1980
0000
76C0
B380
B780
7B50
0760
0380
ENDCHAR
STARTCHAR uni04F6
ENCODING 1270
SWIDTH 442 0
DWIDTH 5 0
BBX 7 11 0 -2
BITMAP
1BA8
9B00
DB00
5E00
0E00
1D00
1C00
2C00
2C00
0B40
0740
ENDCHAR
STARTCHAR uni04F7
ENCODING 1271
SWIDTH 375 0
DWIDTH 4 0
BBX 5 9 -1 -3
BITMAP
1B40
2380
0B40
2D00
7840
2E00
0800
1C00
0400
ENDCHAR
STARTCHAR uni04F8
ENCODING 1272
SWIDTH 909 0
DWIDTH 10 0
BBX 11 11 0 0
BITMAP
002640
000000
0B4074
2B40B0
9B00A0
DA00E0
4FA0D0
1D39D0
1D3AC0
2C36C0
2AE380
ENDCHAR
STARTCHAR uni04F9
ENCODING 1273
SWIDTH 642 0
DWIDTH 7 0
BBX 8 8 0 0
BITMAP
0550
0000
7024
B0B4
AA70
E370
D6A5
B878
ENDCHAR
STARTCHAR uni051A
ENCODING 1306
SWIDTH 665 0
DWIDTH 7 0
BBX 8 11 0 -2
BITMAP
0AA4
266C
9B1C
9E1D
6D1C
2C28
2C34
2EB0
1ED0
00B4
0010
ENDCHAR
STARTCHAR uni051B
ENCODING 1307
SWIDTH 486 0
DWIDTH 5 0
BBX 5 9 0 -3
BITMAP
2EC0
76C0
E280
E380
E740
BB40
0B00
0A00
0900
ENDCHAR
STARTCHAR uni051C
ENCODING 1308
SWIDTH 962 0
DWIDTH 11 0
BBX 12 9 0 0
BITMAP
1B4749
674B48
974F58
C75B60
076760
076750
039780
03C780
038740
ENDCHAR
STARTCHAR uni051D
ENCODING 1309
SWIDTH 661 0
DWIDTH 7 0
BBX 7 6 0 0
BITMAP
76C8
B288
B388
E758
EB64
B7D0
ENDCHAR
STARTCHAR uni0524
ENCODING 1316
SWIDTH 742 0
DWIDTH 8 0
BBX 9 11 0 -2
BITMAP
1BAE40
5B1D00
9B2C00
8E2C00
0E3800
1D3800
1C7400
2C7000
28B000
002E00
000D00
ENDCHAR
STARTCHAR uni0525
ENCODING 1317
SWIDTH 505 0
DWIDTH 6 0
BBX 7 9 -1 -3
BITMAP
1ED0
2CE0
28E0
39D0
35D8
74E0
0090
00A0
0040
ENDCHAR
STARTCHAR uni1E0C
ENCODING 7692
SWIDTH 663 0
DWIDTH 7 0
BBX 7 12 0 -3
BITMAP
0AA0
6628
9B1C
CE1C
4E2C
1D28
1C34
2CB0
3ED0
0000
0A00
0A00
ENDCHAR
STARTCHAR uni1E0D
ENCODING 7693
SWIDTH 525 0
DWIDTH 6 0
BBX 6 12 0 -3
BITMAP
0010
00E0
01D0
2ED0
76C0
E2C0
E380
E750
BA90
0000
2400
2800
ENDCHAR
STARTCHAR uni1E20
ENCODING 7712
SWIDTH 578 0
DWIDTH 6 0
BBX 7 13 0 -2
BITMAP
06A0
0000
0BA0
2D34
7830
B000
B060
B0A0
71E0
2AD0
19C0
2280
2A00
ENDCHAR
STARTCHAR uni1E21
ENCODING 7713
SWIDTH 507 0
DWIDTH 6 0
BBX 6 11 0 -3
BITMAP
1A80
0000
2ED0
76C0
E280
E380
E750
BB90
1B00
5A00
2D00
ENDCHAR
STARTCHAR uni1E24
ENCODING 7716
SWIDTH 665 0
DWIDTH 7 0
BBX 8 12 0 -3
BITMAP
0B4E
3F5D
AB1C
DA2C
4FF8
0D38
1D34
2C74
28B0
0000
0600
0700
ENDCHAR
STARTCHAR uni1E25
ENCODING 7717
SWIDTH 505 0
DWIDTH 6 0
BBX 7 12 -1 -3
BITMAP
0100
0E00
0D00
1ED0
2CE0
28E0
39D0
35D4
74E4
0000
0900
0D00
ENDCHAR
STARTCHAR uni1E2A
ENCODING 7722
SWIDTH 665 0
DWIDTH 7 0
BBX 8 12 0 -3
BITMAP
0B4E
3F5D
AB1C
DA2C
4FF8
0D38
1D34
2C74
28B0
0000
1480
0A40
ENDCHAR
STARTCHAR uni1E2B
ENCODING 7723
SWIDTH 505 0
DWIDTH 6 0
BBX 7 12 -1 -3
BITMAP
0100
0E00
0D00
1ED0
2CE0
28E0
39D0
35D4
74E4
0000
2140
1A00
ENDCHAR
STARTCHAR uni1E36
ENCODING 7734
SWIDTH 379 0
DWIDTH 4 0
BBX 8 12 0 -3
BITMAP
1B40
6B00
9B00
CE00
0D00
1D00
2C00
2C00
3C00
0780
25FD
3468
ENDCHAR
STARTCHAR uni1E37
ENCODING 7735
SWIDTH 293 0
DWIDTH 3 0
BBX 4 11 0 -3
BITMAP
2C
28
38
74
70
B0
B1
B8
00
90
D0
ENDCHAR
STARTCHAR uni1E42
ENCODING 7746
SWIDTH 787 0
DWIDTH 9 0
BBX 8 12 1 -3
BITMAP
1F0E
AB1E
CF2E
9F3D
2B6D
2BAC
5BAC
8B6C
8B28
0000
0900
0D00
ENDCHAR
STARTCHAR uni1E43
ENCODING 7747
SWIDTH 752 0
DWIDTH 8 0
BBX 10 9 -1 -3
BITMAP
1EEB40
2CE340
28E740
39D700
35CB10
76C780
000000
024000
028000
ENDCHAR
STARTCHAR uni1E44
ENCODING 7748
SWIDTH 668 0
DWIDTH 7 0
BBX 8 12 0 0
BITMAP
0024
0028
0000
1F46
7B86
9B89
DAC9
5DDC
19E8
18F8
24B4
34B4
ENDCHAR
STARTCHAR uni1E45
ENCODING 7749
SWIDTH 505 0
DWIDTH 6 0
BBX 7 9 -1 0
BITMAP
01C0
0180
0000
1ED0
2CE0
28E0
39D0
35D4
74E4
ENDCHAR
STARTCHAR uni1E46
ENCODING 7750
SWIDTH 668 0
DWIDTH 7 0
BBX 8 12 0 -3
BITMAP
1F46
7B86
9B89
DAC9
5DDC
19E8
18F8
24B4
34B4
0000
0600
0700
ENDCHAR
STARTCHAR uni1E47
ENCODING 7751
SWIDTH 505 0
DWIDTH 6 0
BBX 7 9 -1 -3
BITMAP
1ED0
2CE0
28E0
39D0
35D4
74E4
0000
0900
0A00
ENDCHAR
STARTCHAR uni1E5A
ENCODING 7770
SWIDTH 601 0
DWIDTH 7 0
BBX 7 12 0 -3
BITMAP
0AA0
2634
9B34
CE60
4FE0
1DB0
1CA0
2CE0
38E0
0000
0600
0A00
ENDCHAR
STARTCHAR uni1E5B
ENCODING 7771
SWIDTH 376 0
DWIDTH 4 0
BBX 5 9 -1 -3
BITMAP
1EC0
2D80
2C00
3800
3400
7400
0000
6000
7000
ENDCHAR
STARTCHAR uni1E60
ENCODING 7776
SWIDTH 570 0
DWIDTH 6 0
BBX 6 12 0 0
BITMAP
0090
00D0
0000
0790
1D30
1D60
0F00
07C0
25D0
A0E0
A1D0
2B40
ENDCHAR
STARTCHAR uni1E61
ENCODING 7777
SWIDTH 382 0
DWIDTH 4 0
BBX 6 9 -1 0
BITMAP
0340
0240
0000
0B40
0B40
1740
2740
6790
2E00
ENDCHAR
STARTCHAR uni1E62
ENCODING 7778
SWIDTH 570 0
DWIDTH 6 0
BBX 6 12 0 -3
BITMAP
0790
1D30
1D60
0F00
07C0
25D0
A0E0
A1D0
2B40
0000
1800
1C00
ENDCHAR
STARTCHAR uni1E63
ENCODING 7779
SWIDTH 382 0
DWIDTH 4 0
BBX 6 9 -1 -3
BITMAP
0B40
0B40
1740
2740
7790
2E00
0000
2400
3400
ENDCHAR
STARTCHAR uni1E6C
ENCODING 7788
SWIDTH 481 0
DWIDTH 5 0
BBX 8 12 0 -3
BITMAP
1BD1
63E9
D380
C740
4740
0B00
0A00
0E00
1D00
0000
1800
1C00
ENDCHAR
STARTCHAR uni1E6D
ENCODING 7789
SWIDTH 267 0
DWIDTH 3 0
BBX 4 11 -1 -3
BITMAP
09
0D
2E
2C
2C
38
39
2D
00
60
70
ENDCHAR
STARTCHAR Wgrave
ENCODING 7808
SWIDTH 962 0
DWIDTH 11 0
BBX 12 12 0 0
BITMAP
000600
000600
000000
1B4749
674B48
974F58
C75B60
076760
076750
039780
03C780
038740
ENDCHAR
STARTCHAR wgrave
ENCODING 7809
SWIDTH 661 0
DWIDTH 7 0
BBX 7 9 0 0
BITMAP
0300
0240
0000
76C8
B288
B388
E758
EB64
B7D0
ENDCHAR
STARTCHAR Wacute
ENCODING 7810
SWIDTH 962 0
DWIDTH 11 0
BBX 12 12 0 0
BITMAP
0000C0
000180
000100
1B4749
674B48
974F58
C75B60
076760
076750
039780
03C780
038740
ENDCHAR
STARTCHAR wacute
ENCODING 7811
SWIDTH 661 0
DWIDTH 7 0
BBX 7 9 0 0
BITMAP
00A0
00C0
0040
76C8
B288
B388
E758
EB64
B7D0
ENDCHAR
STARTCHAR Wdieresis
ENCODING 7812
SWIDTH 962 0
DWIDTH 11 0
BBX 12 11 0 0
BITMAP
000CC0
000000
1B4749
674B48
974F58
C75B60
076760
076750
039780
03C780
038740
ENDCHAR
STARTCHAR wdieresis
ENCODING 7813
SWIDTH 661 0
DWIDTH 7 0
BBX 7 8 0 0
BITMAP
0660
0000
76C8
B288
B388
E758
EB64
B7D0
ENDCHAR
STARTCHAR uni1E8E
ENCODING 7822
SWIDTH 620 0
DWIDTH 7 0
BBX 8 12 0 0
BITMAP
0024
0034
0000
1B45
6788
93C8
C2E4
01E0
01E0
01D0
02C0
03C0
ENDCHAR
STARTCHAR uni1E8F
ENCODING 7823
SWIDTH 505 0
DWIDTH 6 0
BBX 6 12 0 -3
BITMAP
0700
0600
0000
76C0
B380
B380
E740
EB50
BF80
2E00
5E00
7800
ENDCHAR
STARTCHAR uni1E92
ENCODING 7826
SWIDTH 542 0
DWIDTH 6 0
BBX 6 15 0 -3
BITMAP
0010
0090
0040
2AF0
31D0
03C0
0740
0B00
1E00
2C00
7890
BE80
0000
1800
1C00
ENDCHAR
STARTCHAR uni1E93
ENCODING 7827
SWIDTH 428 0
DWIDTH 5 0
BBX 5 9 0 -3
BITMAP
2B40
5B00
0D00
2C00
7600
BA00
0000
6000
7000
ENDCHAR
STARTCHAR uni1E97
ENCODING 7831
SWIDTH 267 0
DWIDTH 3 0
BBX 4 9 0 0
BITMAP
66
14
34
B8
B0
B0
E0
E4
B4
ENDCHAR
STARTCHAR uni1E9E
ENCODING 7838
SWIDTH 559 0
DWIDTH 6 0
BBX 8 12 -1 -3
BITMAP
02FD
072C
0A74
0EB0
1DA0
1C74
2C34
2874
3AD0
7400
7000
5000
ENDCHAR
STARTCHAR uni1EA0
ENCODING 7840
SWIDTH 668 0
DWIDTH 7 0
BBX 8 12 0 -3
BITMAP
001D
007D
01DC
025C
6B68
9938
1C34
2874
34B0
3400
1580
0280
ENDCHAR
STARTCHAR uni1EA1
ENCODING 7841
SWIDTH 526 0
DWIDTH 6 0
BBX 6 9 0 -3
BITMAP
2ED0
76C0
E280
E380
E790
B6D0
0000
2400
2800
ENDCHAR
STARTCHAR uni1EA2
ENCODING 7842
SWIDTH 668 0
DWIDTH 7 0
BBX 8 14 0 -2
BITMAP
000A
0002
0004
002D
009D
025C
6B6C
9938
5C38
2C74
2874
34B0
3400
1000
ENDCHAR
STARTCHAR uni1EA3
ENCODING 7843
SWIDTH 526 0
DWIDTH 6 0
BBX 6 9 0 0
BITMAP
0280
0140
0000
2ED0
76C0
E280
E380
E790
B6D0
ENDCHAR
STARTCHAR uni1EA4
ENCODING 7844
SWIDTH 668 0
DWIDTH 7 0
BBX 10 14 0 -2
BITMAP
000050
000680
000500
002D00
009D00
025C00
6B6C00
993800
5C3800
2C7400
287400
34B000
340000
100000
ENDCHAR
STARTCHAR uni1EA5
ENCODING 7845
SWIDTH 526 0
DWIDTH 6 0
BBX 7 11 0 0
BITMAP
0014
0020
0150
0580
0000
2ED0
76C0
E280
E380
E790
B6D0
ENDCHAR
STARTCHAR uni1EA6
ENCODING 7846
SWIDTH 668 0
DWIDTH 7 0
BBX 9 14 0 -2
BITMAP
000080
000A40
001500
002D00
009D00
025C00
6B6C00
993800
5C3800
2C7400
287400
34B000
340000
100000
ENDCHAR
STARTCHAR uni1EA7
ENCODING 7847
SWIDTH 526 0
DWIDTH 6 0
BBX 6 10 0 0
BITMAP
0020
0160
0680
0000
2ED0
76C0
E280
E380
E790
B6D0
ENDCHAR
STARTCHAR uni1EA8
ENCODING 7848
SWIDTH 668 0
DWIDTH 7 0
BBX 10 14 0 -2
BITMAP
000090
000690
000500
002D00
009D00
025C00
6B6C00
993800
5C3800
2C7400
287400
34B000
340000
100000
ENDCHAR
STARTCHAR uni1EA9
ENCODING 7849
SWIDTH 526 0
DWIDTH 6 0
BBX 6 10 0 0
BITMAP
0020
0160
0580
0000
2ED0
76C0
E280
E380
E790
B6D0
ENDCHAR
STARTCHAR uni1EAA
ENCODING 7850
SWIDTH 668 0
DWIDTH 7 0
BBX 9 14 0 -2
BITMAP
000B40
000600
001100
002D00
009D00
025C00
6B6C00
993800
5C3800
2C7400
287400
34B000
340000
100000
ENDCHAR
STARTCHAR uni1EAB
ENCODING 7851
SWIDTH 526 0
DWIDTH 6 0
BBX 6 10 0 0
BITMAP
0190
0140
0580
0000
2ED0
76C0
E280
E380
E790
B6D0
ENDCHAR
STARTCHAR uni1EAC
ENCODING 7852
SWIDTH 668 0
DWIDTH 7 0
BBX 8 15 0 -3
BITMAP
0001
000B
0010
001D
007D
01DC
025C
6B68
9938
1C34
2874
34B0
3400
1580
0280
ENDCHAR
STARTCHAR uni1EAD
ENCODING 7853
SWIDTH 526 0
DWIDTH 6 0
BBX 6 12 0 -3
BITMAP
0140
0680
0000
2ED0
76C0
E280
E380
E790
B6D0
0000
2400
2800
ENDCHAR
STARTCHAR uni1EAE
ENCODING 7854
SWIDTH 668 0
DWIDTH 7 0
BBX 9 14 0 -2
BITMAP
000200
001640
000A00
002D00
009D00
025C00
6B6C00
993800
5C3800
2C7400
287400
34B000
340000
100000
ENDCHAR
STARTCHAR uni1EAF
ENCODING 7855
SWIDTH 526 0
DWIDTH 6 0
BBX 6 10 0 0
BITMAP
0080
0240
0A80
0000
2ED0
76C0
E280
E380
E790
B6D0
ENDCHAR
STARTCHAR uni1EB0
ENCODING 7856
SWIDTH 668 0
DWIDTH 7 0
BBX 9 14 0 -2
BITMAP
000900
001540
000A00
002D00
009D00
025C00
6B6C00
993800
5C3800
2C7400
287400
34B000
340000
100000
ENDCHAR
STARTCHAR uni1EB1
ENCODING 7857
SWIDTH 526 0
DWIDTH 6 0
BBX 6 10 0 0
BITMAP
0200
0200
0A80
0000
2ED0
76C0
E280
E380
E790
B6D0
ENDCHAR
STARTCHAR uni1EB2
ENCODING 7858
SWIDTH 668 0
DWIDTH 7 0
BBX 9 14 0 -2
BITMAP
000600
001640
001A40
002D00
009D00
025C00
6B6C00
993800
5C3800
2C7400
287400
34B000
340000
100000
ENDCHAR
STARTCHAR uni1EB3
ENCODING 7859
SWIDTH 526 0
DWIDTH 6 0
BBX 6 10 0 0
BITMAP
0240
0240
0A80
0000
2ED0
76C0
E280
E380
E790
B6D0
ENDCHAR
STARTCHAR uni1EB4
ENCODING 7860
SWIDTH 668 0
DWIDTH 7 0
BBX 9 14 0 -2
BITMAP
000A40
001440
000A00
002D00
009D00
025C00
6B6C00
993800
5C3800
2C7400
287400
34B000
340000
100000
ENDCHAR
STARTCHAR uni1EB5
ENCODING 7861
SWIDTH 526 0
DWIDTH 6 0
BBX 6 10 0 0
BITMAP
0280
0000
0A80
0000
2ED0
76C0
E280
E380
E790
B6D0
ENDCHAR
STARTCHAR uni1EB6
ENCODING 7862
SWIDTH 668 0
DWIDTH 7 0
BBX 9 14 0 -3
BITMAP
002080
001A40
001D00
007D00
01DC00
025C00
6B6800
993800
1C3400
287400
34B000
340000
158000
028000
ENDCHAR
STARTCHAR uni1EB7
ENCODING 7863
SWIDTH 526 0
DWIDTH 6 0
BBX 6 12 0 -3
BITMAP
1860
0C90
0640
2ED0
76C0
E280
E380
E790
B6D0
0000
2400
2800
ENDCHAR
STARTCHAR uni1EB8
ENCODING 7864
SWIDTH 459 0
DWIDTH 5 0
BBX 6 12 0 -3
BITMAP
0780
1C50
2C80
1C00
2D00
7400
B000
F040
7E00
0000
2400
3400
ENDCHAR
STARTCHAR uni1EB9
ENCODING 7865
SWIDTH 384 0
DWIDTH 4 0
BBX 5 9 0 -3
BITMAP
2E00
7700
E600
F800
E140
B900
0000
6000
A000
ENDCHAR
STARTCHAR uni1EBA
ENCODING 7866
SWIDTH 459 0
DWIDTH 5 0
BBX 6 12 0 0
BITMAP
0190
0140
0000
0780
1C50
2C80
1C00
2D00
7400
B000
F040
7E00
ENDCHAR
STARTCHAR uni1EBB
ENCODING 7867
SWIDTH 384 0
DWIDTH 4 0
BBX 5 9 0 0
BITMAP
0A00
0500
0000
2E00
7700
E600
F800
E140
B900
ENDCHAR
STARTCHAR uni1EBC
ENCODING 7868
SWIDTH 459 0
DWIDTH 5 0
BBX 7 11 0 0
BITMAP
01F4
0000
0780
1C50
2C80
1C00
2D00
7400
B000
F040
7E00
ENDCHAR
STARTCHAR uni1EBD
ENCODING 7869
SWIDTH 384 0
DWIDTH 4 0
BBX 5 8 0 0
BITMAP
2E40
0100
2E00
7700
E600
F800
E140
B900
ENDCHAR
STARTCHAR uni1EBE
ENCODING 7870
SWIDTH 459 0
DWIDTH 5 0
BBX 7 12 0 0
BITMAP
0054
0290
0000
0780
1C50
2C80
1C00
2D00
7400
B000
F040
7E00
ENDCHAR
STARTCHAR uni1EBF
ENCODING 7871
SWIDTH 384 0
DWIDTH 4 0
BBX 6 11 0 0
BITMAP
0010
0060
0240
0A00
0000
2E00
7700
E600
F800
E140
B900
ENDCHAR
STARTCHAR uni1EC0
ENCODING 7872
SWIDTH 459 0
DWIDTH 5 0
BBX 6 12 0 0
BITMAP
0020
0190
0100
0780
1C50
2C80
1C00
2D00
7400
B000
F040
7E00
ENDCHAR
STARTCHAR uni1EC1
ENCODING 7873
SWIDTH 384 0
DWIDTH 4 0
BBX 6 10 0 0
BITMAP
0080
0250
0A00
0000
2E00
7700
E600
F800
E140
B900
ENDCHAR
STARTCHAR uni1EC2
ENCODING 7874
SWIDTH 459 0
DWIDTH 5 0
BBX 7 12 0 0
BITMAP
0018
01D8
0110
0780
1C50
2C80
1C00
2D00
7400
B000
F040
7E00
ENDCHAR
STARTCHAR uni1EC3
ENCODING 7875
SWIDTH 384 0
DWIDTH 4 0
BBX 6 10 0 0
BITMAP
0090
0290
0A00
0000
2E00
7700
E600
F800
E140
B900
ENDCHAR
STARTCHAR uni1EC4
ENCODING 7876
SWIDTH 459 0
DWIDTH 5 0
BBX 6 12 0 0
BITMAP
01D0
0180
0000
0780
1C50
2C80
1C00
2D00
7400
B000
F040
7E00
ENDCHAR
STARTCHAR uni1EC5
ENCODING 7877
SWIDTH 384 0
DWIDTH 4 0
BBX 5 10 0 0
BITMAP
0640
0200
0A00
0000
2E00
7700
E600
F800
E140
B900
ENDCHAR
STARTCHAR uni1EC6
ENCODING 7878
SWIDTH 459 0
DWIDTH 5 0
BBX 6 15 0 -3
BITMAP
0040
02C0
0410
0780
1C50
2C80
1C00
2D00
7400
B000
F040
7E00
0000
2400
3400
ENDCHAR
STARTCHAR uni1EC7
ENCODING 7879
SWIDTH 384 0
DWIDTH 4 0
BBX 5 12 0 -3
BITMAP
0200
0A00
1000
2E00
7700
E600
F800
E140
B900
0000
6000
A000
ENDCHAR
STARTCHAR uni1EC8
ENCODING 7880
SWIDTH 375 0
DWIDTH 4 0
BBX 5 12 0 0
BITMAP
0280
0080
0100
1B40
7B00
9B00
CE00
0D00
1D00
1C00
2C00
3800
ENDCHAR
STARTCHAR uni1EC9
ENCODING 7881
SWIDTH 267 0
DWIDTH 3 0
BBX 3 9 0 0
BITMAP
28
14
00
74
B0
B0
E0
E4
B4
ENDCHAR
STARTCHAR uni1ECA
ENCODING 7882
SWIDTH 375 0
DWIDTH 4 0
BBX 5 12 0 -3
BITMAP
1B40
7B00
9B00
CE00
0D00
1D00
1C00
2C00
3800
0000
2400
7400
ENDCHAR
STARTCHAR uni1ECB
ENCODING 7883
SWIDTH 267 0
DWIDTH 3 0
BBX 4 11 -1 -3
BITMAP
0A
09
1D
2C
2C
38
39
2D
00
60
70
ENDCHAR
STARTCHAR uni1ECC
ENCODING 7884
SWIDTH 665 0
DWIDTH 7 0
BBX 8 12 0 -3
BITMAP
0AA4
265C
9B1C
9D1D
2C1C
2C28
2834
2CA0
1F80
0000
0900
0A00
ENDCHAR
STARTCHAR uni1ECD
ENCODING 7885
SWIDTH 433 0
DWIDTH 5 0
BBX 6 9 0 -3
BITMAP
2E00
7350
E340
E300
D600
B800
0000
6000
A000
ENDCHAR
STARTCHAR uni1ECE
ENCODING 7886
SWIDTH 665 0
DWIDTH 7 0
BBX 8 12 0 0
BITMAP
0064
0014
0050
0AA4
265C
9B1C
9D1D
2C1C
2C28
2834
2CA0
1F80
ENDCHAR
STARTCHAR uni1ECF
ENCODING 7887
SWIDTH 433 0
DWIDTH 5 0
BBX 6 9 0 0
BITMAP
0640
0500
0000
2E00
7350
E340
E300
D600
B800
ENDCHAR
STARTCHAR uni1ED0
ENCODING 7888
SWIDTH 665 0
DWIDTH 7 0
BBX 8 12 0 0
BITMAP
0015
0064
0040
0AA4
265C
9B1C
9D1D
2C1C
2C28
2834
2CA0
1F80
ENDCHAR
STARTCHAR uni1ED1
ENCODING 7889
SWIDTH 433 0
DWIDTH 5 0
BBX 6 11 0 0
BITMAP
0010
0060
0240
0A00
0000
2E00
7350
E340
E300
D600
B800
ENDCHAR
STARTCHAR uni1ED2
ENCODING 7890
SWIDTH 665 0
DWIDTH 7 0
BBX 8 12 0 0
BITMAP
0008
0064
0040
0AA4
265C
9B1C
9D1D
2C1C
2C28
2834
2CA0
1F80
ENDCHAR
STARTCHAR uni1ED3
ENCODING 7891
SWIDTH 433 0
DWIDTH 5 0
BBX 6 10 0 0
BITMAP
0080
0250
0A00
0000
2E00
7350
E340
E300
D600
B800
ENDCHAR
STARTCHAR uni1ED4
ENCODING 7892
SWIDTH 665 0
DWIDTH 7 0
BBX 8 12 0 0
BITMAP
0005
0075
0054
0AA4
265C
9B1C
9D1D
2C1C
2C28
2834
2CA0
1F80
ENDCHAR
STARTCHAR uni1ED5
ENCODING 7893
SWIDTH 433 0
DWIDTH 5 0
BBX 6 10 0 0
BITMAP
0090
0290
0A00
0000
2E00
7350
E340
E300
D600
B800
ENDCHAR
STARTCHAR uni1ED6
ENCODING 7894
SWIDTH 665 0
DWIDTH 7 0
BBX 8 12 0 0
BITMAP
00B4
0060
0040
0AA4
265C
9B1C
9D1D
2C1C
2C28
2834
2CA0
1F80
ENDCHAR
STARTCHAR uni1ED7
ENCODING 7895
SWIDTH 433 0
DWIDTH 5 0
BBX 6 10 0 0
BITMAP
0540
0200
0A00
0000
2E00
7350
E340
E300
D600
B800
ENDCHAR
STARTCHAR uni1ED8
ENCODING 7896
SWIDTH 665 0
DWIDTH 7 0
BBX 8 15 0 -3
BITMAP
0010
00A0
0110
0AA4
265C
9B1C
9D1D
2C1C
2C28
2834
2CA0
1F80
0000
0900
0A00
ENDCHAR
STARTCHAR uni1ED9
ENCODING 7897
SWIDTH 433 0
DWIDTH 5 0
BBX 6 12 0 -3
BITMAP
0600
1A00
1000
2E00
7350
E340
E300
D600
B800
0000
6000
A000
ENDCHAR
STARTCHAR uni1EDA
ENCODING 7898
SWIDTH 665 0
DWIDTH 7 0
BBX 8 12 0 0
BITMAP
0024
0061
0043
0AA9
265C
9B1C
9D1D
2C1C
2C2C
2834
2CA0
1F80
ENDCHAR
STARTCHAR uni1EDB
ENCODING 7899
SWIDTH 439 0
DWIDTH 5 0
BBX 6 9 0 0
BITMAP
0240
0650
0490
2E80
7640
E240
E300
E600
B800
ENDCHAR
STARTCHAR uni1EDC
ENCODING 7900
SWIDTH 665 0
DWIDTH 7 0
BBX 8 12 0 0
BITMAP
0280
0182
0003
0AA9
265C
9B1C
9D1D
2C1C
2C2C
2834
2CA0
1F80
ENDCHAR
STARTCHAR uni1EDD
ENCODING 7901
SWIDTH 439 0
DWIDTH 5 0
BBX 6 9 0 0
BITMAP
0D00
0950
0090
2E80
7640
E240
E300
E600
B800
ENDCHAR
STARTCHAR uni1EDE
ENCODING 7902
SWIDTH 665 0
DWIDTH 7 0
BBX 8 12 0 0
BITMAP
0064
0014
0052
0AA6
265C
9B1C
9D1D
2C1C
2C2C
2834
2CA0
1F80
ENDCHAR
STARTCHAR uni1EDF
ENCODING 7903
SWIDTH 439 0
DWIDTH 5 0
BBX 6 9 0 0
BITMAP
0640
0590
0090
2E80
7640
E240
E300
E600
B800
ENDCHAR
STARTCHAR uni1EE0
ENCODING 7904
SWIDTH 665 0
DWIDTH 7 0
BBX 8 11 0 0
BITMAP
02E5
0053
0AA9
265C
9B1C
9D1D
2C1C
2C2C
2834
2CA0
1F80
ENDCHAR
STARTCHAR uni1EE1
ENCODING 7905
SWIDTH 439 0
DWIDTH 5 0
BBX 6 8 0 0
BITMAP
2E50
0490
2E80
7640
E240
E300
E600
B800
ENDCHAR
STARTCHAR uni1EE2
ENCODING 7906
SWIDTH 665 0
DWIDTH 7 0
BBX 8 13 0 -3
BITMAP
0003
0AA6
265C
9B1C
9D1D
2C1C
2C2C
2834
2CA0
1F80
0000
0900
0A00
ENDCHAR
STARTCHAR uni1EE3
ENCODING 7907
SWIDTH 439 0
DWIDTH 5 0
BBX 6 11 0 -3
BITMAP
0040
0090
2E80
7640
E240
E300
E600
B800
0000
6000
A000
ENDCHAR
STARTCHAR uni1EE4
ENCODING 7908
SWIDTH 716 0
DWIDTH 8 0
BBX 9 12 0 -3
BITMAP
1B4740
674B00
C70A00
CA0E00
0E0D00
0D1D00
1D2C00
1D7400
0BE000
000000
060000
070000
ENDCHAR
STARTCHAR uni1EE5
ENCODING 7909
SWIDTH 505 0
DWIDTH 6 0
BBX 6 9 0 -3
BITMAP
76C0
B280
B380
E740
EB60
B780
0000
2400
3400
ENDCHAR
STARTCHAR uni1EE6
ENCODING 7910
SWIDTH 716 0
DWIDTH 8 0
BBX 9 12 0 0
BITMAP
002800
000800
001400
1B4740
674B00
C70A00
CA0E00
0E0D00
0D1D00
1D2C00
1D7400
0BE000
ENDCHAR
STARTCHAR uni1EE7
ENCODING 7911
SWIDTH 505 0
DWIDTH 6 0
BBX 6 9 0 0
BITMAP
0A00
0500
0000
76C0
B280
B380
E740
EB60
B780
ENDCHAR
STARTCHAR uni1EE8
ENCODING 7912
SWIDTH 716 0
DWIDTH 8 0
BBX 10 12 0 0
BITMAP
000900
000850
001490
1B4780
674B00
C70B00
CA0E00
0E0D00
0D1D00
1D2C00
1D7400
0BE000
ENDCHAR
STARTCHAR uni1EE9
ENCODING 7913
SWIDTH 505 0
DWIDTH 6 0
BBX 6 9 0 0
BITMAP
0240
0330
0020
76C0
B280
B380
E740
EB60
B780
ENDCHAR
STARTCHAR uni1EEA
ENCODING 7914
SWIDTH 716 0
DWIDTH 8 0
BBX 10 12 0 0
BITMAP
006000
002060
000090
1B4740
674B00
C70A00
CA0E00
0E0D00
0D1D00
1D2C00
1D7400
0BE000
ENDCHAR
STARTCHAR uni1EEB
ENCODING 7915
SWIDTH 505 0
DWIDTH 6 0
BBX 6 9 0 0
BITMAP
0900
0930
0020
76C0
B280
B380
E740
EB60
B780
ENDCHAR
STARTCHAR uni1EEC
ENCODING 7916
SWIDTH 716 0
DWIDTH 8 0
BBX 10 12 0 0
BITMAP
002800
000850
001490
1B4780
674B00
C70B00
CA0E00
0E0D00
0D1D00
1D2C00
1D7400
0BE000
ENDCHAR
STARTCHAR uni1EED
ENCODING 7917
SWIDTH 505 0
DWIDTH 6 0
BBX 6 9 0 0
BITMAP
0A00
0530
0020
76C0
B280
B380
E740
EB60
B780
ENDCHAR
STARTCHAR uni1EEE
ENCODING 7918
SWIDTH 716 0
DWIDTH 8 0
BBX 10 11 0 0
BITMAP
00B950
001490
1B4780
674B00
C70B00
CA0E00
0E0D00
0D1D00
1D2C00
1D7400
0BE000
ENDCHAR
STARTCHAR uni1EEF
ENCODING 7919
SWIDTH 505 0
DWIDTH 6 0
BBX 6 8 0 0
BITMAP
1E60
0020
76C0
B280
B380
E740
EB60
B780
ENDCHAR
STARTCHAR uni1EF0
ENCODING 7920
SWIDTH 716 0
DWIDTH 8 0
BBX 10 14 0 -3
BITMAP
000050
000090
1B47C0
674B00
C70B00
CA0E00
0E0D00
0D1D00
1D2C00
1D7400
0BE000
000000
060000
070000
ENDCHAR
STARTCHAR uni1EF1
ENCODING 7921
SWIDTH 505 0
DWIDTH 6 0
BBX 6 11 0 -3
BITMAP
0010
0030
76D0
B280
B380
E740
EB60
B780
0000
2400
3400
ENDCHAR
STARTCHAR Ygrave
ENCODING 7922
SWIDTH 620 0
DWIDTH 7 0
BBX 8 12 0 0
BITMAP
0070
0030
0000
1B45
6788
93C8
C2E4
01E0
01E0
01D0
02C0
03C0
ENDCHAR
STARTCHAR ygrave
ENCODING 7923
SWIDTH 505 0
DWIDTH 6 0
BBX 6 12 0 -3
BITMAP
0D00
0900
0000
76C0
B380
B380
E740
EB50
BF80
2E00
5E00
7800
ENDCHAR
STARTCHAR uni1EF4
ENCODING 7924
SWIDTH 620 0
DWIDTH 7 0
BBX 8 12 0 -3
BITMAP
1B45
6788
93C8
C2E4
01E0
01E0
01D0
02C0
03C0
0000
0240
0340
ENDCHAR
STARTCHAR uni1EF5
ENCODING 7925
SWIDTH 505 0
DWIDTH 6 0
BBX 6 9 0 -3
BITMAP
76C0
B380
B380
E740
EB50
BF80
2E00
5E40
79C0
ENDCHAR
STARTCHAR uni1EF6
ENCODING 7926
SWIDTH 620 0
DWIDTH 7 0
BBX 8 12 0 0
BITMAP
0028
0008
0014
1B45
6788
93C8
C2E4
01E0
01E0
01D0
02C0
03C0
ENDCHAR
STARTCHAR uni1EF7
ENCODING 7927
SWIDTH 505 0
DWIDTH 6 0
BBX 6 12 0 -3
BITMAP
0A00
0500
0000
76C0
B380
B380
E740
EB50
BF80
2E00
5E00
7800
ENDCHAR
STARTCHAR uni1EF8
ENCODING 7928
SWIDTH 620 0
DWIDTH 7 0
BBX 8 11 0 0
BITMAP
00B9
0014
1B45
6788
93C8
C2E4
01E0
01E0
01D0
02C0
03C0
ENDCHAR
STARTCHAR uni1EF9
ENCODING 7929
SWIDTH 505 0
DWIDTH 6 0
BBX 6 11 0 -3
BITMAP
1F80
0100
76C0
B380
B380
E740
EB50
BF80
2E00
5E00
7800
ENDCHAR
STARTCHAR uni2010
ENCODING 8208
SWIDTH 290 0
DWIDTH 3 0
BBX 3 1 0 3
BITMAP
A4
ENDCHAR
STARTCHAR endash
ENCODING 8211
SWIDTH 352 0
DWIDTH 4 0
BBX 3 1 0 3
BITMAP
A8
ENDCHAR
STARTCHAR emdash
ENCODING 8212
SWIDTH 444 0
DWIDTH 5 0
BBX 4 1 0 3
BITMAP
AA
ENDCHAR
STARTCHAR quoteleft
ENCODING 8216
SWIDTH 209 0
DWIDTH 2 0
BBX 2 3 1 6
BITMAP
10
90
90
ENDCHAR
STARTCHAR quoteright
ENCODING 8217
SWIDTH 238 0
DWIDTH 3 0
BBX 2 3 1 6
BITMAP
90
90
40
ENDCHAR
STARTCHAR quotesinglbase
ENCODING 8218
SWIDTH 220 0
DWIDTH 2 0
BBX 2 3 0 -1
BITMAP
D0
90
40
ENDCHAR
STARTCHAR quotedblleft
ENCODING 8220
SWIDTH 429 0
DWIDTH 5 0
BBX 4 3 1 6
BITMAP
11
99
99
ENDCHAR
STARTCHAR quotedblright
ENCODING 8221
SWIDTH 426 0
DWIDTH 5 0
BBX 4 3 1 6
BITMAP
A6
56
44
ENDCHAR
STARTCHAR quotedblbase
ENCODING 8222
SWIDTH 440 0
DWIDTH 5 0
BBX 4 3 0 -1
BITMAP
D9
99
44
ENDCHAR
STARTCHAR dagger
ENCODING 8224
SWIDTH 495 0
DWIDTH 5 0
BBX 4 12 1 -3
BITMAP
08
08
08
18
FF
65
20
20
60
50
80
80
ENDCHAR
STARTCHAR daggerdbl
ENCODING 8225
SWIDTH 495 0
DWIDTH 5 0
BBX 5 12 0 -3
BITMAP
0200
0200
0200
0600
3FC0
1940
0800
6E40
1800
1400
2000
2000
ENDCHAR
STARTCHAR bullet
ENCODING 8226
SWIDTH 434 0
DWIDTH 5 0
BBX 3 2 1 2
BITMAP
B4
74
ENDCHAR
STARTCHAR ellipsis
ENCODING 8230
SWIDTH 702 0
DWIDTH 8 0
BBX 8 2 0 0
BITMAP
6248
735D
ENDCHAR
STARTCHAR perthousand
ENCODING 8240
SWIDTH 1175 0
DWIDTH 13 0
BBX 13 9 0 0
BITMAP
1A080000
33140000
63200000
63500000
668B4B40
29599980
0225A580
05266640
081E1E00
ENDCHAR
STARTCHAR minute
ENCODING 8242
SWIDTH 196 0
DWIDTH 2 0
BBX 2 3 1 6
BITMAP
90
80
80
ENDCHAR
STARTCHAR second
ENCODING 8243
SWIDTH 341 0
DWIDTH 4 0
BBX 3 3 1 6
BITMAP
AC
98
A4
ENDCHAR
STARTCHAR guilsinglleft
ENCODING 8249
SWIDTH 359 0
DWIDTH 4 0
BBX 4 4 0 1
BITMAP
05
64
50
18
ENDCHAR
STARTCHAR guilsinglright
ENCODING 8250
SWIDTH 344 0
DWIDTH 4 0
BBX 4 4 0 1
BITMAP
20
19
09
50
ENDCHAR
STARTCHAR fraction
ENCODING 8260
SWIDTH 248 0
DWIDTH 3 0
BBX 5 9 -1 0
BITMAP
0080
0180
0200
0500
0800
1400
2000
5000
8000
ENDCHAR
STARTCHAR uni2052
ENCODING 8274
SWIDTH 796 0
DWIDTH 9 0
BBX 6 9 1 0
BITMAP
7420
6050
0080
0140
0200
0500
0800
1460
2070
ENDCHAR
STARTCHAR uni2070
ENCODING 8304
SWIDTH 379 0
DWIDTH 4 0
BBX 4 6 0 3
BITMAP
1A
33
63
63
66
28
ENDCHAR
STARTCHAR uni2074
ENCODING 8308
SWIDTH 352 0
DWIDTH 4 0
BBX 4 5 0 4
BITMAP
26
29
6D
0C
0C
ENDCHAR
STARTCHAR uni2075
ENCODING 8309
SWIDTH 335 0
DWIDTH 4 0
BBX 4 6 0 3
BITMAP
29
20
28
69
59
28
ENDCHAR
STARTCHAR uni2076
ENCODING 8310
SWIDTH 351 0
DWIDTH 4 0
BBX 4 6 0 3
BITMAP
1A
31
69
66
65
28
ENDCHAR
STARTCHAR uni2077
ENCODING 8311
SWIDTH 329 0
DWIDTH 4 0
BBX 4 5 0 4
BITMAP
6D
08
20
60
10
ENDCHAR
STARTCHAR uni2078
ENCODING 8312
SWIDTH 354 0
DWIDTH 4 0
BBX 4 6 0 3
BITMAP
1D
26
1C
29
56
28
ENDCHAR
STARTCHAR uni2079
ENCODING 8313
SWIDTH 345 0
DWIDTH 4 0
BBX 4 6 0 3
BITMAP
2D
66
56
29
48
14
ENDCHAR
STARTCHAR uni2080
ENCODING 8320
SWIDTH 379 0
DWIDTH 4 0
BBX 4 5 0 0
BITMAP
1A
33
63
66
38
ENDCHAR
STARTCHAR uni2081
ENCODING 8321
SWIDTH 229 0
DWIDTH 3 0
BBX 3 5 0 0
BITMAP
74
30
30
60
60
ENDCHAR
STARTCHAR uni2082
ENCODING 8322
SWIDTH 328 0
DWIDTH 4 0
BBX 4 5 0 0
BITMAP
2D
29
08
20
78
ENDCHAR
STARTCHAR uni2083
ENCODING 8323
SWIDTH 336 0
DWIDTH 4 0
BBX 4 5 0 0
BITMAP
2D
25
08
59
68
ENDCHAR
STARTCHAR uni2084
ENCODING 8324
SWIDTH 352 0
DWIDTH 4 0
BBX 4 5 0 0
BITMAP
26
29
6D
0C
0C
ENDCHAR
STARTCHAR uni2085
ENCODING 8325
SWIDTH 335 0
DWIDTH 4 0
BBX 4 5 0 0
BITMAP
29
20
29
69
68
ENDCHAR
STARTCHAR uni2086
ENCODING 8326
SWIDTH 351 0
DWIDTH 4 0
BBX 4 5 0 0
BITMAP
1A
31
69
66
38
ENDCHAR
STARTCHAR uni2087
ENCODING 8327
SWIDTH 329 0
DWIDTH 4 0
BBX 4 5 0 0
BITMAP
6D
08
24
60
60
ENDCHAR
STARTCHAR uni2088
ENCODING 8328
SWIDTH 354 0
DWIDTH 4 0
BBX 4 5 0 0
BITMAP
1E
26
2C
56
69
ENDCHAR
STARTCHAR uni2089
ENCODING 8329
SWIDTH 345 0
DWIDTH 4 0
BBX 4 5 0 0
BITMAP
29
66
2A
09
58
ENDCHAR
STARTCHAR colonmonetary
ENCODING 8353
SWIDTH 384 0
DWIDTH 4 0
BBX 5 9 0 -1
BITMAP
0900
0A40
3140
A000
D000
A000
7D00
5800
0400
ENDCHAR
STARTCHAR franc
ENCODING 8355
SWIDTH 529 0
DWIDTH 6 0
BBX 7 9 0 0
BITMAP
0BA4
0B00
0B00
0E00
1F80
1D00
BE40
2C00
3800
ENDCHAR
STARTCHAR lira
ENCODING 8356
SWIDTH 455 0
DWIDTH 5 0
BBX 6 9 0 0
BITMAP
06D0
0E50
1D00
7E40
2C00
BE40
3800
7450
BBD0
ENDCHAR
STARTCHAR uni20A6
ENCODING 8358
SWIDTH 723 0
DWIDTH 8 0
BBX 9 9 0 0
BITMAP
074700
078600
0B8900
0FC900
6EEE40
AEFE40
28F800
24B400
30B000
ENDCHAR
STARTCHAR uni20A9
ENCODING 8361
SWIDTH 841 0
DWIDTH 9 0
BBX 10 9 0 0
BITMAP
2C2C20
2C3C20
1C7C50
1CAC80
6EFEA0
BFBFA0
1E2E00
1E2D00
1D1D00
ENDCHAR
STARTCHAR Euro
ENCODING 8364
SWIDTH 507 0
DWIDTH 6 0
BBX 7 9 0 0
BITMAP
02B4
0A24
1D10
7E90
3C00
BE80
3C00
2C00
0B80
ENDCHAR
STARTCHAR uni20AE
ENCODING 8366
SWIDTH 481 0
DWIDTH 5 0
BBX 8 9 0 0
BITMAP
1BD1
63A9
D380
C740
5BA0
6B60
6F40
0E00
0D00
ENDCHAR
STARTCHAR uni20B3
ENCODING 8371
SWIDTH 573 0
DWIDTH 6 0
BBX 7 9 0 0
BITMAP
0AA0
6634
9B24
CE34
4EA0
2E80
7E40
2C00
3800
ENDCHAR
STARTCHAR uni20B4
ENCODING 8372
SWIDTH 570 0
DWIDTH 6 0
BBX 6 9 0 0
BITMAP
0AD0
24A0
10D0
6BA0
6E90
3400
7190
7090
2E80
ENDCHAR
STARTCHAR uni20B8
ENCODING 8376
SWIDTH 522 0
DWIDTH 6 0
BBX 9 9 0 0
BITMAP
2AAA40
0A9100
72EA00
92C000
D38000
474000
074000
0B0000
0A0000
ENDCHAR
STARTCHAR uni20B9
ENCODING 8377
SWIDTH 544 0
DWIDTH 6 0
BBX 7 9 0 0
BITMAP
1AA4
2AE0
0280
0340
6E00
0740
0740
0B00
0600
ENDCHAR
STARTCHAR uni20BA
ENCODING 8378
SWIDTH 455 0
DWIDTH 5 0
BBX 6 9 0 0
BITMAP
0B00
0A00
0F40
6D40
2E40
6C60
2860
39D0
7E00
ENDCHAR
STARTCHAR uni20BD
ENCODING 8381
SWIDTH 573 0
DWIDTH 6 0
BBX 7 9 0 0
BITMAP
0AA0
6634
9B24
CE34
4EA0
6F80
BE00
2C00
3800
ENDCHAR
STARTCHAR uni2116
ENCODING 8470
SWIDTH 996 0
DWIDTH 11 0
BBX 11 9 0 0
BITMAP
1F4600
6B8664
9B8998
9BCDC4
0DDCA0
18E9F4
18F800
24B400
34B400
ENDCHAR
STARTCHAR uni2120
ENCODING 8480
SWIDTH 585 0
DWIDTH 6 0
BBX 5 4 1 4
BITMAP
1140
6680
6680
5140
ENDCHAR
STARTCHAR trademark
ENCODING 8482
SWIDTH 379 0
DWIDTH 4 0
BBX 4 3 0 5
BITMAP
55
4A
5A
ENDCHAR
STARTCHAR uni2126
ENCODING 8486
SWIDTH 745 0
DWIDTH 8 0
BBX 8 9 0 0
BITMAP
01F8
0A09
1806
2406
3006
3008
2018
1860
BCBC
ENDCHAR
STARTCHAR uni212A
ENCODING 8490
SWIDTH 601 0
DWIDTH 7 0
BBX 7 9 0 0
BITMAP
0B5C
6B24
9B50
CF80
5F90
1DB0
1CA0
2CE0
38E0
ENDCHAR
STARTCHAR uni212B
ENCODING 8491
SWIDTH 668 0
DWIDTH 7 0
BBX 8 11 0 -1
BITMAP
0005
0005
002D
009D
025C
6B6C
9938
1C34
2874
34B0
3400
ENDCHAR
STARTCHAR estimated
ENCODING 8494
SWIDTH 786 0
DWIDTH 9 0
BBX 9 8 0 0
BITMAP
06A400
280D00
780F00
BEAA40
B80000
780000
280800
06A000
ENDCHAR
STARTCHAR uni2153
ENCODING 8531
SWIDTH 733 0
DWIDTH 8 0
BBX 8 9 0 0
BITMAP
1014
7420
3090
3080
625A
5217
0909
0826
2429
ENDCHAR
STARTCHAR uni2154
ENCODING 8532
SWIDTH 852 0
DWIDTH 9 0
BBX 10 9 0 0
BITMAP
2D0600
290800
081800
202000
686280
008290
018180
0209C0
060580
ENDCHAR
STARTCHAR oneeighth
ENCODING 8539
SWIDTH 741 0
DWIDTH 8 0
BBX 8 9 0 0
BITMAP
1014
7420
3090
3080
625E
521A
091D
0826
2429
ENDCHAR
STARTCHAR threeeighths
ENCODING 8540
SWIDTH 828 0
DWIDTH 9 0
BBX 9 9 0 0
BITMAP
2D0900
250800
082400
592000
289780
008680
024740
020980
090A40
ENDCHAR
STARTCHAR fiveeighths
ENCODING 8541
SWIDTH 827 0
DWIDTH 9 0
BBX 9 9 0 0
BITMAP
290900
200800
282400
692000
599780
288A80
024740
020980
090A40
ENDCHAR
STARTCHAR seveneighths
ENCODING 8542
SWIDTH 761 0
DWIDTH 8 0
BBX 8 9 0 0
BITMAP
6D18
0820
2060
6080
114A
021A
051A
0833
142A
ENDCHAR
STARTCHAR partialdiff
ENCODING 8706
SWIDTH 597 0
DWIDTH 7 0
BBX 7 9 0 0
BITMAP
02E0
0524
0018
0014
0BA4
2430
5060
6180
2E00
ENDCHAR
STARTCHAR uni2206
ENCODING 8710
SWIDTH 619 0
DWIDTH 7 0
BBX 7 9 0 0
BITMAP
0050
01E0
0270
0630
0834
1834
3024
9028
BFF8
ENDCHAR
STARTCHAR product
ENCODING 8719
SWIDTH 661 0
DWIDTH 7 0
BBX 7 9 0 -1
BITMAP
7FFC
1850
2490
2080
3080
6180
5140
9240
4100
ENDCHAR
STARTCHAR summation
ENCODING 8721
SWIDTH 605 0
DWIDTH 7 0
BBX 7 8 0 0
BITMAP
1FF8
0D00
0600
0240
0200
0900
2400
BFD0
ENDCHAR
STARTCHAR minus
ENCODING 8722
SWIDTH 471 0
DWIDTH 5 0
BBX 5 1 0 3
BITMAP
7F40
ENDCHAR
STARTCHAR uni2215
ENCODING 8725
SWIDTH 488 0
DWIDTH 5 0
BBX 5 9 0 0
BITMAP
0040
0080
0240
0200
0900
0800
2000
6000
8000
ENDCHAR
STARTCHAR uni2219
ENCODING 8729
SWIDTH 434 0
DWIDTH 5 0
BBX 3 2 1 2
BITMAP
B4
74
ENDCHAR
STARTCHAR radical
ENCODING 8730
SWIDTH 660 0
DWIDTH 7 0
BBX 7 9 0 -1
BITMAP
00B8
00C0
0180
0240
0200
A500
3800
2800
1400
ENDCHAR
STARTCHAR infinity
ENCODING 8734
SWIDTH 833 0
DWIDTH 9 0
BBX 8 4 0 1
BITMAP
1E1E
6293
52D6
3968
ENDCHAR
STARTCHAR integral
ENCODING 8747
SWIDTH 305 0
DWIDTH 3 0
BBX 5 11 -1 -2
BITMAP
0180
0300
0600
0900
0900
0C00
1800
1800
2400
3000
9000
ENDCHAR
STARTCHAR approxequal
ENCODING 8776
SWIDTH 441 0
DWIDTH 5 0
BBX 5 4 0 1
BITMAP
2900
0280
0000
7F40
ENDCHAR
STARTCHAR notequal
ENCODING 8800
SWIDTH 500 0
DWIDTH 6 0
BBX 5 6 0 0
BITMAP
0100
0500
3FC0
1940
BF80
1500
ENDCHAR
STARTCHAR lessequal
ENCODING 8804
SWIDTH 405 0
DWIDTH 4 0
BBX 4 5 0 1
BITMAP
0A
74
19
01
BE
ENDCHAR
STARTCHAR greaterequal
ENCODING 8805
SWIDTH 405 0
DWIDTH 4 0
BBX 5 6 0 1
BITMAP
1000
1900
0740
2800
0000
BF00
ENDCHAR
STARTCHAR lozenge
ENCODING 9674
SWIDTH 619 0
DWIDTH 7 0
BBX 7 9 0 0
BITMAP
0140
02C0
0990
2430
6024
6060
3080
2640
0D00
ENDCHAR
STARTCHAR uni27E8
ENCODING 10216
SWIDTH 456 0
DWIDTH 5 0
BBX 5 11 0 -1
BITMAP
0040
0180
0200
0800
1400
2000
5000
2000
0800
0500
0200
ENDCHAR
STARTCHAR uni27E9
ENCODING 10217
SWIDTH 456 0
DWIDTH 5 0
BBX 5 11 0 -2
BITMAP
2000
1400
0800
0200
0140
0200
0500
0800
2000
9000
4000
ENDCHAR
STARTCHAR ff
ENCODING 64256
SWIDTH 508 0
DWIDTH 6 0
BBX 10 12 -3 -3
BITMAP
007AE0
00E750
00D700
01EF80
02CA00
02CE00
039D00
039D00
076C00
2F6800
6B3800
2EA000
ENDCHAR
STARTCHAR fi
ENCODING 64257
SWIDTH 534 0
DWIDTH 6 0
BBX 9 12 -3 -3
BITMAP
002A00
00A340
00D100
01EB40
02CB00
02CA00
038E00
038E40
074B40
1B0000
5B0000
2D0000
ENDCHAR
STARTCHAR fl
ENCODING 64258
SWIDTH 548 0
DWIDTH 6 0
BBX 10 12 -3 -3
BITMAP
007A40
00E380
00D380
01EB40
02C700
02CB00
038E00
038E50
074B40
1B0000
5B0000
2D0000
ENDCHAR
STARTCHAR ffi
ENCODING 64259
SWIDTH 764 0
DWIDTH 8 0
BBX 12 12 -3 -3
BITMAP
007AE4
00E76C
00DB00
01EFB8
02CE38
02DD74
039D70
036CB5
07BC78
2B3800
5B7400
2EE000
ENDCHAR
STARTCHAR ffl
ENCODING 64260
SWIDTH 780 0
DWIDTH 9 0
BBX 12 12 -3 -3
BITMAP
007AE8
00E75D
00DB2C
01EFAC
02CE38
02CD34
039D74
036C76
07BC78
2B3800
5B7400
2EE000
ENDCHAR
STARTCHAR .notdef
ENCODING -1
SWIDTH 810 0
DWIDTH 9 0
BBX 9 14 0 -3
BITMAP
025540
040040
040040
040140
046100
157100
108100
104100
114400
100400
400400
400400
401400
956000
ENDCHAR
STARTCHAR A.salt
ENCODING -1
SWIDTH 590 0
DWIDTH 6 0
BBX 7 11 0 -2
BITMAP
0078
0178
0674
0870
1EF0
34A0
70E0
A1D0
E1C0
D000
5000
ENDCHAR
STARTCHAR B.salt
ENCODING -1
SWIDTH 633 0
DWIDTH 7 0
BBX 7 9 0 0
BITMAP
1AA0
6624
DA70
8FE0
0D74
1D38
1C74
2CB0
3ED0
ENDCHAR
STARTCHAR E.salt
ENCODING -1
SWIDTH 554 0
DWIDTH 6 0
BBX 7 9 0 0
BITMAP
1BA4
5B00
9A00
DE00
1FC0
1D00
2C00
2C00
3E80
ENDCHAR
STARTCHAR N.salt
ENCODING -1
SWIDTH 669 0
DWIDTH 7 0
BBX 8 9 0 0
BITMAP
1BB8
6B1C
9E2C
DE28
1D38
1D34
2C74
2C71
3878
ENDCHAR
STARTCHAR i.loclTRK
ENCODING -1
SWIDTH 267 0
DWIDTH 3 0
BBX 3 8 0 0
BITMAP
28
24
74
B0
B0
E0
E4
B4
ENDCHAR
STARTCHAR a.end
ENCODING -1
SWIDTH 467 0
DWIDTH 5 0
BBX 6 6 0 0
BITMAP
2ED0
76C0
E280
E380
E740
BA80
ENDCHAR
STARTCHAR aacute.end
ENCODING -1
SWIDTH 461 0
DWIDTH 5 0
BBX 5 9 0 0
BITMAP
0180
0200
0100
2EC0
B2C0
E280
E380
D740
BB80
ENDCHAR
STARTCHAR c.end
ENCODING -1
SWIDTH 341 0
DWIDTH 4 0
BBX 5 6 -1 0
BITMAP
0B80
2C80
3800
3800
7400
2E00
ENDCHAR
STARTCHAR d.end
ENCODING -1
SWIDTH 476 0
DWIDTH 5 0
BBX 6 9 0 0
BITMAP
0010
00E0
01D0
2ED0
76C0
E2C0
E380
E740
BB80
ENDCHAR
STARTCHAR e.end
ENCODING -1
SWIDTH 366 0
DWIDTH 4 0
BBX 4 6 0 0
BITMAP
2E
77
E6
F8
E0
B8
ENDCHAR
STARTCHAR eacute.end
ENCODING -1
SWIDTH 367 0
DWIDTH 4 0
BBX 5 9 0 0
BITMAP
0340
0600
0400
2E00
7700
E600
F800
E000
B800
ENDCHAR
STARTCHAR uni0292.end
ENCODING -1
SWIDTH 391 0
DWIDTH 4 0
BBX 4 9 0 -3
BITMAP
6F
9D
2C
34
2C
1D
6D
9C
B4
ENDCHAR
STARTCHAR g.end
ENCODING -1
SWIDTH 480 0
DWIDTH 5 0
BBX 6 9 0 -3
BITMAP
2ED0
76C0
E280
E380
E740
BB40
1B00
5A00
2D00
ENDCHAR
STARTCHAR uni01E5.end
ENCODING -1
SWIDTH 507 0
DWIDTH 6 0
BBX 6 9 0 -3
BITMAP
2ED0
76C0
E280
E380
E740
BB40
1B00
AF40
2D00
ENDCHAR
STARTCHAR h.end
ENCODING -1
SWIDTH 453 0
DWIDTH 5 0
BBX 6 9 -1 0
BITMAP
0100
0E00
0D00
1ED0
2CE0
28E0
39D0
35D0
74E0
ENDCHAR
STARTCHAR i.end
ENCODING -1
SWIDTH 209 0
DWIDTH 2 0
BBX 3 9 0 0
BITMAP
24
28
00
74
B0
B0
E0
E0
B0
ENDCHAR
STARTCHAR iacute.end
ENCODING -1
SWIDTH 209 0
DWIDTH 2 0
BBX 3 9 0 0
BITMAP
0C
14
10
74
B0
B0
E0
E0
B0
ENDCHAR
STARTCHAR ij.end
ENCODING -1
SWIDTH 480 0
DWIDTH 5 0
BBX 6 11 0 -3
BITMAP
28D0
2490
75D0
B2C0
B280
E380
E740
B740
1B00
5E00
3D00
ENDCHAR
STARTCHAR j.end
ENCODING -1
SWIDTH 213 0
DWIDTH 2 0
BBX 6 11 -3 -3
BITMAP
00D0
0090
01D0
02C0
02C0
0380
0340
0740
2F00
5A00
2D00
ENDCHAR
STARTCHAR k.end
ENCODING -1
SWIDTH 472 0
DWIDTH 5 0
BBX 6 9 -1 0
BITMAP
0100
0E00
0D00
1D60
2D80
2FD0
38E0
35D0
74E0
ENDCHAR
STARTCHAR l.end
ENCODING -1
SWIDTH 207 0
DWIDTH 2 0
BBX 3 8 0 0
BITMAP
28
34
74
B0
B0
E0
E0
A0
ENDCHAR
STARTCHAR m.end
ENCODING -1
SWIDTH 701 0
DWIDTH 8 0
BBX 9 6 -1 0
BITMAP
1EEB40
2CE340
28E740
39D700
35CB00
76C740
ENDCHAR
STARTCHAR n.end
ENCODING -1
SWIDTH 454 0
DWIDTH 5 0
BBX 6 6 -1 0
BITMAP
1ED0
2CE0
28E0
39D0
35D0
74E0
ENDCHAR
STARTCHAR o.end
ENCODING -1
SWIDTH 487 0
DWIDTH 5 0
BBX 5 6 0 0
BITMAP
2E00
7680
E340
E300
E600
B800
ENDCHAR
STARTCHAR oacute.end
ENCODING -1
SWIDTH 487 0
DWIDTH 5 0
BBX 5 9 0 0
BITMAP
0240
0600
0400
2E00
7680
E340
E300
E600
B800
ENDCHAR
STARTCHAR s.end
ENCODING -1
SWIDTH 316 0
DWIDTH 3 0
BBX 5 6 -1 0
BITMAP
0B40
0B40
1740
2740
6740
2E00
ENDCHAR
STARTCHAR t.end
ENCODING -1
SWIDTH 276 0
DWIDTH 3 0
BBX 3 8 0 0
BITMAP
28
34
B8
70
B0
E0
E0
A0
ENDCHAR
STARTCHAR u.end
ENCODING -1
SWIDTH 459 0
DWIDTH 5 0
BBX 5 6 0 0
BITMAP
76C0
B280
B380
E740
EB40
B780
ENDCHAR
STARTCHAR uacute.end
ENCODING -1
SWIDTH 459 0
DWIDTH 5 0
BBX 5 9 0 0
BITMAP
0240
0600
0000
76C0
B280
B380
E740
EB40
B780
ENDCHAR
STARTCHAR x.end
ENCODING -1
SWIDTH 500 0
DWIDTH 6 0
BBX 6 6 0 0
BITMAP
1D50
5A90
4B40
4B00
1740
5280
ENDCHAR
STARTCHAR y.end
ENCODING -1
SWIDTH 460 0
DWIDTH 5 0
BBX 5 9 0 -3
BITMAP
76C0
B280
B380
E740
EB40
BF00
2E00
8E00
6800
ENDCHAR
STARTCHAR k.salt
ENCODING -1
SWIDTH 518 0
DWIDTH 6 0
BBX 7 9 -1 0
BITMAP
0100
0E00
0D00
1D60
2F80
2DE0
38D0
35D8
74B4
ENDCHAR
STARTCHAR p.salt
ENCODING -1
SWIDTH 482 0
DWIDTH 5 0
BBX 7 10 -1 -3
BITMAP
0900
1ED0
2DA0
2CA4
39E4
3AD0
7740
B000
B000
9000
ENDCHAR
STARTCHAR E_x
ENCODING -1
SWIDTH 797 0
DWIDTH 9 0
BBX 9 9 0 0
BITMAP
078000
1C5000
2C9000
1C5140
1D3940
782E00
B02C00
F06D80
7E4B40
ENDCHAR
STARTCHAR F_i
ENCODING -1
SWIDTH 726 0
DWIDTH 8 0
BBX 9 9 0 0
BITMAP
1BFE00
676900
9B0000
CB1D00
4FAC00
0E2C00
1D3800
2C3940
2C2D00
ENDCHAR
STARTCHAR T_h
ENCODING -1
SWIDTH 971 0
DWIDTH 11 0
BBX 11 9 0 0
BITMAP
1BFA00
638A00
D38E00
874EE0
075DA0
0B2CE0
0A28E0
0E39D4
1D34A4
ENDCHAR
STARTCHAR T_i
ENCODING -1
SWIDTH 744 0
DWIDTH 8 0
BBX 9 9 0 0
BITMAP
1BFF00
629A00
D38000
C74D00
075D00
0B1C00
0A2C00
0E2940
1D2E00
ENDCHAR
STARTCHAR a_x
ENCODING -1
SWIDTH 899 0
DWIDTH 10 0
BBX 10 6 0 0
BITMAP
2EDE60
72CB20
E28B80
E38740
E79B50
B6E2D0
ENDCHAR
STARTCHAR a_z
ENCODING -1
SWIDTH 906 0
DWIDTH 10 0
BBX 10 6 0 0
BITMAP
2EDAE0
76C9D0
E28380
E38740
E74E50
B69F90
ENDCHAR
STARTCHAR b_s
ENCODING -1
SWIDTH 799 0
DWIDTH 9 0
BBX 9 9 0 0
BITMAP
040000
380000
340100
7B1F00
B29B00
B28B00
E36B40
E65B40
B82D00
ENDCHAR
STARTCHAR b_s_x
ENCODING -1
SWIDTH 1144 0
DWIDTH 13 0
BBX 13 8 0 0
BITMAP
14000000
38000000
7F0A3640
76AB3940
B28B2D00
E36B2C40
E75B9D40
B82D0E00
ENDCHAR
STARTCHAR b_s_z
ENCODING -1
SWIDTH 1158 0
DWIDTH 13 0
BBX 13 9 0 0
BITMAP
04000000
38000000
34010000
7F1F2B40
B2AB5B00
B28B0D00
E36B2D00
E65B7640
B82DBA00
ENDCHAR
STARTCHAR c_x
ENCODING -1
SWIDTH 755 0
DWIDTH 8 0
BBX 9 6 0 0
BITMAP
2E7600
B27600
E03900
D03800
D0BD40
BA1E00
ENDCHAR
STARTCHAR c_z
ENCODING -1
SWIDTH 769 0
DWIDTH 8 0
BBX 10 6 -1 0
BITMAP
0B8BD0
2C9A80
380740
380E00
741D40
2E3E80
ENDCHAR
STARTCHAR e_x
ENCODING -1
SWIDTH 762 0
DWIDTH 8 0
BBX 9 6 0 0
BITMAP
2E7600
777600
E63900
F83800
E07D40
BA1E00
ENDCHAR
STARTCHAR e_z
ENCODING -1
SWIDTH 788 0
DWIDTH 9 0
BBX 10 6 -1 0
BITMAP
0B8AD0
2CD6C0
398740
3E0B00
741D40
2E2E80
ENDCHAR
STARTCHAR eacute_x
ENCODING -1
SWIDTH 760 0
DWIDTH 8 0
BBX 9 9 0 0
BITMAP
024000
030000
050000
2E7600
737600
E63900
F83800
E07D40
BA1E00
ENDCHAR
STARTCHAR f_f_t
ENCODING -1
SWIDTH 780 0
DWIDTH 9 0
BBX 12 12 -3 -3
BITMAP
007AE8
00E75D
00DB2C
01EFBD
02CE38
02CD38
039D74
036C76
07BC78
2B3800
5B7400
2EE000
ENDCHAR
STARTCHAR f_i_x
ENCODING -1
SWIDTH 898 0
DWIDTH 10 0
BBX 13 12 -3 -3
BITMAP
002A0000
00A34000
00D10140
01EB7980
02CB2840
02CA2E00
038E1D00
038E6E80
074B4B40
1B000000
5B000000
2D000000
ENDCHAR
STARTCHAR f_i_z
ENCODING -1
SWIDTH 904 0
DWIDTH 10 0
BBX 13 12 -3 -3
BITMAP
002A0000
00A34000
00D10000
01EB6B80
02CB2740
02CA0E00
038E1C00
038D3940
074BBE40
1B000000
5B000000
2D000000
ENDCHAR
STARTCHAR f_l_x
ENCODING -1
SWIDTH 912 0
DWIDTH 10 0
BBX 14 12 -3 -3
BITMAP
007A4000
00E38000
00D38000
01E76980
02C72C80
02CB1E00
038E1D00
038E6E50
074B8B40
1B000000
5B000000
2D000000
ENDCHAR
STARTCHAR f_l_z
ENCODING -1
SWIDTH 938 0
DWIDTH 10 0
BBX 13 12 -3 -3
BITMAP
007A4000
00E38000
00D38000
01EB5BC0
02C72780
02CB0B00
038E0D00
038E2C80
074B7E40
1B000000
5B000000
2D000000
ENDCHAR
STARTCHAR f_t
ENCODING -1
SWIDTH 548 0
DWIDTH 6 0
BBX 10 12 -3 -3
BITMAP
007A40
00E380
00D380
01EB80
02C740
02CB00
038A00
038E50
074B40
1B0000
5B0000
2D0000
ENDCHAR
STARTCHAR f_u
ENCODING -1
SWIDTH 772 0
DWIDTH 8 0
BBX 12 12 -3 -3
BITMAP
007800
00E400
00D000
01EF6C
02CB38
02CA34
038E74
034EB5
074B78
1B0000
5B0000
2D0000
ENDCHAR
STARTCHAR f_x
ENCODING -1
SWIDTH 663 0
DWIDTH 7 0
BBX 11 12 -3 -3
BITMAP
007800
00E500
00D000
01EF60
02C760
02C790
038780
035A84
0765E0
1B0000
5B0000
2D0000
ENDCHAR
STARTCHAR g_p
ENCODING -1
SWIDTH 975 0
DWIDTH 11 0
BBX 11 10 0 -3
BITMAP
000500
2EDBB0
76CE34
E29D34
E39D74
E76CB0
BBBF90
1F3800
5A3400
2D6400
ENDCHAR
STARTCHAR g_x
ENCODING -1
SWIDTH 892 0
DWIDTH 10 0
BBX 10 9 0 -3
BITMAP
2EDE50
72CA50
E28B80
E38700
E75B60
BB92D0
1F0000
5A0000
2D0000
ENDCHAR
STARTCHAR g_z
ENCODING -1
SWIDTH 907 0
DWIDTH 10 0
BBX 10 9 0 -3
BITMAP
2EDAE0
76C9D0
E28380
E38740
E74E50
BB5F90
1B0000
5A0000
2D0000
ENDCHAR
STARTCHAR i_x
ENCODING -1
SWIDTH 631 0
DWIDTH 7 0
BBX 7 9 0 0
BITMAP
2400
2800
0000
7694
B2C8
B1E0
E1D0
E6E4
B8B4
ENDCHAR
STARTCHAR i_z
ENCODING -1
SWIDTH 637 0
DWIDTH 7 0
BBX 7 9 0 0
BITMAP
2400
2800
0000
76B8
B274
B0A0
E1D0
E394
BBE4
ENDCHAR
STARTCHAR iacute_x
ENCODING -1
SWIDTH 631 0
DWIDTH 7 0
BBX 7 9 0 0
BITMAP
0D00
1800
2400
7694
B2C8
B1E0
E1D0
E6E4
B8B4
ENDCHAR
STARTCHAR iacute_z
ENCODING -1
SWIDTH 637 0
DWIDTH 7 0
BBX 7 9 0 0
BITMAP
0C00
1400
1000
76B8
B374
B0A0
E1D0
E394
BBE4
ENDCHAR
STARTCHAR j_x
ENCODING -1
SWIDTH 624 0
DWIDTH 7 0
BBX 9 11 -2 -3
BITMAP
034000
024000
077940
0B2880
0B2E00
0E1D00
0D6D80
1E4B40
6C0000
A80000
B40000
ENDCHAR
STARTCHAR j_z
ENCODING -1
SWIDTH 618 0
DWIDTH 7 0
BBX 10 11 -3 -3
BITMAP
00A000
009000
01DAE0
02DAC0
02C340
038B00
038D50
076F80
2B0000
5B0000
2D0000
ENDCHAR
STARTCHAR l_x
ENCODING -1
SWIDTH 631 0
DWIDTH 7 0
BBX 7 8 0 0
BITMAP
1400
3800
7694
72C8
B1E0
E1D0
E6E4
B8B4
ENDCHAR
STARTCHAR l_z
ENCODING -1
SWIDTH 635 0
DWIDTH 7 0
BBX 7 9 0 0
BITMAP
1400
3800
7400
76B8
B274
B0E0
E1D0
E394
ABE4
ENDCHAR
STARTCHAR m_x
ENCODING -1
SWIDTH 1124 0
DWIDTH 12 0
BBX 14 6 -1 0
BITMAP
1EEB5D80
2CE35D80
28E74F40
39D70E00
35CB2B50
76C78780
ENDCHAR
STARTCHAR m_z
ENCODING -1
SWIDTH 1125 0
DWIDTH 12 0
BBX 13 6 -1 0
BITMAP
1EEB5BC0
2CE35380
28E74700
39D70E00
35CB2C80
76C7BE80
ENDCHAR
STARTCHAR n_z
ENCODING -1
SWIDTH 882 0
DWIDTH 10 0
BBX 11 6 -1 0
BITMAP
1ED2B4
2CE1B0
28E0D0
39D2C0
35D760
74EBA0
ENDCHAR
STARTCHAR o_ae
ENCODING -1
SWIDTH 1089 0
DWIDTH 12 0
BBX 12 6 0 0
BITMAP
2E1AAE
7790F6
E25AE9
E339E4
E676D1
B829B9
ENDCHAR
STARTCHAR o_s
ENCODING -1
SWIDTH 786 0
DWIDTH 9 0
BBX 9 6 0 0
BITMAP
2E1E00
769E00
E24B00
E35B40
E68B40
B86D00
ENDCHAR
STARTCHAR o_s_x
ENCODING -1
SWIDTH 1132 0
DWIDTH 12 0
BBX 13 6 0 0
BITMAP
2E1E7600
765E3600
E24B3D00
E35B7840
E68B6D40
B86D0E00
ENDCHAR
STARTCHAR o_s_z
ENCODING -1
SWIDTH 1139 0
DWIDTH 13 0
BBX 13 6 0 0
BITMAP
2E1E6F40
769E5A00
E24A1D00
E35B2800
E68A7700
B86DFA00
ENDCHAR
STARTCHAR o_x
ENCODING -1
SWIDTH 851 0
DWIDTH 9 0
BBX 10 6 0 0
BITMAP
2E1D80
766D80
E34E40
E31E00
D66A10
B85780
ENDCHAR
STARTCHAR oacute_s
ENCODING -1
SWIDTH 787 0
DWIDTH 9 0
BBX 9 9 0 0
BITMAP
024000
060000
040000
2E1E00
769E00
E24B00
E35B40
E68B40
B86D00
ENDCHAR
STARTCHAR oacute_s_x
ENCODING -1
SWIDTH 1141 0
DWIDTH 13 0
BBX 13 9 0 0
BITMAP
02400000
06000000
04000000
2E1E6F40
769E5A00
E24A1D00
E35B2800
E68B7700
B86DFA00
ENDCHAR
STARTCHAR oacute_s_z
ENCODING -1
SWIDTH 1140 0
DWIDTH 13 0
BBX 13 9 0 0
BITMAP
02400000
06000000
04000000
2E1E6F40
769E5A00
E24A1D00
E35B2800
E68A7700
B86DFA00
ENDCHAR
STARTCHAR oacute_x
ENCODING -1
SWIDTH 852 0
DWIDTH 9 0
BBX 10 9 0 0
BITMAP
024000
030000
050000
2E1D80
766D80
E38E40
E31E00
E66A10
B86780
ENDCHAR
STARTCHAR r_x
ENCODING -1
SWIDTH 784 0
DWIDTH 9 0
BBX 10 7 -1 0
BITMAP
000090
1EDD50
2C9D80
280F40
380F00
342B10
747390
ENDCHAR
STARTCHAR r_z
ENCODING -1
SWIDTH 654 0
DWIDTH 7 0
BBX 8 6 -1 0
BITMAP
1EEF
2D9D
2C2C
3874
34A6
75F9
ENDCHAR
STARTCHAR s_x
ENCODING -1
SWIDTH 727 0
DWIDTH 8 0
BBX 10 6 -1 0
BITMAP
066980
0B6C80
1B5E00
275D00
67AE50
2E0B40
ENDCHAR
STARTCHAR s_z
ENCODING -1
SWIDTH 744 0
DWIDTH 8 0
BBX 9 7 -1 0
BITMAP
010000
0B6BC0
0B6740
174B00
275D00
676D40
2E7E40
ENDCHAR
STARTCHAR t_x
ENCODING -1
SWIDTH 631 0
DWIDTH 7 0
BBX 7 7 0 0
BITMAP
3400
BB98
72C8
B2E0
E1D0
E2D4
B8B4
ENDCHAR
STARTCHAR t_z
ENCODING -1
SWIDTH 704 0
DWIDTH 8 0
BBX 8 8 0 0
BITMAP
2800
3400
B8AD
71AC
B034
E0B0
E1D4
A2E8
ENDCHAR
STARTCHAR u_v
ENCODING -1
SWIDTH 923 0
DWIDTH 10 0
BBX 10 6 0 0
BITMAP
76CE60
B28E20
B39D20
E75D50
EB2D80
BF1F40
ENDCHAR
STARTCHAR u_x
ENCODING -1
SWIDTH 878 0
DWIDTH 10 0
BBX 10 6 0 0
BITMAP
76CD90
B28E50
B38A80
E74B00
EB5B60
B7D3D0
ENDCHAR
STARTCHAR y_p
ENCODING -1
SWIDTH 954 0
DWIDTH 11 0
BBX 11 10 0 -3
BITMAP
000500
76CFE0
B39D74
B39D70
E76CB0
EB28E0
BFBF80
1E7400
5E7400
78A000
ENDCHAR
STARTCHAR y_x
ENCODING -1
SWIDTH 871 0
DWIDTH 10 0
BBX 10 9 0 -3
BITMAP
76DD90
B28E50
B38E80
E74B00
EB1B60
BF9380
1E0000
5E0000
780000
ENDCHAR
STARTCHAR y_z
ENCODING -1
SWIDTH 888 0
DWIDTH 10 0
BBX 10 9 0 -3
BITMAP
76CAE0
B296C0
B38340
E74B00
EB4D90
BF2E80
1E0000
4E0000
680000
ENDCHAR
STARTCHAR a_x.end
ENCODING -1
SWIDTH 884 0
DWIDTH 10 0
BBX 10 6 0 0
BITMAP
2EDE60
72CB20
E28B80
E38740
E79B40
B6E2C0
ENDCHAR
STARTCHAR b_s.end
ENCODING -1
SWIDTH 731 0
DWIDTH 8 0
BBX 8 9 0 0
BITMAP
0400
3800
3401
7B1F
B29B
B28B
E36B
E65B
B82D
ENDCHAR
STARTCHAR e_x.end
ENCODING -1
SWIDTH 747 0
DWIDTH 8 0
BBX 8 6 0 0
BITMAP
2E76
7776
E639
F838
E07C
BA5D
ENDCHAR
STARTCHAR f_u.end
ENCODING -1
SWIDTH 724 0
DWIDTH 8 0
BBX 11 12 -3 -3
BITMAP
007800
00E400
00D000
01EF6C
02CB38
02CA34
038E74
034EB4
074B78
1B0000
5B0000
2D0000
ENDCHAR
STARTCHAR fi.end
ENCODING -1
SWIDTH 479 0
DWIDTH 5 0
BBX 9 12 -3 -3
BITMAP
002A00
00A340
00D100
01EB40
02CB00
02CA00
038E00
038E00
074B00
1B0000
5B0000
2D0000
ENDCHAR
STARTCHAR fl.end
ENCODING -1
SWIDTH 490 0
DWIDTH 5 0
BBX 9 12 -3 -3
BITMAP
007A40
00E380
00D380
01EB40
02C700
02CB00
038E00
038E00
074B00
1B0000
5B0000
2D0000
ENDCHAR
STARTCHAR i_x.end
ENCODING -1
SWIDTH 616 0
DWIDTH 7 0
BBX 7 9 0 0
BITMAP
2400
2800
0000
7694
B2C8
B1E0
E1D0
E6E0
B8B0
ENDCHAR
STARTCHAR o_s.end
ENCODING -1
SWIDTH 718 0
DWIDTH 8 0
BBX 8 6 0 0
BITMAP
2E1E
769E
E24A
E35B
E68A
B86D
ENDCHAR
STARTCHAR oacute_s.end
ENCODING -1
SWIDTH 719 0
DWIDTH 8 0
BBX 8 9 0 0
BITMAP
0240
0600
0400
2E1E
769E
E24A
E35B
E68A
B86D
ENDCHAR
STARTCHAR u_x.end
ENCODING -1
SWIDTH 863 0
DWIDTH 10 0
BBX 10 6 0 0
BITMAP
76CD90
B28E50
B38A80
E74B00
EB5B40
B7E380
ENDCHAR
STARTCHAR uni0424.loclBGR
ENCODING -1
SWIDTH 840 0
DWIDTH 9 0
BBX 9 12 0 -2
BITMAP
06A400
0C7400
04B400
1AB740
74E2C0
B0E1C0
A1D1C0
A1C280
76CB40
1BE800
038000
014000
ENDCHAR
STARTCHAR uni0492.loclBSH
ENCODING -1
SWIDTH 459 0
DWIDTH 5 0
BBX 7 9 0 0
BITMAP
1BA4
5B00
9A00
CE00
5FC0
1D00
2C00
2C00
3800
ENDCHAR
STARTCHAR uni04AA.loclCHU
ENCODING -1
SWIDTH 497 0
DWIDTH 5 0
BBX 6 12 0 -3
BITMAP
0B90
1D30
3860
7400
B400
B000
B000
B450
2F40
0900
0700
1900
ENDCHAR
STARTCHAR uni0418.loclSRB
ENCODING -1
SWIDTH 705 0
DWIDTH 8 0
BBX 8 9 0 0
BITMAP
0B4B
6B0E
9B2E
9E7D
0EED
1F6C
1E28
2C38
2874
ENDCHAR
STARTCHAR uni0419.loclSRB
ENCODING -1
SWIDTH 705 0
DWIDTH 8 0
BBX 8 11 0 0
BITMAP
00D5
00A4
0B4B
6B0E
9B2E
9E7D
0EED
1F6C
1E28
2C38
2874
ENDCHAR
STARTCHAR uni0430.end
ENCODING -1
SWIDTH 467 0
DWIDTH 5 0
BBX 6 6 0 0
BITMAP
2ED0
76C0
E280
E380
E740
BA80
ENDCHAR
STARTCHAR uni0432.end
ENCODING -1
SWIDTH 406 0
DWIDTH 4 0
BBX 5 9 0 0
BITMAP
0A00
2940
3540
7240
B200
E600
E240
E300
B900
ENDCHAR
STARTCHAR uni0434.end
ENCODING -1
SWIDTH 480 0
DWIDTH 5 0
BBX 6 9 0 -3
BITMAP
2ED0
76C0
E280
E380
E740
BB40
1B00
5A00
2D00
ENDCHAR
STARTCHAR uni0435.end
ENCODING -1
SWIDTH 366 0
DWIDTH 4 0
BBX 4 6 0 0
BITMAP
2E
77
E6
F8
E0
B8
ENDCHAR
STARTCHAR uni0451.end
ENCODING -1
SWIDTH 366 0
DWIDTH 4 0
BBX 5 8 0 0
BITMAP
2640
0000
2E00
7700
E600
F800
E000
B800
ENDCHAR
STARTCHAR uni0436.end
ENCODING -1
SWIDTH 848 0
DWIDTH 9 0
BBX 11 6 -1 0
BITMAP
1A2CB4
136A94
03BF40
137740
667340
28B2E0
ENDCHAR
STARTCHAR uni0437.end
ENCODING -1
SWIDTH 426 0
DWIDTH 5 0
BBX 5 9 0 -3
BITMAP
1B40
5380
4380
4700
2D00
0A00
1B00
5E00
6C00
ENDCHAR
STARTCHAR uni0438.end
ENCODING -1
SWIDTH 459 0
DWIDTH 5 0
BBX 5 6 0 0
BITMAP
76C0
B280
B380
E740
EB40
B780
ENDCHAR
STARTCHAR uni0439.end
ENCODING -1
SWIDTH 459 0
DWIDTH 5 0
BBX 5 9 0 0
BITMAP
0440
2880
1A00
76C0
B280
B380
E740
EB40
B780
ENDCHAR
STARTCHAR uni043A.end
ENCODING -1
SWIDTH 501 0
DWIDTH 6 0
BBX 7 6 -1 0
BITMAP
1D74
2D40
2FC0
39D0
35D0
74E0
ENDCHAR
STARTCHAR uni043B.end
ENCODING -1
SWIDTH 511 0
DWIDTH 6 0
BBX 7 6 -1 0
BITMAP
01B8
0274
0270
05B0
65B0
6874
ENDCHAR
STARTCHAR uni043C.end
ENCODING -1
SWIDTH 780 0
DWIDTH 9 0
BBX 10 6 -1 0
BITMAP
01E1D0
02A3D0
02A6C0
01AAC0
65B680
28B1D0
ENDCHAR
STARTCHAR uni043D.end
ENCODING -1
SWIDTH 460 0
DWIDTH 5 0
BBX 6 6 -1 0
BITMAP
1DB0
2CA0
2EE0
38D0
35D0
74E0
ENDCHAR
STARTCHAR uni043E.end
ENCODING -1
SWIDTH 439 0
DWIDTH 5 0
BBX 5 6 0 0
BITMAP
2E00
7640
E240
E300
E600
B800
ENDCHAR
STARTCHAR uni043F.end
ENCODING -1
SWIDTH 454 0
DWIDTH 5 0
BBX 6 6 -1 0
BITMAP
1ED0
2CE0
28E0
39D0
35D0
74E0
ENDCHAR
STARTCHAR uni0441.end
ENCODING -1
SWIDTH 341 0
DWIDTH 4 0
BBX 5 6 -1 0
BITMAP
0B80
2C80
3800
3800
7400
2E00
ENDCHAR
STARTCHAR uni0442.end
ENCODING -1
SWIDTH 701 0
DWIDTH 8 0
BBX 9 6 -1 0
BITMAP
1EEB40
2CE340
28E740
39D700
35CB00
76C740
ENDCHAR
STARTCHAR uni0443.end
ENCODING -1
SWIDTH 460 0
DWIDTH 5 0
BBX 5 9 0 -3
BITMAP
76C0
B280
B380
E740
EB40
BF00
2E00
8E00
6800
ENDCHAR
STARTCHAR uni0445.end
ENCODING -1
SWIDTH 500 0
DWIDTH 6 0
BBX 6 6 0 0
BITMAP
1D50
5A90
4B40
4B00
1740
5280
ENDCHAR
STARTCHAR uni0447.end
ENCODING -1
SWIDTH 459 0
DWIDTH 5 0
BBX 5 6 0 0
BITMAP
76C0
B380
B780
7B40
0740
0380
ENDCHAR
STARTCHAR uni0448.end
ENCODING -1
SWIDTH 706 0
DWIDTH 8 0
BBX 8 6 0 0
BITMAP
76CE
B28D
B39D
E75C
EB7C
B79D
ENDCHAR
STARTCHAR uni044B.end
ENCODING -1
SWIDTH 608 0
DWIDTH 7 0
BBX 7 6 0 0
BITMAP
7028
B0B4
AA74
E370
D6B0
B874
ENDCHAR
STARTCHAR uni0455.end
ENCODING -1
SWIDTH 316 0
DWIDTH 3 0
BBX 5 6 -1 0
BITMAP
0B40
0B40
1740
2740
6740
2E00
ENDCHAR
STARTCHAR uni0456.end
ENCODING -1
SWIDTH 209 0
DWIDTH 2 0
BBX 3 9 0 0
BITMAP
24
28
00
74
B0
B0
E0
E0
B0
ENDCHAR
STARTCHAR uni0458.end
ENCODING -1
SWIDTH 213 0
DWIDTH 2 0
BBX 6 11 -3 -3
BITMAP
00D0
0090
01D0
02C0
02C0
0380
0340
0740
2F00
5A00
2D00
ENDCHAR
STARTCHAR uni044E.end
ENCODING -1
SWIDTH 675 0
DWIDTH 7 0
BBX 8 6 -1 0
BITMAP
1D6D
2CE2
2ED2
3AD6
35C9
74A4
ENDCHAR
STARTCHAR uni044F.end
ENCODING -1
SWIDTH 480 0
DWIDTH 5 0
BBX 7 6 -1 0
BITMAP
06B4
0D70
1DA0
0BE0
65E0
68B0
ENDCHAR
STARTCHAR uni0437.init
ENCODING -1
SWIDTH 455 0
DWIDTH 5 0
BBX 6 9 0 -3
BITMAP
2E00
4B00
0B00
0E00
3C50
1D40
2D00
9D00
B800
ENDCHAR
STARTCHAR uni0445.init
ENCODING -1
SWIDTH 390 0
DWIDTH 4 0
BBX 6 7 -1 0
BITMAP
0080
2C80
1D80
0F00
2E00
5A10
A780
ENDCHAR
STARTCHAR uni0436.loclBGR
ENCODING -1
SWIDTH 882 0
DWIDTH 10 0
BBX 11 9 -1 0
BITMAP
000900
001D00
001C00
1A2CB4
136A94
03BF40
137740
667344
28B2E0
ENDCHAR
STARTCHAR uni043A.loclBGR
ENCODING -1
SWIDTH 518 0
DWIDTH 6 0
BBX 7 9 -1 0
BITMAP
0100
0E00
0D00
1D60
2E80
2ED0
38E0
35D8
74F4
ENDCHAR
STARTCHAR uni044E.loclBGR
ENCODING -1
SWIDTH 675 0
DWIDTH 7 0
BBX 10 9 -1 0
BITMAP
050000
0E0000
1D0000
1D6900
2CE750
2ED740
3AD600
35C900
74A400
ENDCHAR
STARTCHAR uni0493.loclBSH
ENCODING -1
SWIDTH 398 0
DWIDTH 4 0
BBX 6 6 -1 0
BITMAP
2E90
2800
3A00
7400
7100
7800
ENDCHAR
STARTCHAR uni04AB.loclCHU
ENCODING -1
SWIDTH 384 0
DWIDTH 4 0
BBX 5 9 0 -3
BITMAP
2E00
7600
E000
E000
E140
BD00
1800
0900
2400
ENDCHAR
STARTCHAR uni0453.loclMKD
ENCODING -1
SWIDTH 267 0
DWIDTH 3 0
BBX 4 11 0 0
BITMAP
09
08
00
A8
00
74
B0
B0
E0
E4
B4
ENDCHAR
STARTCHAR uni0433.loclSRB
ENCODING -1
SWIDTH 267 0
DWIDTH 3 0
BBX 3 8 0 0
BITMAP
A8
00
74
B0
B0
E0
E4
B4
ENDCHAR
STARTCHAR uni043F.loclSRB
ENCODING -1
SWIDTH 505 0
DWIDTH 6 0
BBX 6 8 0 0
BITMAP
1A80
0000
76C0
B280
B380
E740
EB60
B780
ENDCHAR
STARTCHAR uni0442.loclSRB
ENCODING -1
SWIDTH 752 0
DWIDTH 8 0
BBX 9 8 0 0
BITMAP
1AA900
000000
76CE00
B28D00
B39D00
E75C00
EB7D40
B79E00
ENDCHAR
STARTCHAR uni04150437
ENCODING -1
SWIDTH 940 0
DWIDTH 10 0
BBX 11 12 0 -3
BITMAP
078000
1C5000
2C8000
1D0680
3C14D0
B411D0
F012C0
B04B44
790390
000B80
001740
001E00
ENDCHAR
STARTCHAR uni04150445
ENCODING -1
SWIDTH 797 0
DWIDTH 9 0
BBX 9 9 0 0
BITMAP
078000
1C5000
2C9000
1C5140
1D3940
782E00
B02C00
F06D80
7E4B40
ENDCHAR
STARTCHAR uni04010437
ENCODING -1
SWIDTH 940 0
DWIDTH 10 0
BBX 11 14 0 -3
BITMAP
066000
000000
078000
1C5000
2C8000
1D0680
3C14D0
B411D0
F012C0
B04B44
790390
000B80
001740
001E00
ENDCHAR
STARTCHAR uni04010445
ENCODING -1
SWIDTH 797 0
DWIDTH 9 0
BBX 9 11 0 0
BITMAP
066000
000000
078000
1C5000
2C9000
1C5140
1D3940
782E00
B02C00
F06D80
7E4B40
ENDCHAR
STARTCHAR uni04210437
ENCODING -1
SWIDTH 973 0
DWIDTH 11 0
BBX 11 12 0 -3
BITMAP
0B9000
1D3000
386000
7406D0
B404B0
B010E0
B011D0
B44784
2E02D4
0006C0
000AC0
000B40
ENDCHAR
STARTCHAR uni04210445
ENCODING -1
SWIDTH 814 0
DWIDTH 9 0
BBX 9 9 0 0
BITMAP
0B9000
1D2000
382000
741140
B42C80
B02E00
B01D00
B46D40
2E4B40
ENDCHAR
STARTCHAR uni04040437
ENCODING -1
SWIDTH 973 0
DWIDTH 11 0
BBX 11 12 0 -3
BITMAP
0B9000
1D3000
3C6000
7806D0
BA44B0
B010E0
B011D0
B44784
2E02D4
0006C0
000AC0
000B40
ENDCHAR
STARTCHAR uni04040445
ENCODING -1
SWIDTH 814 0
DWIDTH 9 0
BBX 10 9 0 0
BITMAP
0B9000
1D2000
3C2000
781140
BA6C80
B02E00
B01D00
B46D50
2E4B40
ENDCHAR
STARTCHAR uni04300445
ENCODING -1
SWIDTH 899 0
DWIDTH 10 0
BBX 10 6 0 0
BITMAP
2EDE60
72CB20
E28B80
E38740
E79B50
B6E2D0
ENDCHAR
STARTCHAR uni04300447
ENCODING -1
SWIDTH 993 0
DWIDTH 11 0
BBX 11 6 0 0
BITMAP
2EDE74
76DD70
E29DB0
E38EE0
E740E4
BA80B4
ENDCHAR
STARTCHAR uni04310433
ENCODING -1
SWIDTH 816 0
DWIDTH 9 0
BBX 9 9 0 0
BITMAP
0BF000
0FE000
050000
2F1B40
B29740
E28B00
E37D00
D67440
B82E00
ENDCHAR
STARTCHAR uni04310453
ENCODING -1
SWIDTH 816 0
DWIDTH 9 0
BBX 9 9 0 0
BITMAP
0BF240
0FE200
050000
2F1B40
B29740
E28B00
E37D00
D67440
B82E00
ENDCHAR
STARTCHAR uni04310451
ENCODING -1
SWIDTH 814 0
DWIDTH 9 0
BBX 9 9 0 0
BITMAP
0FE000
0F9880
050000
1B0B80
766D80
E27A40
E37900
E67440
B82E00
ENDCHAR
STARTCHAR uni04310436
ENCODING -1
SWIDTH 1261 0
DWIDTH 14 0
BBX 14 9 0 0
BITMAP
0BF00000
0FE00000
05000000
1B2D35E0
76877750
E247FF00
E30AAA00
D65DEB10
B868D390
ENDCHAR
STARTCHAR uni04310439
ENCODING -1
SWIDTH 935 0
DWIDTH 10 0
BBX 11 9 0 0
BITMAP
0BE910
0FDA50
050640
1B2CE0
7668E0
E279D0
E375C0
D676C4
B83AE0
ENDCHAR
STARTCHAR uni0431045E
ENCODING -1
SWIDTH 916 0
DWIDTH 10 0
BBX 11 12 0 -3
BITMAP
0BE910
0FDA50
050640
1B2CE0
7668D0
E279D0
E375C0
D676C4
B83BE0
000780
002740
002E00
ENDCHAR
STARTCHAR uni0431044D
ENCODING -1
SWIDTH 860 0
DWIDTH 9 0
BBX 9 9 0 0
BITMAP
0BF000
0FE000
050000
1B1B40
7692C0
E28BC0
E34380
D69740
B86900
ENDCHAR
STARTCHAR uni04310456
ENCODING -1
SWIDTH 697 0
DWIDTH 8 0
BBX 8 9 0 0
BITMAP
0FED
0F9D
0500
1B2C
7668
E278
E374
D675
B839
ENDCHAR
STARTCHAR uni04310457
ENCODING -1
SWIDTH 697 0
DWIDTH 8 0
BBX 8 9 0 0
BITMAP
0FD0
0F96
0500
1B2C
7668
E278
E374
D675
B839
ENDCHAR
STARTCHAR uni04310458
ENCODING -1
SWIDTH 669 0
DWIDTH 7 0
BBX 8 12 0 -3
BITMAP
0010
1FED
0B98
192C
7628
E278
E374
D675
B8B8
02E0
05E0
0780
ENDCHAR
STARTCHAR uni04320433
ENCODING -1
SWIDTH 837 0
DWIDTH 9 0
BBX 10 9 0 0
BITMAP
0A0000
294000
354000
725B40
B25380
E74B40
E26D00
E33850
B92E40
ENDCHAR
STARTCHAR uni04320453
ENCODING -1
SWIDTH 837 0
DWIDTH 9 0
BBX 10 9 0 0
BITMAP
0A0280
294300
354000
725B40
B25380
E74B40
E26D00
E33850
B92E40
ENDCHAR
STARTCHAR uni04320436
ENCODING -1
SWIDTH 1279 0
DWIDTH 14 0
BBX 15 9 0 0
BITMAP
0A000000
29400000
35400000
726E39A0
B24777A0
E747BB40
E246B700
E259A714
B968E290
ENDCHAR
STARTCHAR uni04320437
ENCODING -1
SWIDTH 824 0
DWIDTH 9 0
BBX 10 12 0 -3
BITMAP
0A0000
294000
354000
725E00
B24740
E74740
E24E00
E33C50
B91E40
002D00
009D00
007800
ENDCHAR
STARTCHAR uni04320445
ENCODING -1
SWIDTH 851 0
DWIDTH 9 0
BBX 10 9 0 0
BITMAP
0A0000
294000
354000
726C80
B2AD80
E74E40
E24E00
E32A10
B99780
ENDCHAR
STARTCHAR uni04330437
ENCODING -1
SWIDTH 840 0
DWIDTH 9 0
BBX 11 9 -1 -3
BITMAP
1B4680
2395D0
0B51D0
2D52C0
784B04
2E0390
000B80
002740
001E00
ENDCHAR
STARTCHAR uni04330445
ENCODING -1
SWIDTH 740 0
DWIDTH 8 0
BBX 10 6 -1 0
BITMAP
0B6880
23AC80
0B5E40
2D1D00
786E10
2E4740
ENDCHAR
STARTCHAR uni04330447
ENCODING -1
SWIDTH 880 0
DWIDTH 10 0
BBX 11 6 -1 0
BITMAP
1B5DB0
239CB0
0B6DE0
2D2EE0
7841D4
2E00F4
ENDCHAR
STARTCHAR uni04530437
ENCODING -1
SWIDTH 840 0
DWIDTH 9 0
BBX 11 12 -1 -3
BITMAP
00C000
018000
010000
1B4680
2395D0
0B51D0
2D52C0
784B04
2E0390
000B80
002740
001E00
ENDCHAR
STARTCHAR uni04530445
ENCODING -1
SWIDTH 740 0
DWIDTH 8 0
BBX 10 9 -1 0
BITMAP
00D000
018000
024000
0B6880
23AC80
0B5E40
2D1D00
786E10
2E4740
ENDCHAR
STARTCHAR uni04530447
ENCODING -1
SWIDTH 880 0
DWIDTH 10 0
BBX 11 9 -1 0
BITMAP
00C000
018000
010000
1B5DB0
239CB0
0B6DE0
2D2EE0
7841D4
2E00F4
ENDCHAR
STARTCHAR uni04340447
ENCODING -1
SWIDTH 1010 0
DWIDTH 11 0
BBX 12 9 0 -3
BITMAP
2EDA38
76CE74
E28EB0
E39BF0
E750A1
BB8074
1B0000
5A0000
2D0000
ENDCHAR
STARTCHAR uni04340458
ENCODING -1
SWIDTH 746 0
DWIDTH 8 0
BBX 9 11 0 -3
BITMAP
000700
000600
2EDA00
76CE00
E28D00
E39D00
E76C40
BB6E00
1B3800
5E7400
3EE000
ENDCHAR
STARTCHAR uni04350437
ENCODING -1
SWIDTH 876 0
DWIDTH 10 0
BBX 10 9 0 -3
BITMAP
2E1B40
771380
E64380
F84740
E11E10
B90B50
001F00
002A00
002D00
ENDCHAR
STARTCHAR uni04350445
ENCODING -1
SWIDTH 762 0
DWIDTH 8 0
BBX 9 6 0 0
BITMAP
2E7600
777600
E63900
F83800
E07D40
BA1E00
ENDCHAR
STARTCHAR uni04350447
ENCODING -1
SWIDTH 889 0
DWIDTH 10 0
BBX 10 6 0 0
BITMAP
2E35D0
7776C0
E6B380
F8FF80
E20350
B903D0
ENDCHAR
STARTCHAR uni04510437
ENCODING -1
SWIDTH 876 0
DWIDTH 10 0
BBX 10 11 0 -3
BITMAP
264000
000000
2E1B40
771380
E64380
F84740
E11E10
B90B50
001F00
002A00
002D00
ENDCHAR
STARTCHAR uni04510445
ENCODING -1
SWIDTH 762 0
DWIDTH 8 0
BBX 9 8 0 0
BITMAP
264000
000000
2E7600
777600
E63900
F83800
E07D40
BA1E00
ENDCHAR
STARTCHAR uni04510447
ENCODING -1
SWIDTH 889 0
DWIDTH 10 0
BBX 10 8 0 0
BITMAP
264000
000000
2E35D0
7776C0
E6B380
F8FF80
E20350
B903D0
ENDCHAR
STARTCHAR uni04360447
ENCODING -1
SWIDTH 1392 0
DWIDTH 15 0
BBX 17 6 -1 0
BITMAP
1A2CB6CE00
136A978D00
03BF43AD00
137746EC40
6673442D40
28B2E01E00
ENDCHAR
STARTCHAR uni04370437
ENCODING -1
SWIDTH 921 0
DWIDTH 10 0
BBX 11 9 0 -3
BITMAP
1B4B80
5391D0
4391D0
475280
2D4F04
0A43A0
1F0B80
5E2740
681E00
ENDCHAR
STARTCHAR uni04380447
ENCODING -1
SWIDTH 1010 0
DWIDTH 11 0
BBX 12 6 0 0
BITMAP
76CA38
B28E74
B39EB0
E75BF1
EB50B5
B78074
ENDCHAR
STARTCHAR uni04390447
ENCODING -1
SWIDTH 1010 0
DWIDTH 11 0
BBX 12 9 0 0
BITMAP
044000
288000
1A0000
76CA38
B28E74
B39EB0
E75BF1
EB50B5
B78074
ENDCHAR
STARTCHAR uni043A0447
ENCODING -1
SWIDTH 1016 0
DWIDTH 11 0
BBX 13 6 -1 0
BITMAP
1D76CE00
2D438D00
2FC39D00
39D6EC00
35D82D40
74F41E00
ENDCHAR
STARTCHAR uni045C0447
ENCODING -1
SWIDTH 1016 0
DWIDTH 11 0
BBX 13 9 -1 0
BITMAP
00900000
00800000
00000000
1D76CE00
2D438D00
2FC39D00
39D6EC00
35D82D40
74F41E00
ENDCHAR
STARTCHAR uni043B0447
ENCODING -1
SWIDTH 1061 0
DWIDTH 12 0
BBX 13 6 -1 0
BITMAP
01B9DB00
0275CB00
0272DE00
15B2EE40
65A11D40
28740E00
ENDCHAR
STARTCHAR uni043C0447
ENCODING -1
SWIDTH 1276 0
DWIDTH 14 0
BBX 16 6 -1 0
BITMAP
02C3CE34
02C78E74
03DB5DB0
12DB5FF1
65F750E4
29E380B4
ENDCHAR
STARTCHAR uni043D0447
ENCODING -1
SWIDTH 1011 0
DWIDTH 11 0
BBX 13 6 -1 0
BITMAP
1DB28E00
2CA39D00
2EE3AC00
38D6FC00
35D42840
74E01D00
ENDCHAR
STARTCHAR uni043E0433
ENCODING -1
SWIDTH 804 0
DWIDTH 9 0
BBX 9 6 0 0
BITMAP
2E1B40
779380
E24B40
E33D00
E67440
B83E00
ENDCHAR
STARTCHAR uni043E0453
ENCODING -1
SWIDTH 804 0
DWIDTH 9 0
BBX 9 9 0 0
BITMAP
000180
000240
000100
2E1B40
779380
E24B40
E33D00
E67440
B83E00
ENDCHAR
STARTCHAR uni043E0436
ENCODING -1
SWIDTH 1271 0
DWIDTH 14 0
BBX 14 6 0 0
BITMAP
2E2E35E0
77877750
E247BB00
E346B700
E689A710
B8A8E290
ENDCHAR
STARTCHAR uni043E0437
ENCODING -1
SWIDTH 837 0
DWIDTH 9 0
BBX 10 9 0 -3
BITMAP
2E1A00
778740
E24740
E30A00
E63C10
B80E40
002E00
009D00
007800
ENDCHAR
STARTCHAR uni043E043B
ENCODING -1
SWIDTH 992 0
DWIDTH 11 0
BBX 11 6 0 0
BITMAP
2E01F4
764270
E245B0
E305A0
E658E4
BAA8B4
ENDCHAR
STARTCHAR uni043E043C
ENCODING -1
SWIDTH 1207 0
DWIDTH 13 0
BBX 14 6 0 0
BITMAP
2E02C380
7643CB40
E247CF40
E306DB00
E6A9EB50
BE65D780
ENDCHAR
STARTCHAR uni043E0445
ENCODING -1
SWIDTH 850 0
DWIDTH 9 0
BBX 10 6 0 0
BITMAP
2E1D80
766D80
E34E40
E31E00
D66A10
B85780
ENDCHAR
STARTCHAR uni043E0459
ENCODING -1
SWIDTH 1179 0
DWIDTH 13 0
BBX 13 6 0 0
BITMAP
2E01F400
76427400
E245BB40
E305A340
E6A8E740
BAA87900
ENDCHAR
STARTCHAR uni043E044D
ENCODING -1
SWIDTH 867 0
DWIDTH 10 0
BBX 9 6 0 0
BITMAP
2E1B80
7792C0
E24BC0
E30280
E69740
B86900
ENDCHAR
STARTCHAR uni043F0447
ENCODING -1
SWIDTH 1010 0
DWIDTH 11 0
BBX 13 6 -1 0
BITMAP
1ED28E00
2CE39D00
28E3AC00
39D6FC00
35D42840
74E01D00
ENDCHAR
STARTCHAR uni04400437
ENCODING -1
SWIDTH 890 0
DWIDTH 10 0
BBX 11 10 -1 -3
BITMAP
090000
1ED2D0
2CB4B0
2CA0B0
38E1D0
35D784
7F41E4
B006D0
B00AC0
900B40
ENDCHAR
STARTCHAR uni04410437
ENCODING -1
SWIDTH 876 0
DWIDTH 10 0
BBX 10 9 0 -3
BITMAP
2E1B40
761380
E04380
E04740
E11E10
B90B50
001F00
002A00
002D00
ENDCHAR
STARTCHAR uni04410445
ENCODING -1
SWIDTH 755 0
DWIDTH 8 0
BBX 9 6 0 0
BITMAP
2E7600
B27600
E03900
D03800
D0BD40
BA1E00
ENDCHAR
STARTCHAR uni04410447
ENCODING -1
SWIDTH 889 0
DWIDTH 10 0
BBX 10 6 0 0
BITMAP
2E35D0
7676C0
E0B780
E0BB80
E10350
B802D0
ENDCHAR
STARTCHAR uni0441044A
ENCODING -1
SWIDTH 841 0
DWIDTH 9 0
BBX 9 6 0 0
BITMAP
2E6D00
76AC00
E02E80
E075C0
E1B280
B93A00
ENDCHAR
STARTCHAR uni04420447
ENCODING -1
SWIDTH 1257 0
DWIDTH 14 0
BBX 15 6 -1 0
BITMAP
1EEB4E74
2CE35DB0
28E75DF0
39D71EE0
35CB10E4
76C780A4
ENDCHAR
STARTCHAR uni04430447
ENCODING -1
SWIDTH 989 0
DWIDTH 11 0
BBX 11 9 0 -3
BITMAP
76CE74
B39DB0
B39DF0
E76EE0
EB50E8
BF40B4
2E0000
5E0000
780000
ENDCHAR
STARTCHAR uni04430458
ENCODING -1
SWIDTH 725 0
DWIDTH 8 0
BBX 9 11 0 -3
BITMAP
000A00
000600
76CE00
B29D00
B39D00
E76C00
EB2940
BF7D00
2FB400
5E7000
7EE000
ENDCHAR
STARTCHAR uni045E0447
ENCODING -1
SWIDTH 989 0
DWIDTH 11 0
BBX 11 12 0 -3
BITMAP
044000
288000
1A0000
76CE74
B39DB0
B39DF0
E76EE0
EB50E8
BF40B4
2E0000
5E0000
780000
ENDCHAR
STARTCHAR uni045E0458
ENCODING -1
SWIDTH 725 0
DWIDTH 8 0
BBX 9 11 0 -3
BITMAP
188A00
1A4600
76CE00
B29D00
B39D00
E76C00
EB2940
BF3D00
1E7400
5EB000
7AE000
ENDCHAR
STARTCHAR uni04440437
ENCODING -1
SWIDTH 1148 0
DWIDTH 13 0
BBX 13 11 0 -3
BITMAP
00D00000
01D00000
2EED6D00
76CA4E00
E28A0E00
E34D1D00
E75C7440
BBB42D40
0B007C00
0A00A800
0900B400
ENDCHAR
STARTCHAR uni04450447
ENCODING -1
SWIDTH 1027 0
DWIDTH 11 0
BBX 12 6 0 0
BITMAP
1D5B38
5A9A38
4B4EB4
4B0BB0
2750B1
529078
ENDCHAR
STARTCHAR uni0445044A
ENCODING -1
SWIDTH 1006 0
DWIDTH 11 0
BBX 11 6 0 0
BITMAP
1D9AC0
5A5D80
4B87A4
4B0B38
1B1E34
629B90
ENDCHAR
STARTCHAR uni04470447
ENCODING -1
SWIDTH 1010 0
DWIDTH 11 0
BBX 12 6 0 0
BITMAP
76CA38
B38E74
B79EB0
7B5BF1
0750B5
038074
ENDCHAR
STARTCHAR uni04480447
ENCODING -1
SWIDTH 1257 0
DWIDTH 14 0
BBX 14 6 0 0
BITMAP
76CE39D0
B28D76C0
B39D77C0
E75CBB80
EB7D4390
B79E02D0
ENDCHAR
STARTCHAR uni045F0447
ENCODING -1
SWIDTH 1010 0
DWIDTH 11 0
BBX 12 9 0 -3
BITMAP
76CA38
B28E74
B39EB0
E75BF1
EB50B5
B78074
080000
1C0000
080000
ENDCHAR
STARTCHAR uni044B0447
ENCODING -1
SWIDTH 1157 0
DWIDTH 13 0
BBX 13 6 0 0
BITMAP
7029D700
B0B5DB00
AA76CE00
E372EE00
D6B51E80
B8780F40
ENDCHAR
STARTCHAR uni04550437
ENCODING -1
SWIDTH 840 0
DWIDTH 9 0
BBX 11 10 -1 -3
BITMAP
010000
0B4780
0B55D0
1751D0
2392C0
678B04
2E0390
000B80
002740
001E00
ENDCHAR
STARTCHAR uni04550445
ENCODING -1
SWIDTH 727 0
DWIDTH 8 0
BBX 10 6 -1 0
BITMAP
066980
0B6C80
1B5E00
275D00
67AE50
2E0B40
ENDCHAR
STARTCHAR uni04550447
ENCODING -1
SWIDTH 909 0
DWIDTH 10 0
BBX 11 7 -1 0
BITMAP
010000
0B4E74
0B4D74
175DB0
275EE0
5780E4
2E00B4
ENDCHAR
STARTCHAR uni04540437
ENCODING -1
SWIDTH 876 0
DWIDTH 10 0
BBX 10 9 0 -3
BITMAP
2E1B40
711380
F84380
E04740
E11E10
B90B50
001F00
002A00
002D00
ENDCHAR
STARTCHAR uni04540445
ENCODING -1
SWIDTH 755 0
DWIDTH 8 0
BBX 9 6 0 0
BITMAP
2A7600
B27600
F83D00
D03800
E0AD40
BA1E00
ENDCHAR
STARTCHAR uni04540447
ENCODING -1
SWIDTH 889 0
DWIDTH 10 0
BBX 10 6 0 0
BITMAP
2E35D0
7276C0
F8B780
E0BB80
E10350
B802D0
ENDCHAR
STARTCHAR uni044D0437
ENCODING -1
SWIDTH 837 0
DWIDTH 9 0
BBX 11 9 -1 -3
BITMAP
1B8B80
11E1D0
0BD1D0
02C280
634F04
2A03A0
000B80
002740
001E00
ENDCHAR
STARTCHAR uni04560447
ENCODING -1
SWIDTH 763 0
DWIDTH 8 0
BBX 9 9 0 0
BITMAP
240000
280000
000000
76CA00
B2CE00
B39D00
E2ED40
E42D40
B41E00
ENDCHAR
STARTCHAR uni04570447
ENCODING -1
SWIDTH 763 0
DWIDTH 8 0
BBX 9 8 0 0
BITMAP
990000
000000
76CA00
B2CE00
B39D00
E2ED40
E42D40
B41E00
ENDCHAR
STARTCHAR uni04570457
ENCODING -1
SWIDTH 543 0
DWIDTH 6 0
BBX 7 8 0 0
BITMAP
9DA4
0000
75D0
B2C0
B280
E380
E7A0
B6D0
ENDCHAR
STARTCHAR uni04580447
ENCODING -1
SWIDTH 743 0
DWIDTH 8 0
BBX 11 11 -2 -3
BITMAP
034000
024000
076CE0
0B39D0
0B3AD0
0E6FC4
0D42D4
1E01E0
6C0000
A80000
B40000
ENDCHAR
STARTCHAR uni04580458
ENCODING -1
SWIDTH 480 0
DWIDTH 5 0
BBX 8 11 -2 -3
BITMAP
035C
0258
076C
0B38
0B34
0E74
0DB5
1EB8
6CE0
ADD0
FB80
ENDCHAR
STARTCHAR uni045B0447
ENCODING -1
SWIDTH 990 0
DWIDTH 11 0
BBX 12 12 -1 -3
BITMAP
050000
0E0000
2F8000
1D035D
2E976C
2CE778
38DBB8
35D43A
76D02D
078000
174000
1E0000
ENDCHAR
STARTCHAR uni045B0458
ENCODING -1
SWIDTH 722 0
DWIDTH 8 0
BBX 10 11 -1 -3
BITMAP
0A0280
2F8000
1D0380
2E9740
2CE700
38DB00
35CA50
76CE40
079D00
17AC00
1EB400
ENDCHAR
STARTCHAR uni044E0433
ENCODING -1
SWIDTH 1050 0
DWIDTH 12 0
BBX 13 6 -1 0
BITMAP
1D692E00
2CE78B00
2ED21E00
3AD67800
35C9B040
74A47900
ENDCHAR
STARTCHAR uni044E0453
ENCODING -1
SWIDTH 1050 0
DWIDTH 12 0
BBX 13 9 -1 0
BITMAP
00000240
00000200
00000000
1D692E00
2CE78B00
2ED21E00
3AD67800
35C9B040
74A47900
ENDCHAR
STARTCHAR uni044E0436
ENCODING -1
SWIDTH 1507 0
DWIDTH 17 0
BBX 18 6 -1 0
BITMAP
1D696D72E0
2CE78AB710
2ED70BFE00
3AD60DDE00
35C99DDA10
74A4A5C780
ENDCHAR
STARTCHAR uni044E0437
ENCODING -1
SWIDTH 1073 0
DWIDTH 12 0
BBX 13 9 -1 -3
BITMAP
1D696D00
2CE74B00
2ED20B00
3AD60D00
35C97840
74A41D40
00006D00
0000AC00
0000B400
ENDCHAR
STARTCHAR uni044E043B
ENCODING -1
SWIDTH 1228 0
DWIDTH 14 0
BBX 15 6 -1 0
BITMAP
1D6D02F0
2CE205A0
2ED208E0
3AD609D0
35C9D9D4
74A9A4E0
ENDCHAR
STARTCHAR uni044E043C
ENCODING -1
SWIDTH 1443 0
DWIDTH 16 0
BBX 17 6 -1 0
BITMAP
1D6D074740
2CE2078F00
2ED20B9F00
3AD60BAE00
35C9DBDE40
74A9A2CB40
ENDCHAR
STARTCHAR uni044E0445
ENCODING -1
SWIDTH 1088 0
DWIDTH 12 0
BBX 13 6 -1 0
BITMAP
1D693980
2CE7AD80
2ED71E00
3AD63D00
35C99D40
74A48B40
ENDCHAR
STARTCHAR uni044E0459
ENCODING -1
SWIDTH 1415 0
DWIDTH 16 0
BBX 16 6 -1 0
BITMAP
1D6D02F0
2CE205A5
2ED208EB
3AD649D7
35C9D9DA
74A9A4A8
ENDCHAR
STARTCHAR uni044E044D
ENCODING -1
SWIDTH 1103 0
DWIDTH 12 0
BBX 13 6 -1 0
BITMAP
1D692B40
2CE78380
2ED71B80
3AD60740
35C9CB00
74A4A800
ENDCHAR
STARTCHAR uni044F0447
ENCODING -1
SWIDTH 1030 0
DWIDTH 11 0
BBX 13 6 -1 0
BITMAP
06B6CE00
0D728E00
1DA39D00
0BE3FD00
65D42C40
68A41E00
ENDCHAR
STARTCHAR uni04300445.liga
ENCODING -1
SWIDTH 884 0
DWIDTH 10 0
BBX 10 6 0 0
BITMAP
2EDE60
72CB20
E28B80
E38740
E79B80
B6E2C0
ENDCHAR
STARTCHAR uni04300447.liga
ENCODING -1
SWIDTH 947 0
DWIDTH 10 0
BBX 11 6 0 0
BITMAP
2EDE74
76DD70
E29DB0
E38EE0
E740E0
BA80B0
ENDCHAR
STARTCHAR uni04310451.liga
ENCODING -1
SWIDTH 746 0
DWIDTH 8 0
BBX 9 9 0 0
BITMAP
0FE000
0F9880
050000
1B0B80
766D80
E27A40
E37900
E67500
B82E00
ENDCHAR
STARTCHAR uni04310436.liga
ENCODING -1
SWIDTH 1258 0
DWIDTH 14 0
BBX 14 9 0 0
BITMAP
0BF00000
0FE00000
05000000
1B2D35E0
76877750
E247FF00
E30AAA00
D65DEB00
B868D390
ENDCHAR
STARTCHAR uni04310439.liga
ENCODING -1
SWIDTH 901 0
DWIDTH 10 0
BBX 10 9 0 0
BITMAP
0BE910
0FDA50
050640
1B2CE0
7668E0
E279D0
E375C0
D676C0
B83AD0
ENDCHAR
STARTCHAR uni0431045E.liga
ENCODING -1
SWIDTH 890 0
DWIDTH 10 0
BBX 10 12 0 -3
BITMAP
0BE910
0FDA50
050640
1B2CE0
7668E0
E279D0
E375C0
E677C0
B83B80
001B80
002740
001E00
ENDCHAR
STARTCHAR uni04310456.liga
ENCODING -1
SWIDTH 639 0
DWIDTH 7 0
BBX 8 9 0 0
BITMAP
0FED
0F9D
0500
1B2C
7668
E278
E374
D674
B838
ENDCHAR
STARTCHAR uni04310457.liga
ENCODING -1
SWIDTH 638 0
DWIDTH 7 0
BBX 8 9 0 0
BITMAP
0FD0
0F96
0500
1B2C
7668
E278
E374
D674
B838
ENDCHAR
STARTCHAR uni04310458.liga
ENCODING -1
SWIDTH 638 0
DWIDTH 7 0
BBX 8 12 0 -3
BITMAP
0010
1FED
0B98
192C
7628
E278
E374
D674
B8B0
02E0
04E0
0680
ENDCHAR
STARTCHAR uni04320436.liga
ENCODING -1
SWIDTH 1275 0
DWIDTH 14 0
BBX 14 9 0 0
BITMAP
0A000000
29400000
35400000
726E39A0
B24777A0
E747BB40
E246B700
E259A700
B968E290
ENDCHAR
STARTCHAR uni04320437.liga
ENCODING -1
SWIDTH 752 0
DWIDTH 8 0
BBX 9 12 0 -3
BITMAP
0A0000
294000
354000
725E00
B24740
E74740
E24E00
E33C00
B91D00
006D00
009D00
007800
ENDCHAR
STARTCHAR uni04320445.liga
ENCODING -1
SWIDTH 842 0
DWIDTH 9 0
BBX 9 9 0 0
BITMAP
0A0000
294000
354000
726C80
B2AD80
E74E40
E24E00
E32B00
B99740
ENDCHAR
STARTCHAR uni04330437.liga
ENCODING -1
SWIDTH 768 0
DWIDTH 8 0
BBX 10 9 -1 -3
BITMAP
1B4680
2395D0
0B51D0
2D52C0
784B40
2E0380
001B80
002340
001E00
ENDCHAR
STARTCHAR uni04330445.liga
ENCODING -1
SWIDTH 725 0
DWIDTH 8 0
BBX 9 6 -1 0
BITMAP
1B6880
23AC80
0B5E00
2D1D00
786E00
2E4B40
ENDCHAR
STARTCHAR uni04330447.liga
ENCODING -1
SWIDTH 834 0
DWIDTH 9 0
BBX 10 6 -1 0
BITMAP
1B5DB0
239CB0
0B6DE0
2D2EE0
7841D0
2E00E0
ENDCHAR
STARTCHAR uni04530437.liga
ENCODING -1
SWIDTH 768 0
DWIDTH 8 0
BBX 10 12 -1 -3
BITMAP
00C000
018000
010000
1B4680
2395D0
0B51D0
2D52C0
784B40
2E0380
001B80
002340
001E00
ENDCHAR
STARTCHAR uni04530445.liga
ENCODING -1
SWIDTH 725 0
DWIDTH 8 0
BBX 9 9 -1 0
BITMAP
00D000
018000
024000
1B6880
23AC80
0B5E00
2D1D00
786E00
2E4B40
ENDCHAR
STARTCHAR uni04530447.liga
ENCODING -1
SWIDTH 834 0
DWIDTH 9 0
BBX 10 9 -1 0
BITMAP
00C000
018000
010000
1B5DB0
239CB0
0B6DE0
2D2EE0
7841D0
2E00E0
ENDCHAR
STARTCHAR uni04340447.liga
ENCODING -1
SWIDTH 965 0
DWIDTH 11 0
BBX 11 9 0 -3
BITMAP
2EDA38
76CE74
E28EB0
E39FF0
E750A0
BB8074
1B0000
5A0000
2D0000
ENDCHAR
STARTCHAR uni04340458.liga
ENCODING -1
SWIDTH 715 0
DWIDTH 8 0
BBX 8 11 0 -3
BITMAP
0007
0006
2EDA
76CE
E28D
E39D
E76C
BB6C
1B38
5E74
3EE0
ENDCHAR
STARTCHAR uni04350437.liga
ENCODING -1
SWIDTH 804 0
DWIDTH 9 0
BBX 9 9 0 -3
BITMAP
2E1B40
771380
E64380
F84740
E11E00
B90B00
002B00
005B00
002D00
ENDCHAR
STARTCHAR uni04350445.liga
ENCODING -1
SWIDTH 747 0
DWIDTH 8 0
BBX 8 6 0 0
BITMAP
2E76
7776
E639
F838
E07C
BA5D
ENDCHAR
STARTCHAR uni04350447.liga
ENCODING -1
SWIDTH 844 0
DWIDTH 9 0
BBX 10 6 0 0
BITMAP
2E35D0
7776C0
E6B380
F8FF80
E20380
B902C0
ENDCHAR
STARTCHAR uni04510437.liga
ENCODING -1
SWIDTH 804 0
DWIDTH 9 0
BBX 9 11 0 -3
BITMAP
264000
000000
2E1B40
771380
E64380
F84740
E11E00
B90B00
002B00
005B00
002D00
ENDCHAR
STARTCHAR uni04510445.liga
ENCODING -1
SWIDTH 747 0
DWIDTH 8 0
BBX 8 8 0 0
BITMAP
2640
0000
2E76
7776
E639
F838
E07C
BA5D
ENDCHAR
STARTCHAR uni04510447.liga
ENCODING -1
SWIDTH 844 0
DWIDTH 9 0
BBX 10 8 0 0
BITMAP
264000
000000
2E35D0
7776C0
E6B380
F8FF80
E20380
B902C0
ENDCHAR
STARTCHAR uni04360447.liga
ENCODING -1
SWIDTH 1341 0
DWIDTH 15 0
BBX 16 6 -1 0
BITMAP
1A2CB6CE
136A978D
03BF43AD
137746EC
6673442C
28B2E01D
ENDCHAR
STARTCHAR uni04370437.liga
ENCODING -1
SWIDTH 849 0
DWIDTH 9 0
BBX 10 9 0 -3
BITMAP
1B4B80
5391D0
4391D0
475280
2D4F00
0A4340
1F0B80
5E2740
681E00
ENDCHAR
STARTCHAR uni04380447.liga
ENCODING -1
SWIDTH 964 0
DWIDTH 11 0
BBX 11 6 0 0
BITMAP
76CA38
B28E74
B39EB0
E75BF0
EB50B0
B78074
ENDCHAR
STARTCHAR uni04390447.liga
ENCODING -1
SWIDTH 964 0
DWIDTH 11 0
BBX 11 9 0 0
BITMAP
044000
288000
1A0000
76CA38
B28E74
B39EB0
E75BF0
EB50B0
B78074
ENDCHAR
STARTCHAR uni043A0447.liga
ENCODING -1
SWIDTH 978 0
DWIDTH 11 0
BBX 12 6 -1 0
BITMAP
1D76CE
2D438D
2FC39D
39D6EC
35D82C
74F41D
ENDCHAR
STARTCHAR uni045C0447.liga
ENCODING -1
SWIDTH 978 0
DWIDTH 11 0
BBX 12 9 -1 0
BITMAP
009000
008000
000000
1D76CE
2D438D
2FC39D
39D6EC
35D82C
74F41D
ENDCHAR
STARTCHAR uni043B0447.liga
ENCODING -1
SWIDTH 1015 0
DWIDTH 11 0
BBX 12 6 -1 0
BITMAP
01B9DB
0275CB
0272DE
15B2EE
65A11D
28740E
ENDCHAR
STARTCHAR uni043C0447.liga
ENCODING -1
SWIDTH 1231 0
DWIDTH 14 0
BBX 15 6 -1 0
BITMAP
02C3CE34
02C78E74
03DB5DB0
12DB5FF0
65F750E0
29E380B4
ENDCHAR
STARTCHAR uni043D0447.liga
ENCODING -1
SWIDTH 965 0
DWIDTH 11 0
BBX 12 6 -1 0
BITMAP
1DB28E
2CA39D
2EE3AC
38D6FC
35D428
74E01D
ENDCHAR
STARTCHAR uni043E0436.liga
ENCODING -1
SWIDTH 1268 0
DWIDTH 14 0
BBX 14 6 0 0
BITMAP
2E2E35E0
77877750
E247BB00
E346B700
E689A700
B8A8E290
ENDCHAR
STARTCHAR uni043E0437.liga
ENCODING -1
SWIDTH 765 0
DWIDTH 8 0
BBX 9 9 0 -3
BITMAP
2E2E00
778740
E24740
E30A00
E63C00
B80D00
006E00
008D00
007800
ENDCHAR
STARTCHAR uni043E043B.liga
ENCODING -1
SWIDTH 945 0
DWIDTH 10 0
BBX 11 6 0 0
BITMAP
2E01F4
764270
E245B0
E305A0
E658E0
BAA8B0
ENDCHAR
STARTCHAR uni043E043C.liga
ENCODING -1
SWIDTH 1161 0
DWIDTH 13 0
BBX 13 6 0 0
BITMAP
2E02C380
7643CB40
E247CF40
E306DB00
E659EB00
BAA5D740
ENDCHAR
STARTCHAR uni043E0445.liga
ENCODING -1
SWIDTH 835 0
DWIDTH 9 0
BBX 9 6 0 0
BITMAP
2E1D80
766D80
E34E40
E31E00
D66B00
B85740
ENDCHAR
STARTCHAR uni043F0447.liga
ENCODING -1
SWIDTH 965 0
DWIDTH 11 0
BBX 12 6 -1 0
BITMAP
1ED28E
2CE39D
28E3AC
39D6FC
35D428
74E01D
ENDCHAR
STARTCHAR uni04400437.liga
ENCODING -1
SWIDTH 818 0
DWIDTH 9 0
BBX 10 10 -1 -3
BITMAP
090000
1ED2D0
2CB4B0
2CA0B0
38E1D0
35D780
7F41C0
B006D0
B00AC0
900B40
ENDCHAR
STARTCHAR uni04410437.liga
ENCODING -1
SWIDTH 804 0
DWIDTH 9 0
BBX 9 9 0 -3
BITMAP
2E1B40
761380
E04380
E04740
E11E00
B90B00
002B00
005B00
002D00
ENDCHAR
STARTCHAR uni04410445.liga
ENCODING -1
SWIDTH 740 0
DWIDTH 8 0
BBX 8 6 0 0
BITMAP
2E76
B276
E039
D038
D078
BA1D
ENDCHAR
STARTCHAR uni04410447.liga
ENCODING -1
SWIDTH 843 0
DWIDTH 9 0
BBX 10 6 0 0
BITMAP
2E35D0
7676C0
E0B780
E0BB80
E10340
B802C0
ENDCHAR
STARTCHAR uni04420447.liga
ENCODING -1
SWIDTH 1211 0
DWIDTH 13 0
BBX 15 6 -1 0
BITMAP
1EEB4E74
2CE35DB0
28E75DF0
39D71EE0
35CB10E0
76C780A0
ENDCHAR
STARTCHAR uni04430447.liga
ENCODING -1
SWIDTH 943 0
DWIDTH 10 0
BBX 11 9 0 -3
BITMAP
76CE74
B39DB0
B39DF0
E76EE0
EB50E0
BF40B0
2E0000
5E0000
780000
ENDCHAR
STARTCHAR uni04430458.liga
ENCODING -1
SWIDTH 694 0
DWIDTH 8 0
BBX 8 11 0 -3
BITMAP
000A
0006
76CE
B29D
B39D
E76C
EB28
BF78
2FB4
5E70
7EE0
ENDCHAR
STARTCHAR uni045E0447.liga
ENCODING -1
SWIDTH 943 0
DWIDTH 10 0
BBX 11 12 0 -3
BITMAP
044000
288000
1A0000
76CE74
B39DB0
B39DF0
E76EE0
EB50E0
BF40B0
2E0000
5E0000
780000
ENDCHAR
STARTCHAR uni045E0458.liga
ENCODING -1
SWIDTH 694 0
DWIDTH 8 0
BBX 8 11 0 -3
BITMAP
188A
1A46
76CE
B29D
B39D
E76C
EB28
BF38
1E74
5EB0
7AE0
ENDCHAR
STARTCHAR uni04440437.liga
ENCODING -1
SWIDTH 1076 0
DWIDTH 12 0
BBX 12 11 0 -3
BITMAP
00D000
01D000
2EED6D
76CA4E
E28A0E
E34D1D
E75C78
BBB42C
0B00AC
0A016C
0900B4
ENDCHAR
STARTCHAR uni04450447.liga
ENCODING -1
SWIDTH 981 0
DWIDTH 11 0
BBX 11 6 0 0
BITMAP
1D5B38
5A9A38
4B4EB4
4B0BB0
2750B0
529074
ENDCHAR
STARTCHAR uni04470447.liga
ENCODING -1
SWIDTH 964 0
DWIDTH 11 0
BBX 11 6 0 0
BITMAP
76CA38
B38E74
B79EB0
7B5BF0
0750B0
038074
ENDCHAR
STARTCHAR uni04480447.liga
ENCODING -1
SWIDTH 1211 0
DWIDTH 13 0
BBX 14 6 0 0
BITMAP
76CE39D0
B28D76C0
B39D7780
E75CBB80
EB7D4380
B79E02C0
ENDCHAR
STARTCHAR uni045F0447.liga
ENCODING -1
SWIDTH 964 0
DWIDTH 11 0
BBX 11 9 0 -3
BITMAP
76CA38
B28E74
B39EB0
E75BF0
EB50B0
B78074
080000
1C0000
080000
ENDCHAR
STARTCHAR uni044B0447.liga
ENCODING -1
SWIDTH 1112 0
DWIDTH 12 0
BBX 12 6 0 0
BITMAP
7029D7
B0B5DB
AA76CE
E372EE
D6B50E
B8780F
ENDCHAR
STARTCHAR uni04550437.liga
ENCODING -1
SWIDTH 768 0
DWIDTH 8 0
BBX 10 10 -1 -3
BITMAP
010000
0B4780
0B55D0
1751D0
2392C0
678B40
2E0380
000B80
002340
001E00
ENDCHAR
STARTCHAR uni04550445.liga
ENCODING -1
SWIDTH 712 0
DWIDTH 8 0
BBX 9 6 -1 0
BITMAP
066980
0B6C80
1B5E40
275D00
67AE00
2E0B40
ENDCHAR
STARTCHAR uni04550447.liga
ENCODING -1
SWIDTH 864 0
DWIDTH 10 0
BBX 11 7 -1 0
BITMAP
010000
0B4E74
0B4D74
175DB0
276EF0
5780E0
2E00B4
ENDCHAR
STARTCHAR uni04540437.liga
ENCODING -1
SWIDTH 804 0
DWIDTH 9 0
BBX 9 9 0 -3
BITMAP
2E1B40
711380
F84380
E04740
E11E00
B90B00
002B00
005B00
002D00
ENDCHAR
STARTCHAR uni04540445.liga
ENCODING -1
SWIDTH 740 0
DWIDTH 8 0
BBX 8 6 0 0
BITMAP
2A76
B276
F83D
D038
E0B8
BA1D
ENDCHAR
STARTCHAR uni04540447.liga
ENCODING -1
SWIDTH 844 0
DWIDTH 9 0
BBX 10 6 0 0
BITMAP
2E35D0
7276C0
F8B780
E0BB80
E10380
B802C0
ENDCHAR
STARTCHAR uni044D0437.liga
ENCODING -1
SWIDTH 765 0
DWIDTH 8 0
BBX 10 9 -1 -3
BITMAP
1B8B80
11E1D0
0BD1D0
02C280
634B00
2A0380
001B80
002340
001E00
ENDCHAR
STARTCHAR uni04560447.liga
ENCODING -1
SWIDTH 717 0
DWIDTH 8 0
BBX 8 9 0 0
BITMAP
2400
2800
0000
76CA
B2CE
B39D
E2ED
E42D
B41E
ENDCHAR
STARTCHAR uni04570447.liga
ENCODING -1
SWIDTH 718 0
DWIDTH 8 0
BBX 8 8 0 0
BITMAP
9900
0000
76CA
B2CE
B39D
E2ED
E41D
B41E
ENDCHAR
STARTCHAR uni04570457.liga
ENCODING -1
SWIDTH 476 0
DWIDTH 5 0
BBX 7 8 0 0
BITMAP
9DA4
0000
75D0
B2C0
B280
E380
E780
B6C0
ENDCHAR
STARTCHAR uni04580447.liga
ENCODING -1
SWIDTH 697 0
DWIDTH 8 0
BBX 10 11 -2 -3
BITMAP
034000
024000
076CE0
0B39D0
0B3AD0
0E6FC0
0D42C0
1E01D0
6C0000
A80000
B40000
ENDCHAR
STARTCHAR uni04580458.liga
ENCODING -1
SWIDTH 449 0
DWIDTH 5 0
BBX 7 11 -2 -3
BITMAP
035C
0258
076C
0B38
0B34
0E74
0DB0
1EB0
6CE0
ADD0
FB80
ENDCHAR
STARTCHAR uni045B0447.liga
ENCODING -1
SWIDTH 937 0
DWIDTH 10 0
BBX 12 12 -1 -3
BITMAP
050000
0E0000
2F8000
1D035D
2E976C
2CE778
38DBB8
35D438
76D02C
078000
174000
1E0000
ENDCHAR
STARTCHAR uni045B0458.liga
ENCODING -1
SWIDTH 691 0
DWIDTH 8 0
BBX 9 11 -1 -3
BITMAP
0A0280
2F8000
1D0380
2E9740
2CE700
38DB00
35CA00
76CE00
079D00
17AC00
1EB400
ENDCHAR
STARTCHAR uni044E0436.liga
ENCODING -1
SWIDTH 1503 0
DWIDTH 17 0
BBX 18 6 -1 0
BITMAP
1D696D72E0
2CE78AB710
2ED70BFE00
3AD60DDE00
35C99DDA00
74A4A5C780
ENDCHAR
STARTCHAR uni044E0437.liga
ENCODING -1
SWIDTH 1001 0
DWIDTH 11 0
BBX 12 9 -1 -3
BITMAP
1D696D
2CE74B
2ED20B
3AD60D
35C978
74A41C
00006D
0000AC
0000B4
ENDCHAR
STARTCHAR uni044E043B.liga
ENCODING -1
SWIDTH 1181 0
DWIDTH 13 0
BBX 14 6 -1 0
BITMAP
1D6D02F0
2CE205A0
2ED208E0
3AD609D0
35C9D9D0
74A9A4E0
ENDCHAR
STARTCHAR uni044E043C.liga
ENCODING -1
SWIDTH 1396 0
DWIDTH 15 0
BBX 17 6 -1 0
BITMAP
1D6D074740
2CE2078F00
2ED20B9F00
3AD60BAE00
35C9DBDE00
74A9A2CA00
ENDCHAR
STARTCHAR uni044E0445.liga
ENCODING -1
SWIDTH 1072 0
DWIDTH 12 0
BBX 13 6 -1 0
BITMAP
1D693980
2CE7AD80
2ED71E00
3AD62D00
35C99E00
74A48B40
ENDCHAR
STARTCHAR uni044F0447.liga
ENCODING -1
SWIDTH 984 0
DWIDTH 11 0
BBX 12 6 -1 0
BITMAP
06B6CE
0D728E
1DA39D
0BE3FD
65D42C
68A41D
ENDCHAR
STARTCHAR brevecombcy
ENCODING -1
SWIDTH 0 0
DWIDTH 0 0
BBX 4 2 -3 6
BITMAP
C5
A4
ENDCHAR
STARTCHAR brevecombcy.case
ENCODING -1
SWIDTH 0 0
DWIDTH 0 0
BBX 4 2 -3 9
BITMAP
A2
68
ENDCHAR
ENDFONT
